<?xml version="1.0"?>
<VTKFile type="UnstructuredGrid" version="0.1" byte_order="LittleEndian">
  <UnstructuredGrid>
    <Piece NumberOfPoints="288" NumberOfCells="510">
      <PointData>
      </PointData>
      <CellData>
        <DataArray type="Float64" Name="eta_H_T" NumberOfComponents="1" format="ascii">
          0.0009562001648521978 0.0016665121055923053 0.35991664267490181 0.002188144595038436 0.0017160175635375409 0.20067397252935151 0.0004162440204351666 0.33966195150043749 0.0022029930652722549 0.00082007296699270502 0.049365508342965617 0.00021436765045345466 0.089797461637779671 0.0015710410755677641 0.00033772632507524558 0.32021770008453387 0.00064353585909234824 0.031416219068824795 0.00066645124112182973 0.00014514396567505671 0.0023543238488824086 0.0011646570926571965 0.39908342726840268 0.00053541565054730648 0.0011756887143053671 0.010434132282386863 0.00020699690034871839 0.020880581597480366 0.0011151081224685291 0.083827441563937163 0.16384294942610209 0.0009466652561494999 0.22168586492730838 0.14211600207864053 0.018413065695768071 0.30648770339953635 0.0021426292155040869 0.056062412609030748 0.40974258897773402 0.018913398221495428 0.031950533490949146 0.28800378233524226 0.05466921130826146 0.0023900065465867 0.33236840924061339 0.032915931757304819 0.052085519802617213 0.24579985444398919 0.00064378477821888192 0.35103651279569237 0.093096395953587791 0.00051508109389109197 0.0022382850774730289 0.00019191849746802363 0.007714674526889953 0.0011077838451343679 0.00011982576023956183 0.33053546344526219 0.0008605045179312864 0.01219865236153179 0.00051783920392902685 0.00026967884362870745 0.030088679314356537 0.0005187940688710594 0.41505015152264002 0.00064083512522458653 0.00055548480063227074 0.1405227311043282 0.00023776149079150679 0.20946455490637786 0.00088582915247568581 0.00097690879171808461 0.19141777675639154 0.00086379107569783216 0.28102289917867129 0.0022567191774543701 0.0010780276415439962 0.26880806474844804 0.00048690733089270963 0.14080477494854032 0.41505342259865474 0.001394556320935666 0.00044778563279535119 0.00048774393103367855 0.35240778360445291 0.0007801076686900115 0.00071136098675904033 0.26020126387726045 0.00023842784096767108 0.39216854421980984 0.00098098688154483918 0.00052444019295925192 0.00023665930706099698 0.26104513770472254 0.0010336261320906689 0.00035039678363066985 0.33916278421900653 0.00042214871017480331 0.00075321174007452125 0.00011629095517048302 0.0014641470290804686 0.0010353245614928037 0.00048632623570075116 0.00093266596465977941 0.00094625409675307289 0.00019135291453347455 0.0016794366593942344 0.00079056325622396586 0.15233125518195539 0.22143434899489123 0.15121563993194931 0.013840351728042625 0.28540348916318953 0.2098971953357916 0.12851497863593628 0.28351328629377393 0.013938969990995127 0.028156817694736467 0.34259281606028907 0.15563225504291447 0.018389401086814108 0.34548130439730212 0.0038056611227206163 0.0026701012933802223 0.38631525303807307 0.018882664190997409 0.045106404901317343 0.14525965420658171 0.00047637846607432422 0.24698979977077504 0.089336563381303885 0.005288734687638629 0.0023062455458408688 0.00025973625842854104 0.0093861829290513878 0.012082020956671746 0.00027172936582090825 0.33155879369745789 0.0015390144474663595 0.00278495833836132 0.39277563829654699 0.00065633426531981837 0.00035219048031972123 0.017544598406965924 0.0015356089052609642 0.38645501174712982 0.00072247077828115525 0.0015370680915046985 0.084294644315251493 0.0002707844769083418 0.17747069679004876 0.0055281725107513592 0.0053798453917659264 0.080576015811170756 0.00036785858730637859 0.15450255686490033 0.012363140979102337 0.00071535923136490276 0.3173128466708991 0.0013894102463529148 0.02906498496513258 0.43246097977230774 0.0010542203609352528 0.00060950379722013817 0.017739497771978089 0.0019574403579188573 0.3861732265135574 0.0010210485804615047 0.0019117995944326702 0.14525576571991736 0.0003687309202343772 0.26811044109411419 0.005735871623831346 0.0052892410402193496 0.049353271976834229 0.0002685112246645955 0.089636938018433462 0.01207367808154235 0.00041236560379758776 0.32004740822438005 0.0013420359925963941 0.029027385784428716 0.40858175682058973 0.00075202109760581651 0.00027496662283174475 0.34039998948187022 0.0020462854733257459 0.0017529727781701791 0.39327285293921044 0.0006476086093519009 0.001708155484739306 0.0090495960809269284 0.00026047713968886844 0.020814655073980812 0.0055234629946463538 0.08398665915844615 0.078054117164250661 0.00047658622563297707 0.15450738892299276 0.14260574919432106 0.018391915050657542 0.33047769121820897 0.0024324658474674031 0.0035388229402937249 0.41127825393253198 0.018883634538056387 0.12852091258654844 0.27872917727456231 0.028235771278146228 0.013962236577723235 0.32911387615352822 0.15565397085547075 0.13494241041874924 0.23815295944652068 0.013794133603962885 0.15120299405528081 0.32053838937874807 0.17836552210788534 0.00052476715056705924 0.0015061220724283918 0.00019016164066592629 0.001196916516164805 0.0010987502150521208 0.0001153033991160605 0.00086106351969914192 0.0016531279651635787 0.00049945125145649271 0.00029151696283725531 0.00049032952391111497 0.40809020687589348 0.00066227248270850597 0.00055256965360126809 0.22242618821055515 0.00024475301917377043 0.30084038137144353 0.00089485603831130137 0.00060765327195680657 0.00023501812222288647 0.31215168555478884 0.00111469864642083 0.00057760164307600506 0.28782063350303921 0.00042208416958076158 0.00086181719940579523 0.00088635222194915727 0.0009637404458370688 0.32515602564475532 0.0021115862161670937 0.0011552291510049447 0.239001582268902 0.0003402521682736006 0.38813775341404394 0.0014711878564048308 0.00052493060090438566 0.055065909030313574 0.00022742837851328073 0.15632169705408014 0.0010270031432981768 0.00034185148414703616 0.3461766554766289 0.00041981088200024276 0.11682271553913774 0.0007232074253036287 0.00012662295554377348 0.0022102585626454681 0.0010198047833110374 0.39491302292484065 0.00049383254091946616 0.0009315963962359899 0.0074273012026818902 0.00019603918652532574 0.012202245484385916 0.00079996723358377771 0.087795346821953224 0.23300084826034972 0.0015242758924640513 0.28915042384692918 0.14461027809325055 0.031930345711905832 0.28996641160080178 0.0021050466423694555 0.061115461330454049 0.37128373498762018 0.032773133394160506 0.018404154319287734 0.32501081159550171 0.048933470905668346 0.002464778034669031 0.36006902606077085 0.018981581691605926 0.045098531037171069 0.2006767871878736 0.00051403602592665313 0.32325066722933865 0.089179451175381716 0.00081680076266101064 0.0025547461043610971 0.00020326862948451117 0.010812210192446485 0.001633921063534038 0.00013360586702280074 0.33172317617917346 0.0009907791207043686 0.012334735021424039 0.00055623393763908004 0.00026362522930900031 0.017583187703280191 0.00080100392782296299 0.39236656479091442 0.00062388863863230477 0.00090941030938841369 0.084454502470224638 0.00021982631641367977 0.17747844106016275 0.0011382064752032523 0.00149123405191747 0.16505926570282478 0.00089686153724672344 0.22168249717683988 0.0036613656484594335 0.0011358643915390881 0.2922441626527274 0.00077745140600992877 0.063049537593592581 0.43100079592734902 0.0014954462502546797 0.027845658580858842 0.43735771184727623 0.33394336282652914 0.21855184793103682 0.35401432913958575 0.11396406470035143 0.06250614681869196 0.1720884104649324 0.27703999808671576 0.38876108023300249 0.19771749004280059 0.16261222763322955 0.28644554367506836 0.27755987882737537 0.12342143348372482 0.3949119756287971 0.28061846137962704 0.46816231599752606 0.25468477787020632 0.30293310373633148 0.17237244849230268 0.053408386257879754 0.16977664840827811 0.36808582712933652 0.34766254847649014 0.12313427407808469 0.27487154132310349 0.4406396482705574 0.22972483833526738 0.34176404209626715 0.19338437034226713 0.32562049794665604 0.33372444227029463 0.043022011414018353 0.12947845535042202 0.18112641346329841 0.47442838425722478 0.11181045820428794 0.27479652336261734 0.22129077835325173 0.22226985903198515 0.40988994961627873 0.39493046427611739 0.39225483265889793 0.30094273505202107 0.40884508092785121 0.47047145684996994 0.29804201029865973 0.36151515606301188 0.18820402570031236 0.46379945156253621 0.43054687072191761 0.37269603438833748 0.35848785069464295 0.3758770229723265 0.46517639700192781 0.51768924262322191 0.36491392880101547 0.3442611934875448 0.43326587319297805 0.44614979851044528 0.41658724671171077 0.45757749478113513 0.40824793249901514 0.41869675194551698 0.43434113849238221 0.191958762745397 0.29613771380956477 0.13183487508242811 0.46661978428715911 0.47120845699364794 0.23665999948663172 0.32218557492925393 0.38339777611458553 0.47261873805724836 0.44146362805094597 0.39885268091846116 0.36675769253005996 0.29856710236260392 0.43125577826812539 0.46344907562183829 0.40114989387746458 0.36193536903039064 0.27509633935955935 0.26763853521623565 0.4627303330720951 0.44599911352081262 0.22830416400384995 0.29345969570748276 0.19212481125768666 0.39085142941249201 0.42688711353858155 0.43675134295913348 0.44261575533369396 0.45848538549548612 0.42298193822801922 0.47204583005025413 0.26151236337702766 0.34726086926933442 0.13636193704437286 0.44360077342730597 0.43840006755127947 0.43963939497650817 0.39934452021160893 0.47425554739426123 0.49247388620792809 0.32220654735837012 0.22799502681504652 0.43953361571797273 0.43002408098876743 0.44734184088169948 0.36235487846108305 0.38910904186232159 0.40596497802023357 0.41831952055465127 0.47359912455536013 0.2234135496182858 0.33072975626203632 0.16453336742188113 0.45518281582772024 0.42525093040284839 0.42913395141790195 0.40059989344507974 0.41453287348588314 0.46908068189614177 0.51936494657754984 0.34155549250514078 0.26806265292476478 0.43340283462772566 0.46114460308400712 0.44056055426936125 0.46310350138860207 0.42367065198867082 0.43708880394200705 0.38600174129132242 0.19255793223136666 0.299413883518659 0.089591744235550663 0.46082398505872058 0.47039333188091426 0.29706307057024012 0.26145883773666473 0.37539806887546856 0.45186214529016083 0.43717686021540703 0.4036915803941899 0.30579166013642217 0.35296619593820583 0.4382370259389608 0.48370871287515166 0.40581740369531166 0.35653019556532684 0.34158551132917614 0.19847385972234552 0.46850254964920629 0.4468587388936881 0.24794464090665058 0.29306689054591684 0.18697811368561923 0.43865672248435222 0.40209941538134425 0.43088751003992148 0.4278764540177824 0.44098661688447649 0.41361431187636605 0.4689078018105084 0.32757310931891631 0.37669768742562199 0.1641465935349059 0.45243804175838387 0.44353903245251575 0.3847456086878196 0.35905720856308648 0.47039421598673609 0.49070636106641535 0.34687040826966625 0.31406992167477554 0.44665376377265553 0.42988604308649053 0.43186805897268216 0.45206945064184395 0.40855811828120348 0.44503595681411395 0.36735949760545622 
        </DataArray>
        <DataArray type="Int32" Name="eta_H_T_available" NumberOfComponents="1" format="ascii">
          1 1 1 1 1 1 1 1 1 1 1 1 1 1 1 1 1 1 1 1 1 1 1 1 1 1 1 1 1 1 1 1 1 1 1 1 1 1 1 1 1 1 1 1 1 1 1 1 1 1 1 1 1 1 1 1 1 1 1 1 1 1 1 1 1 1 1 1 1 1 1 1 1 1 1 1 1 1 1 1 1 1 1 1 1 1 1 1 1 1 1 1 1 1 1 1 1 1 1 1 1 1 1 1 1 1 1 1 1 1 1 1 1 1 1 1 1 1 1 1 1 1 1 1 1 1 1 1 1 1 1 1 1 1 1 1 1 1 1 1 1 1 1 1 1 1 1 1 1 1 1 1 1 1 1 1 1 1 1 1 1 1 1 1 1 1 1 1 1 1 1 1 1 1 1 1 1 1 1 1 1 1 1 1 1 1 1 1 1 1 1 1 1 1 1 1 1 1 1 1 1 1 1 1 1 1 1 1 1 1 1 1 1 1 1 1 1 1 1 1 1 1 1 1 1 1 1 1 1 1 1 1 1 1 1 1 1 1 1 1 1 1 1 1 1 1 1 1 1 1 1 1 1 1 1 1 1 1 1 1 1 1 1 1 1 1 1 1 1 1 1 1 1 1 1 1 1 1 1 1 1 1 1 1 1 1 1 1 1 1 1 1 1 1 1 1 1 1 1 1 1 1 1 1 1 1 1 1 1 1 1 1 1 1 1 1 1 1 1 1 1 1 1 1 1 1 1 1 1 1 1 1 1 1 1 1 1 1 1 1 1 1 1 1 1 1 1 1 1 1 1 1 1 1 1 1 1 1 1 1 1 1 1 1 1 1 1 1 1 1 1 1 1 1 1 1 1 1 1 1 1 1 1 1 1 1 1 1 1 1 1 1 1 1 1 1 1 1 1 1 1 1 1 1 1 1 1 1 1 1 1 1 1 1 1 1 1 1 1 1 1 1 1 1 1 1 1 1 1 1 1 1 1 1 1 1 1 1 1 1 1 1 1 1 1 1 1 1 1 1 1 1 1 1 1 1 1 1 1 1 1 1 1 1 1 1 1 1 1 1 1 1 1 1 1 1 1 1 1 1 1 1 1 1 1 1 1 1 1 1 1 1 1 1 1 1 1 1 1 1 1 1 1 1 1 1 1 1 1 1 
        </DataArray>
      </CellData>
      <Points>
        <DataArray type="Float64" NumberOfComponents="3" format="ascii">
          -1 -1 0 0 -1 0 -1 0 0 0 0 0 1 0 0 -1 1 0 0 1 0 1 1 0 -0.5 -0.5 0 -0.5 0.5 0 0.5 0.5 0 -0.5 -1 0 -1 -0.5 0 0 -0.5 0 -0.5 0 0 -1 0.5 0 0.5 0 0 0 0.5 0 1 0.5 0 -0.5 1 0 0.5 1 0 -0.75 -0.75 0 -0.25 -0.75 0 -0.75 -0.25 0 -0.75 0.25 0 -0.25 -0.25 0 -0.25 0.25 0 0.25 0.25 0 0.75 0.25 0 -0.75 0.75 0 -0.25 0.75 0 0.25 0.75 0 0.75 0.75 0 -0.75 -1 0 -1 -0.75 0 -0.25 -1 0 0 -0.75 0 -1 -0.25 0 -0.75 0 0 -1 0.25 0 0 -0.25 0 -0.25 0 0 0.25 0 0 0 0.25 0 0.75 0 0 1 0.25 0 -1 0.75 0 -0.75 1 0 0 0.75 0 -0.25 1 0 0.25 1 0 1 0.75 0 0.75 1 0 -0.5 -0.75 0 -0.75 -0.5 0 -0.25 -0.5 0 -0.5 -0.25 0 -0.5 0.25 0 -0.75 0.5 0 -0.25 0.5 0 -0.5 0.75 0 0.5 0.25 0 0.25 0.5 0 0.75 0.5 0 0.5 0.75 0 -0.875 -0.875 0 -0.125 -0.875 0 -0.875 -0.125 0 -0.875 0.125 0 -0.125 -0.125 0 -0.125 0.125 0 0.125 0.125 0 0.875 0.125 0 -0.875 0.875 0 -0.125 0.875 0 0.125 0.875 0 0.875 0.875 0 -0.625 -0.625 0 -0.375 -0.625 0 -0.625 -0.375 0 -0.375 -0.375 0 -0.625 0.375 0 -0.375 0.375 0 -0.625 0.625 0 -0.375 0.625 0 0.375 0.375 0 0.625 0.375 0 0.375 0.625 0 0.625 0.625 0 -0.625 -0.875 0 -0.375 -0.875 0 -0.875 -0.625 0 -0.875 -0.375 0 -0.125 -0.625 0 -0.125 -0.375 0 -0.625 -0.125 0 -0.625 0.125 0 -0.375 -0.125 0 -0.375 0.125 0 -0.875 0.375 0 -0.875 0.625 0 0.375 0.125 0 0.625 0.125 0 -0.125 0.375 0 0.125 0.375 0 -0.125 0.625 0 0.125 0.625 0 0.875 0.375 0 0.875 0.625 0 -0.625 0.875 0 -0.375 0.875 0 0.375 0.875 0 0.625 0.875 0 -0.875 -1 0 -1 -0.875 0 -0.125 -1 0 0 -0.875 0 -1 -0.125 0 -0.875 0 0 -1 0.125 0 0 -0.125 0 -0.125 0 0 0.125 0 0 0 0.125 0 0.875 0 0 1 0.125 0 -1 0.875 0 -0.875 1 0 0 0.875 0 -0.125 1 0 0.125 1 0 1 0.875 0 0.875 1 0 -0.5 -0.625 0 -0.625 -0.5 0 -0.375 -0.5 0 -0.5 -0.375 0 -0.5 0.375 0 -0.625 0.5 0 -0.375 0.5 0 -0.5 0.625 0 0.5 0.375 0 0.375 0.5 0 0.625 0.5 0 0.5 0.625 0 -0.625 -1 0 -0.375 -1 0 -0.5 -0.875 0 -1 -0.625 0 -1 -0.375 0 -0.875 -0.5 0 0 -0.625 0 0 -0.375 0 -0.125 -0.5 0 -0.625 0 0 -0.375 0 0 -0.5 -0.125 0 -0.5 0.125 0 -1 0.375 0 -1 0.625 0 -0.875 0.5 0 0.375 0 0 0.625 0 0 0.5 0.125 0 0 0.375 0 0 0.625 0 -0.125 0.5 0 0.125 0.5 0 1 0.375 0 1 0.625 0 0.875 0.5 0 -0.625 1 0 -0.375 1 0 -0.5 0.875 0 0.375 1 0 0.625 1 0 0.5 0.875 0 -0.75 -0.875 0 -0.875 -0.75 0 -0.625 -0.75 0 -0.75 -0.625 0 -0.25 -0.875 0 -0.125 -0.75 0 -0.375 -0.75 0 -0.25 -0.625 0 -0.875 -0.25 0 -0.75 -0.125 0 -0.75 -0.375 0 -0.625 -0.25 0 -0.75 0.125 0 -0.875 0.25 0 -0.625 0.25 0 -0.75 0.375 0 -0.125 -0.25 0 -0.25 -0.125 0 -0.25 -0.375 0 -0.375 -0.25 0 -0.25 0.125 0 -0.125 0.25 0 -0.375 0.25 0 -0.25 0.375 0 0.25 0.125 0 0.125 0.25 0 0.375 0.25 0 0.25 0.375 0 0.75 0.125 0 0.875 0.25 0 0.625 0.25 0 0.75 0.375 0 -0.875 0.75 0 -0.75 0.875 0 -0.75 0.625 0 -0.625 0.75 0 -0.125 0.75 0 -0.25 0.875 0 -0.25 0.625 0 -0.375 0.75 0 0.125 0.75 0 0.25 0.875 0 0.25 0.625 0 0.375 0.75 0 0.875 0.75 0 0.75 0.875 0 0.75 0.625 0 0.625 0.75 0 -0.0625 -0.0625 0 -0.0625 0.0625 0 0.0625 0.0625 0 -0.5625 -0.0625 0 -0.5625 0.0625 0 -0.4375 -0.0625 0 -0.4375 0.0625 0 -0.0625 0.4375 0 0.0625 0.4375 0 -0.0625 0.5625 0 -0.1875 0.1875 0 -0.3125 0.3125 0 -0.3125 0.1875 0 -0.1875 0.3125 0 -0.1875 -0.0625 0 -0.1875 0.0625 0 -0.3125 -0.0625 0 -0.3125 0.0625 0 -0.0625 0.1875 0 0.0625 0.1875 0 -0.0625 0.3125 0 0.0625 0.3125 0 -0.4375 0.3125 0 -0.5625 0.1875 0 -0.4375 0.1875 0 -0.3125 0.4375 0 -0.1875 0.4375 0 -0.4375 0 0 -0.5 -0.0625 0 -0.5 0.0625 0 -0.3125 -0.1875 0 -0.25 0.1875 0 -0.1875 0.25 0 -0.3125 0.25 0 -0.25 0.3125 0 -0.1875 0 0 -0.3125 0 0 -0.25 -0.0625 0 -0.25 0.0625 0 0 0.3125 0 -0.0625 0.25 0 0.0625 0.25 0 -0.4375 -0.1875 0 -0.5 0.1875 0 -0.4375 0.25 0 -0.25 0.4375 0 -0.125 0.0625 0 -0.1875 0.125 0 -0.125 0.1875 0 -0.375 0.3125 0 -0.3125 0.375 0 -0.375 -0.0625 0 -0.4375 -0.125 0 -0.3125 -0.125 0 -0.375 0.0625 0 -0.4375 0.125 0 -0.3125 0.125 0 -0.375 0.1875 0 -0.0625 0.375 0 -0.125 0.4375 0 -0.125 0.3125 0 -0.1875 0.375 0 0.0625 0.375 0 
        </DataArray>
      </Points>
      <Cells>
        <DataArray type="Int32" Name="connectivity" format="ascii">
          179 89 53 216 110 60 203 101 61 224 112 64 187 92 54 184 93 55 211 100 58 219 106 62 208 107 63 181 90 35 186 95 38 210 109 47 205 102 44 218 111 50 178 91 34 193 94 40 190 99 39 213 105 48 221 108 51 177 65 33 189 68 38 214 74 49 201 71 42 222 76 52 185 67 37 182 66 36 209 73 46 217 75 48 206 72 45 183 78 53 188 79 56 212 83 60 207 86 61 220 87 64 180 77 54 195 80 55 192 81 58 215 84 59 204 85 62 223 88 63 133 77 53 136 80 56 137 81 57 140 84 60 141 85 61 144 88 64 134 79 54 135 78 55 138 83 58 142 87 62 143 86 63 115 66 35 118 67 38 127 73 47 124 72 44 130 75 50 114 65 34 120 69 40 119 68 39 128 74 48 131 76 51 145 89 33 154 96 38 172 110 49 161 101 42 175 112 52 149 92 37 151 93 36 159 100 46 165 106 48 168 107 45 147 90 53 156 95 56 173 109 60 163 102 61 176 111 64 150 91 54 153 94 55 160 99 58 166 105 59 167 104 62 170 108 63 147 89 11 173 110 19 163 101 16 176 112 20 150 92 12 153 93 13 160 100 15 167 106 17 170 107 18 146 90 11 171 109 19 162 102 16 174 111 20 148 91 12 152 94 13 158 99 15 169 108 18 113 65 0 118 68 2 129 74 6 132 76 7 117 67 2 116 66 1 126 73 5 128 75 6 125 72 4 133 78 8 136 79 8 137 82 9 140 83 9 141 86 10 144 87 10 134 77 8 135 80 8 138 81 9 139 84 9 142 85 10 143 88 10 179 77 21 196 80 25 191 81 24 216 84 30 203 85 27 224 88 32 187 79 23 184 78 22 211 83 29 219 87 31 208 86 28 181 66 22 186 67 23 210 73 29 205 72 28 218 75 31 178 65 21 193 69 25 190 68 24 213 74 30 202 71 27 221 76 32 177 89 21 189 96 24 214 110 30 201 101 27 222 112 32 185 92 23 182 93 22 209 100 29 217 106 31 206 107 28 183 90 22 188 95 23 212 109 29 207 102 28 220 111 31 180 91 21 195 94 25 192 99 24 215 105 30 204 104 27 223 108 32 179 21 89 191 24 96 216 30 110 203 27 101 224 32 112 187 23 92 184 22 93 211 29 100 219 31 106 208 28 107 181 22 90 186 23 95 210 29 109 205 28 102 218 31 111 178 21 91 193 25 94 190 24 99 213 30 105 202 27 104 221 32 108 177 21 65 194 25 69 189 24 68 214 30 74 201 27 71 222 32 76 185 23 67 182 22 66 209 29 73 217 31 75 206 28 72 183 22 78 188 23 79 212 29 83 207 28 86 220 31 87 180 21 77 195 25 80 192 24 81 215 30 84 204 27 85 223 32 88 133 8 77 136 8 80 137 9 81 140 9 84 141 10 85 144 10 88 134 8 79 135 8 78 138 9 83 139 9 82 142 10 87 143 10 86 115 1 66 118 2 67 127 5 73 124 4 72 130 6 75 114 0 65 119 2 68 128 6 74 131 7 76 145 11 89 172 19 110 161 16 101 175 20 112 149 12 92 151 13 93 159 15 100 165 17 106 168 18 107 147 11 90 173 19 109 163 16 102 176 20 111 150 12 91 153 13 94 160 15 99 170 18 108 147 53 89 173 60 110 163 61 101 176 64 112 150 54 92 153 55 93 160 58 100 167 62 106 170 63 107 146 35 90 154 38 95 171 47 109 162 44 102 174 50 111 148 34 91 152 40 94 158 39 99 165 48 105 169 51 108 113 33 65 118 38 68 129 49 74 122 42 71 132 52 76 117 37 67 116 36 66 126 46 73 128 48 75 125 45 72 133 53 78 136 56 79 140 60 83 141 61 86 144 64 87 134 54 77 135 55 80 138 58 81 139 59 84 142 62 85 143 63 88 179 53 77 196 56 80 191 57 81 216 60 84 203 61 85 224 64 88 187 54 79 184 55 78 211 58 83 219 62 87 208 63 86 181 35 66 186 38 67 210 47 73 205 44 72 218 50 75 178 34 65 193 40 69 190 39 68 213 48 74 221 51 76 177 33 89 189 38 96 214 49 110 201 42 101 222 52 112 185 37 92 182 36 93 209 46 100 217 48 106 206 45 107 183 53 90 188 56 95 212 60 109 207 61 102 220 64 111 180 54 91 195 55 94 192 58 99 215 59 105 204 62 104 223 63 108 248 191 96 246 202 104 239 194 69 250 139 82 244 123 71 229 157 96 228 154 95 234 165 105 225 121 69 227 122 71 226 123 70 226 121 3 225 120 3 227 123 3 229 154 14 232 164 17 234 166 17 233 167 17 251 166 59 243 123 43 247 137 57 248 57 191 250 59 139 244 43 123 232 17 166 228 14 154 234 17 165 233 17 164 225 3 121 227 3 122 226 3 123 225 69 120 227 71 123 229 96 154 228 95 156 234 105 166 233 104 167 248 96 157 239 69 121 243 70 123 247 82 137 244 71 202 267 196 97 255 196 25 267 156 56 286 251 200 281 242 197 273 243 198 274 247 199 271 240 121 276 241 155 283 245 164 280 249 157 277 230 156 284 232 166 279 231 155 287 233 164 275 236 200 272 235 197 285 238 198 282 237 199 259 238 200 256 237 197 257 235 198 258 236 199 252 230 155 253 228 156 254 231 157 268 248 157 261 242 155 264 246 164 260 239 121 270 250 200 263 240 197 266 244 202 262 241 194 265 245 198 269 249 199 270 251 59 263 242 41 266 246 43 262 239 41 265 243 43 269 247 57 260 240 41 261 241 41 264 245 43 268 249 57 253 230 14 254 229 14 252 231 14 259 236 26 256 235 26 257 238 26 258 237 26 286 238 103 281 237 98 273 235 70 274 236 82 271 226 70 276 230 97 283 232 103 280 231 98 284 251 103 279 242 98 287 246 104 275 250 82 272 240 70 278 241 97 285 245 103 282 249 98 267 56 196 255 25 194 255 97 196 286 103 251 281 98 242 273 70 243 274 82 247 271 70 240 276 97 241 283 103 245 280 98 249 277 97 230 284 103 232 279 98 231 287 104 233 275 82 236 272 70 235 285 103 238 282 98 237 259 26 238 256 26 237 257 26 235 258 26 236 252 14 230 253 14 228 254 14 231 268 57 248 261 41 242 264 43 246 260 41 239 270 59 250 263 41 240 266 43 244 262 41 241 265 43 245 269 57 249 270 200 251 263 197 242 266 202 246 262 194 239 265 198 243 269 199 247 260 121 240 261 155 241 264 164 245 268 157 249 253 156 230 254 157 229 252 155 231 259 200 236 256 197 235 257 198 238 258 199 237 286 200 238 281 197 237 273 198 235 274 199 236 271 121 226 276 155 230 283 164 232 280 157 231 284 166 251 279 155 242 287 164 246 275 200 250 272 197 240 278 194 241 285 198 245 282 199 249 278 255 194 277 267 97 278 97 255 277 156 267 
        </DataArray>
        <DataArray type="Int32" Name="offsets" format="ascii">
          3 6 9 12 15 18 21 24 27 30 33 36 39 42 45 48 51 54 57 60 63 66 69 72 75 78 81 84 87 90 93 96 99 102 105 108 111 114 117 120 123 126 129 132 135 138 141 144 147 150 153 156 159 162 165 168 171 174 177 180 183 186 189 192 195 198 201 204 207 210 213 216 219 222 225 228 231 234 237 240 243 246 249 252 255 258 261 264 267 270 273 276 279 282 285 288 291 294 297 300 303 306 309 312 315 318 321 324 327 330 333 336 339 342 345 348 351 354 357 360 363 366 369 372 375 378 381 384 387 390 393 396 399 402 405 408 411 414 417 420 423 426 429 432 435 438 441 444 447 450 453 456 459 462 465 468 471 474 477 480 483 486 489 492 495 498 501 504 507 510 513 516 519 522 525 528 531 534 537 540 543 546 549 552 555 558 561 564 567 570 573 576 579 582 585 588 591 594 597 600 603 606 609 612 615 618 621 624 627 630 633 636 639 642 645 648 651 654 657 660 663 666 669 672 675 678 681 684 687 690 693 696 699 702 705 708 711 714 717 720 723 726 729 732 735 738 741 744 747 750 753 756 759 762 765 768 771 774 777 780 783 786 789 792 795 798 801 804 807 810 813 816 819 822 825 828 831 834 837 840 843 846 849 852 855 858 861 864 867 870 873 876 879 882 885 888 891 894 897 900 903 906 909 912 915 918 921 924 927 930 933 936 939 942 945 948 951 954 957 960 963 966 969 972 975 978 981 984 987 990 993 996 999 1002 1005 1008 1011 1014 1017 1020 1023 1026 1029 1032 1035 1038 1041 1044 1047 1050 1053 1056 1059 1062 1065 1068 1071 1074 1077 1080 1083 1086 1089 1092 1095 1098 1101 1104 1107 1110 1113 1116 1119 1122 1125 1128 1131 1134 1137 1140 1143 1146 1149 1152 1155 1158 1161 1164 1167 1170 1173 1176 1179 1182 1185 1188 1191 1194 1197 1200 1203 1206 1209 1212 1215 1218 1221 1224 1227 1230 1233 1236 1239 1242 1245 1248 1251 1254 1257 1260 1263 1266 1269 1272 1275 1278 1281 1284 1287 1290 1293 1296 1299 1302 1305 1308 1311 1314 1317 1320 1323 1326 1329 1332 1335 1338 1341 1344 1347 1350 1353 1356 1359 1362 1365 1368 1371 1374 1377 1380 1383 1386 1389 1392 1395 1398 1401 1404 1407 1410 1413 1416 1419 1422 1425 1428 1431 1434 1437 1440 1443 1446 1449 1452 1455 1458 1461 1464 1467 1470 1473 1476 1479 1482 1485 1488 1491 1494 1497 1500 1503 1506 1509 1512 1515 1518 1521 1524 1527 1530 
        </DataArray>
        <DataArray type="UInt8" Name="types" format="ascii">
          5 5 5 5 5 5 5 5 5 5 5 5 5 5 5 5 5 5 5 5 5 5 5 5 5 5 5 5 5 5 5 5 5 5 5 5 5 5 5 5 5 5 5 5 5 5 5 5 5 5 5 5 5 5 5 5 5 5 5 5 5 5 5 5 5 5 5 5 5 5 5 5 5 5 5 5 5 5 5 5 5 5 5 5 5 5 5 5 5 5 5 5 5 5 5 5 5 5 5 5 5 5 5 5 5 5 5 5 5 5 5 5 5 5 5 5 5 5 5 5 5 5 5 5 5 5 5 5 5 5 5 5 5 5 5 5 5 5 5 5 5 5 5 5 5 5 5 5 5 5 5 5 5 5 5 5 5 5 5 5 5 5 5 5 5 5 5 5 5 5 5 5 5 5 5 5 5 5 5 5 5 5 5 5 5 5 5 5 5 5 5 5 5 5 5 5 5 5 5 5 5 5 5 5 5 5 5 5 5 5 5 5 5 5 5 5 5 5 5 5 5 5 5 5 5 5 5 5 5 5 5 5 5 5 5 5 5 5 5 5 5 5 5 5 5 5 5 5 5 5 5 5 5 5 5 5 5 5 5 5 5 5 5 5 5 5 5 5 5 5 5 5 5 5 5 5 5 5 5 5 5 5 5 5 5 5 5 5 5 5 5 5 5 5 5 5 5 5 5 5 5 5 5 5 5 5 5 5 5 5 5 5 5 5 5 5 5 5 5 5 5 5 5 5 5 5 5 5 5 5 5 5 5 5 5 5 5 5 5 5 5 5 5 5 5 5 5 5 5 5 5 5 5 5 5 5 5 5 5 5 5 5 5 5 5 5 5 5 5 5 5 5 5 5 5 5 5 5 5 5 5 5 5 5 5 5 5 5 5 5 5 5 5 5 5 5 5 5 5 5 5 5 5 5 5 5 5 5 5 5 5 5 5 5 5 5 5 5 5 5 5 5 5 5 5 5 5 5 5 5 5 5 5 5 5 5 5 5 5 5 5 5 5 5 5 5 5 5 5 5 5 5 5 5 5 5 5 5 5 5 5 5 5 5 5 5 5 5 5 5 5 5 5 5 5 5 5 5 5 5 5 5 5 5 5 5 5 5 5 5 5 5 5 5 5 5 5 5 5 5 5 5 5 5 5 5 5 5 5 5 
        </DataArray>
      </Cells>
    </Piece>
  </UnstructuredGrid>
</VTKFile>
