<?xml version="1.0"?>
<VTKFile type="UnstructuredGrid" version="0.1" byte_order="LittleEndian">
  <UnstructuredGrid>
    <Piece NumberOfPoints="176" NumberOfCells="318">
      <PointData>
      </PointData>
      <CellData>
        <DataArray type="Float64" Name="eta_H_T" NumberOfComponents="1" format="ascii">
          0.00028225046504580666 0.00028489147387000986 0.00029414825147228331 0.00023577779328884529 0.00023612868826435371 0.00025990875164319505 0.00023116040303996347 0.00021762253807590151 0.00023260237386218212 0.00024827665149940425 0.00021801091144866834 0.00031391716131445836 0.00031045408130610578 0.00031933013006412239 0.00020968030402360706 0.0002471198806212425 0.00022393420881289372 0.0001952421045292756 0.00026521035826567894 0.00029244679015896817 0.00025677321635750349 0.00027420047341475569 0.00027154958277183469 0.00027006584276253949 0.00027060833358425016 0.00025918379350333548 0.00026852480641339756 0.00028225844820379468 0.00025516259440078355 0.00019353931726663606 0.00019041165179197714 0.00022059519558692003 0.00020106829644737321 0.00028518206990697694 0.00030600227260631582 0.0002237521859963701 0.00023927798284277776 0.00023223736468796331 0.00022652345612777025 0.00024824690056306551 0.00026143942692258304 0.0002398592403210884 0.00027159961749986176 0.00027334765826917979 0.00027667975940955282 0.00027324074692277239 0.0002697975223366872 0.0002795722394486546 0.00023938004136566486 0.00026026363203228794 0.00024249704755743953 0.00022793274517883614 0.0002381795945978697 0.00025085077458602976 0.00022309010177486857 0.00029961409210412746 0.0002986953497681852 0.00020415146470510466 0.00023055390125487847 0.00020456191898248109 0.000187266663448668 0.00027557692055053308 0.00030850096046187232 0.00026415874454516891 0.00026682094772292246 0.00026091254042334168 0.00025881178646180726 0.00027735904691240617 0.00027309202927754085 0.00027190416309204432 0.00025614651424536928 0.0002710071157399431 0.00027121551584000352 0.00024357970750123612 0.00020334515051667265 0.00020506414719293701 0.0002412214984959096 0.00020539637189412405 0.00031794215959066239 0.00031459418764474671 0.00031937430644010136 0.00021989407527735766 0.00023314523507137445 0.00023183958803296711 0.00021434362606710078 0.00023881531858950232 0.00025636871687693372 0.00023514255073926439 0.00028730076958897679 0.00028933460541975906 0.00032031259783036551 0.00029081443146490316 0.00028118732840416407 0.00029237873411639559 0.00029664681221120987 0.00028471575830315454 0.00034891986239039797 0.00034938151300199603 0.00030078986278547418 0.00026861924733237067 0.00026544909349870651 0.00034581304191652889 0.00029647423780649424 0.0002895855107882881 0.00031848589922639037 0.00031918982181155191 0.00027452854002702712 0.00030287142974843619 0.00031423610493614204 0.00031588012640788751 0.00027920573644345839 0.00029989670551406917 0.00029590276959286113 0.00029254853508365393 0.00034873187688455923 0.00029179130675850842 0.00025351451542220111 0.00033088923866149834 0.00035077401371625387 0.00029721684983407089 0.00028167034935374746 0.00030636235652407688 0.00032357695903365052 0.00028632692778481723 0.00028435784257646357 0.00029696243660698072 0.00031398956986251035 0.00029655288075506903 0.00031957418862128432 0.00032078762547343395 0.00031181060285493994 0.00032545943886583511 0.00030452312998162161 0.00035656042092083282 0.0003373045593857979 0.00033247705273780541 0.0003246638500501442 0.00031722216830146812 0.00035282893953299515 0.00029696739108911317 0.00030296171287967882 0.0003274138510681588 0.00033058953882651092 0.00030333966418656872 0.00032202071502764631 0.00032913793836082851 0.00031931425347298643 0.00029499258599785706 0.00033528526888691339 0.00031016813059642678 0.00031570254272017203 0.00032730854825613142 0.00037030910042740899 0.00031224911588520064 0.00032531478431277867 0.00028709444037579448 0.00035405040157663697 0.00031625607550684243 0.00035987288295705232 0.00031814110161732515 0.00033952085957318948 0.00032282304194020133 0.00035862277633380167 0.00033478244654279129 0.00026506290310767186 0.00032784127973918754 0.00030985461911887192 0.00028734995348595193 0.00033985284803923305 0.00027460903829108855 0.00037984580950327368 0.00031270729041384191 0.00033960235415214657 0.00026963210818008355 0.0003440745937914143 0.00034931805329387728 0.00035991330144142516 0.00030114939723438597 0.00032930563548031844 0.00031802857516711054 0.00032022539376456386 0.00034178679010334225 0.00027545382050562497 0.00029774782325913687 0.00031325779271648756 0.00032863169091890956 0.00025540457598586706 0.00036767942618253342 0.00033789795890829774 0.00032149896298505501 0.000345748542157466 0.00036210189300292847 0.00024024178687457852 0.00037018745872682195 0.00035347835178115922 0.00033605693035412956 0.00032479100237920529 0.00031532915331446495 0.00029946712925629673 0.00031663700575696287 0.0002737769428854797 0.00023515420399085202 0.0002103560668491021 0.00024524273519410439 0.00031039257960505118 0.00029148642661002138 0.00029779640506890389 0.0003304206549682901 0.0002648027538702392 0.00024661353375574329 0.00026021467881100051 0.00030288124259162427 0.00028868735724937855 0.00020922954500552624 0.00026998294231391298 0.00030173617295100593 0.00032115646285282531 0.00033834397384382726 0.00027094128776631058 0.00023124443804489837 0.00028385355369902482 0.00027682798801210496 0.00028011806300230882 0.0002582390934758506 0.00029551812831000941 0.00028077848541979613 1.6283960511888476e-20 0.00021430908350518086 0.0002142162218229591 0.00014806196871212853 0.00013763149885078296 9.0667012571396362e-05 0.00010525625159450234 4.3094979512144847e-05 2.3511715409350626e-20 0.00029707606264997891 0.00014340048369170799 0.00021607393624221161 0.0001832415501794183 0.00013661966064877225 2.223486651845193e-05 0.00019575187297400393 0.00024816079298959232 8.4705269629996847e-05 0.00012533041060439247 0.00021707532712587321 5.4357669980600412e-05 0.00020424857640095298 0.00020761853273862713 0.00014821745879278024 0.00017174362982090813 0.0001123543300553906 0.00017083464253497062 0.00021853987497728013 0.00010596150839318708 0.00019680349385090131 7.9548164108709035e-05 0.00020955620175835507 8.8733715418243488e-21 0.00026048233066473396 0.00017486950011602972 0.00021762360236339157 0.00011842920423038856 0.00017885233669767055 1.9456164592605887e-20 0.00014089507620656126 7.2276385979277074e-05 0.00020613318475146424 0.00028135702101759444 0.00027646273039967699 0.00027297102805713095 0.00024235026132830075 8.8733715418243488e-21 0.0002660011529409529 0.0001742640370222919 0.00010734632972458889 0.00017869726481727031 8.7898338320632486e-05 0.00014114490777127067 1.4134502640034415e-20 6.3106228435560888e-05 0.00022431821290187865 0.00015062840877877194 0.00015235220485197175 0.00019023762390214685 0.00017658579301869636 5.4357669980600412e-05 0.00020431331374299669 0.00020043675780682382 0.00010064660445742983 0.00016635738948570403 0.00016550750085964034 2.3628201752563724e-20 0.00017248307669908753 0.00025066794757715112 0.00020827217862235336 0.00016146436134406719 0.00010081234292272526 0.00012910021095952943 0.00021247773793813516 8.5120180883256261e-05 0.00027688831963815913 6.4828169840410395e-05 0.00025959690540400238 1.6283960511888476e-20 0.00020741941687182076 0.00022180054834941717 0.00025076017905244853 0.00015628367953249072 0.00013783278044411765 2.223486651845193e-05 0.00010492099889544216 8.4148994226773888e-05 0.00022735421412665351 0.00025437521196908561 0.00026356529632210287 0.00021468723130881634 0.00024549463660127275 
        </DataArray>
        <DataArray type="Int32" Name="eta_H_T_available" NumberOfComponents="1" format="ascii">
          1 1 1 1 1 1 1 1 1 1 1 1 1 1 1 1 1 1 1 1 1 1 1 1 1 1 1 1 1 1 1 1 1 1 1 1 1 1 1 1 1 1 1 1 1 1 1 1 1 1 1 1 1 1 1 1 1 1 1 1 1 1 1 1 1 1 1 1 1 1 1 1 1 1 1 1 1 1 1 1 1 1 1 1 1 1 1 1 1 1 1 1 1 1 1 1 1 1 1 1 1 1 1 1 1 1 1 1 1 1 1 1 1 1 1 1 1 1 1 1 1 1 1 1 1 1 1 1 1 1 1 1 1 1 1 1 1 1 1 1 1 1 1 1 1 1 1 1 1 1 1 1 1 1 1 1 1 1 1 1 1 1 1 1 1 1 1 1 1 1 1 1 1 1 1 1 1 1 1 1 1 1 1 1 1 1 1 1 1 1 1 1 1 1 1 1 1 1 1 1 1 1 1 1 1 1 1 1 1 1 1 1 1 1 1 1 1 1 1 1 1 1 1 1 1 1 1 1 1 1 1 1 1 1 1 1 1 1 1 1 1 1 1 1 1 1 1 1 1 1 1 1 1 1 1 1 1 1 1 1 1 1 1 1 1 1 1 1 1 1 1 1 1 1 1 1 1 1 1 1 1 1 1 1 1 1 1 1 1 1 1 1 1 1 1 1 1 1 1 1 1 1 1 1 1 1 1 1 1 1 1 1 1 1 1 1 1 1 
        </DataArray>
      </CellData>
      <Points>
        <DataArray type="Float64" NumberOfComponents="3" format="ascii">
          0 0 0 1 0 0 1 1 0 0 1 0 0.5 0.5 0 0.5 0 0 0 0.5 0 1 0.5 0 0.5 1 0 0.25 0.25 0 0.75 0.25 0 0.75 0.75 0 0.25 0.75 0 0.25 0 0 0 0.25 0 0.75 0 0 1 0.25 0 1 0.75 0 0.75 1 0 0 0.75 0 0.25 1 0 0.5 0.25 0 0.25 0.5 0 0.75 0.5 0 0.5 0.75 0 0.125 0.125 0 0.875 0.125 0 0.875 0.875 0 0.125 0.875 0 0.375 0.375 0 0.625 0.375 0 0.625 0.625 0 0.375 0.625 0 0.375 0.125 0 0.625 0.125 0 0.125 0.375 0 0.125 0.625 0 0.875 0.375 0 0.875 0.625 0 0.625 0.875 0 0.375 0.875 0 0.125 0 0 0 0.125 0 0.875 0 0 1 0.125 0 1 0.875 0 0.875 1 0 0 0.875 0 0.125 1 0 0.5 0.375 0 0.375 0.5 0 0.625 0.5 0 0.5 0.625 0 0.375 0 0 0.625 0 0 0.5 0.125 0 0 0.375 0 0 0.625 0 0.125 0.5 0 1 0.375 0 1 0.625 0 0.875 0.5 0 0.625 1 0 0.375 1 0 0.5 0.875 0 0.25 0.125 0 0.125 0.25 0 0.375 0.25 0 0.25 0.375 0 0.75 0.125 0 0.875 0.25 0 0.625 0.25 0 0.75 0.375 0 0.875 0.75 0 0.75 0.875 0 0.75 0.625 0 0.625 0.75 0 0.125 0.75 0 0.25 0.875 0 0.25 0.625 0 0.375 0.75 0 0.4375 0.4375 0 0.5625 0.4375 0 0.5625 0.5625 0 0.4375 0.5625 0 0.0625 0.4375 0 0.0625 0.5625 0 0.3125 0.6875 0 0.1875 0.6875 0 0.3125 0.8125 0 0.0625 0.6875 0 0.3125 0.4375 0 0.3125 0.5625 0 0.1875 0.4375 0 0.1875 0.5625 0 0.5625 0.6875 0 0.4375 0.6875 0 0.4375 0.8125 0 0.5 0.4375 0 0.4375 0.5 0 0.5 0.5625 0 0.3125 0.3125 0 0.25 0.6875 0 0.3125 0.75 0 0.4375 0.3125 0 0.3125 0.5 0 0.1875 0.5 0 0.25 0.4375 0 0.25 0.5625 0 0.4375 0.375 0 0.375 0.4375 0 0.3125 0.375 0 0.375 0.5625 0 0.4375 0.625 0 0.3125 0.625 0 0.375 0.6875 0 0.1875 0.625 0 0.46875 0.46875 0 0.46875 0.53125 0 0.28125 0.46875 0 0.28125 0.53125 0 0.21875 0.53125 0 0.40625 0.40625 0 0.34375 0.40625 0 0.40625 0.59375 0 0.34375 0.65625 0 0.34375 0.59375 0 0.40625 0.65625 0 0.40625 0.46875 0 0.40625 0.53125 0 0.34375 0.46875 0 0.34375 0.53125 0 0.28125 0.65625 0 0.28125 0.59375 0 0.21875 0.59375 0 0.28125 0.5 0 0.25 0.53125 0 0.375 0.59375 0 0.40625 0.625 0 0.34375 0.625 0 0.40625 0.5 0 0.34375 0.5 0 0.375 0.46875 0 0.375 0.53125 0 0.46875 0.59375 0 0.4375 0.53125 0 0.40625 0.5625 0 0.4375 0.59375 0 0.3125 0.53125 0 0.28125 0.5625 0 0.34375 0.5625 0 0.3125 0.59375 0 0.390625 0.609375 0 0.359375 0.609375 0 0.390625 0.484375 0 0.390625 0.515625 0 0.359375 0.484375 0 0.359375 0.515625 0 0.28125 0.625 0 0.421875 0.578125 0 0.421875 0.546875 0 0.3125 0.46875 0 0.296875 0.546875 0 0.328125 0.578125 0 0.328125 0.546875 0 0.296875 0.578125 0 0.421875 0.515625 0 0.296875 0.515625 0 0.328125 0.484375 0 0.328125 0.515625 0 0.390625 0.578125 0 0.359375 0.578125 0 0.390625 0.546875 0 0.359375 0.546875 0 0.328125 0.609375 0 0.296875 0.609375 0 
        </DataArray>
      </Points>
      <Cells>
        <DataArray type="Int32" Name="connectivity" format="ascii">
          67 33 21 76 39 24 72 37 23 69 34 15 78 40 20 66 35 14 73 38 17 65 25 13 74 27 18 77 28 19 70 26 16 71 30 21 75 31 23 51 30 23 43 26 15 48 28 20 42 25 14 45 27 17 53 33 13 62 39 18 59 37 16 55 34 21 61 38 23 55 33 5 64 39 8 61 37 7 54 34 5 63 40 8 60 38 7 41 25 0 46 27 2 47 28 3 44 26 1 76 31 11 72 30 10 69 26 10 78 28 12 66 25 9 73 27 11 65 33 9 74 39 11 70 37 10 71 34 10 68 35 9 75 38 11 67 9 33 76 11 39 72 10 37 69 10 34 66 9 35 73 11 38 65 9 25 74 11 27 77 12 28 70 10 26 71 10 30 75 11 31 43 1 26 48 3 28 42 0 25 45 2 27 53 5 33 62 8 39 59 7 37 55 5 34 64 8 40 61 7 38 55 21 33 64 24 39 61 23 37 54 15 34 63 20 40 56 14 35 60 17 38 41 13 25 46 18 27 47 19 28 44 16 26 49 21 30 51 23 31 72 23 30 69 15 26 78 20 28 66 14 25 73 17 27 65 13 33 74 18 39 70 16 37 71 21 34 75 23 38 95 52 31 90 57 36 97 64 40 93 58 35 86 58 36 85 56 35 82 49 30 83 51 31 88 77 36 89 80 40 89 78 12 82 51 4 86 57 6 85 58 6 96 52 24 95 76 24 90 77 19 97 80 24 96 24 80 95 24 52 90 19 57 97 24 64 86 6 58 85 6 56 83 4 51 88 12 77 89 40 78 83 31 52 82 30 51 86 36 57 85 35 58 94 36 58 95 31 76 90 36 77 97 40 80 93 35 68 101 67 29 101 68 9 104 67 21 115 96 80 111 91 68 102 88 79 103 87 80 98 81 49 100 83 52 106 94 58 107 93 68 106 93 22 98 82 4 102 87 12 103 89 12 116 88 36 104 21 49 101 9 67 104 29 67 116 36 94 102 12 88 103 12 87 100 4 83 107 22 93 107 68 91 106 58 93 98 49 82 103 80 89 116 79 88 115 80 87 109 49 81 113 52 96 109 104 49 111 101 29 109 29 104 111 68 101 134 116 94 128 110 81 132 114 87 121 108 94 119 107 91 118 100 84 117 99 81 125 115 87 122 109 81 127 113 96 123 110 91 127 115 32 123 111 29 122 110 29 117 98 4 118 99 4 121 106 22 134 108 79 132 102 79 134 79 116 133 79 108 119 22 107 118 4 100 117 4 99 125 32 115 122 29 109 123 29 110 127 96 115 123 91 111 122 81 110 125 87 114 117 81 98 121 94 106 134 94 108 128 81 99 132 87 102 130 91 110 144 100 52 149 133 108 138 124 113 139 125 114 135 119 105 136 120 108 140 128 99 142 130 110 136 121 22 135 120 22 138 127 32 145 118 84 144 52 113 144 84 100 139 32 125 135 22 119 136 22 120 142 110 128 136 108 121 138 113 127 147 113 124 145 99 118 149 108 120 147 144 113 147 84 144 158 132 79 161 119 91 173 150 131 166 145 129 167 148 120 170 146 124 174 151 126 171 137 126 169 141 131 172 143 129 157 143 131 154 142 128 155 140 129 156 141 130 152 137 124 153 139 126 163 150 126 159 147 124 162 149 120 164 148 131 160 146 129 165 151 133 164 150 92 160 145 84 165 149 92 162 148 92 159 146 84 163 151 92 153 137 32 152 138 32 157 141 50 154 140 50 155 143 50 156 142 50 173 143 112 166 140 99 168 141 105 167 135 105 170 137 112 174 139 114 171 150 112 169 148 105 172 146 112 175 151 114 161 91 130 158 79 133 158 114 132 161 105 119 173 112 150 166 99 145 167 105 148 170 112 146 174 114 151 171 112 137 169 105 141 172 112 143 157 50 143 154 50 142 155 50 140 156 50 141 152 32 137 153 32 139 163 92 150 159 84 147 162 92 149 164 92 148 160 84 146 165 92 151 164 131 150 160 129 145 165 133 149 162 120 148 159 124 146 163 126 151 153 126 137 152 124 138 157 131 141 154 128 140 155 129 143 156 130 142 173 131 143 166 129 140 168 130 141 167 120 135 170 124 137 174 126 139 171 126 150 169 131 148 172 129 146 175 133 151 168 161 130 175 158 133 168 105 161 175 114 158 
        </DataArray>
        <DataArray type="Int32" Name="offsets" format="ascii">
          3 6 9 12 15 18 21 24 27 30 33 36 39 42 45 48 51 54 57 60 63 66 69 72 75 78 81 84 87 90 93 96 99 102 105 108 111 114 117 120 123 126 129 132 135 138 141 144 147 150 153 156 159 162 165 168 171 174 177 180 183 186 189 192 195 198 201 204 207 210 213 216 219 222 225 228 231 234 237 240 243 246 249 252 255 258 261 264 267 270 273 276 279 282 285 288 291 294 297 300 303 306 309 312 315 318 321 324 327 330 333 336 339 342 345 348 351 354 357 360 363 366 369 372 375 378 381 384 387 390 393 396 399 402 405 408 411 414 417 420 423 426 429 432 435 438 441 444 447 450 453 456 459 462 465 468 471 474 477 480 483 486 489 492 495 498 501 504 507 510 513 516 519 522 525 528 531 534 537 540 543 546 549 552 555 558 561 564 567 570 573 576 579 582 585 588 591 594 597 600 603 606 609 612 615 618 621 624 627 630 633 636 639 642 645 648 651 654 657 660 663 666 669 672 675 678 681 684 687 690 693 696 699 702 705 708 711 714 717 720 723 726 729 732 735 738 741 744 747 750 753 756 759 762 765 768 771 774 777 780 783 786 789 792 795 798 801 804 807 810 813 816 819 822 825 828 831 834 837 840 843 846 849 852 855 858 861 864 867 870 873 876 879 882 885 888 891 894 897 900 903 906 909 912 915 918 921 924 927 930 933 936 939 942 945 948 951 954 
        </DataArray>
        <DataArray type="UInt8" Name="types" format="ascii">
          5 5 5 5 5 5 5 5 5 5 5 5 5 5 5 5 5 5 5 5 5 5 5 5 5 5 5 5 5 5 5 5 5 5 5 5 5 5 5 5 5 5 5 5 5 5 5 5 5 5 5 5 5 5 5 5 5 5 5 5 5 5 5 5 5 5 5 5 5 5 5 5 5 5 5 5 5 5 5 5 5 5 5 5 5 5 5 5 5 5 5 5 5 5 5 5 5 5 5 5 5 5 5 5 5 5 5 5 5 5 5 5 5 5 5 5 5 5 5 5 5 5 5 5 5 5 5 5 5 5 5 5 5 5 5 5 5 5 5 5 5 5 5 5 5 5 5 5 5 5 5 5 5 5 5 5 5 5 5 5 5 5 5 5 5 5 5 5 5 5 5 5 5 5 5 5 5 5 5 5 5 5 5 5 5 5 5 5 5 5 5 5 5 5 5 5 5 5 5 5 5 5 5 5 5 5 5 5 5 5 5 5 5 5 5 5 5 5 5 5 5 5 5 5 5 5 5 5 5 5 5 5 5 5 5 5 5 5 5 5 5 5 5 5 5 5 5 5 5 5 5 5 5 5 5 5 5 5 5 5 5 5 5 5 5 5 5 5 5 5 5 5 5 5 5 5 5 5 5 5 5 5 5 5 5 5 5 5 5 5 5 5 5 5 5 5 5 5 5 5 5 5 5 5 5 5 5 5 5 5 5 5 5 5 5 5 5 5 
        </DataArray>
      </Cells>
    </Piece>
  </UnstructuredGrid>
</VTKFile>
