<?xml version="1.0"?>
<VTKFile type="UnstructuredGrid" version="0.1" byte_order="LittleEndian">
  <UnstructuredGrid>
    <Piece NumberOfPoints="133" NumberOfCells="232">
      <PointData>
      </PointData>
      <CellData>
        <DataArray type="Float64" Name="eta_H_T" NumberOfComponents="1" format="ascii">
          0.00032030921918105776 0.00038818413045826916 0.00032439623876556615 0.00024243548218632322 0.00030266434152960409 0.00029126853640611681 0.00024726245056597883 0.00022932729043852803 0.00025149916258186201 0.00032480253915057739 0.00022366831828738679 0.00035684290174759289 0.0003781548598272906 0.00041631803774828133 0.00021738772813607071 0.00029688436004621151 0.00023635763343088001 0.00020628116989055694 0.00028195344870149072 0.0003240612464347997 0.00026702286933934802 0.00030003913081097473 0.00030518332133123131 0.00028532051949637841 0.00031979509424534389 0.00027508365331910343 0.00027823857095402493 0.00034518975522834973 0.0002689624653004893 0.00020298444992013806 0.00020277327021696719 0.00027791231447348697 0.00020817254806695232 0.00034472600531212851 0.00033361597922543831 0.00022985073590958241 0.00034541940194019301 0.00024945369315062952 0.0002466345053335515 0.0002686835077161381 0.00029251629569644751 0.00024919138957158133 0.0002845591564537718 0.00046907098387422491 0.00030288784561757065 0.00030060031540333142 0.00030301558661900913 0.0002926985245777554 0.00024628143926556559 0.0002933907696770552 0.00026316611442460028 0.00024422041134227525 0.00026171961931654644 0.00035768814866937661 0.00022920050115952622 0.00032915255004713412 0.0003569305528808175 0.00021224030575179212 0.00026902644357622746 0.00021357356907931543 0.00019848203111256409 0.00029237949645237839 0.00034990695260123344 0.00027600801539848729 0.00027698637742816463 0.00032448732532889863 0.0002755906835711851 0.00030774961508133651 0.00038595792779392809 0.00030472553399889739 0.00026427956688826877 0.00033210444674216621 0.00030733225636395736 0.00025653085532817481 0.00021364018497551081 0.0002171316592691165 0.0003193935441112578 0.00021194696955787969 0.00038075544601681992 0.00042852198818126865 0.00036174592607215273 0.00022572500192573518 0.00029640943876619842 0.00024695416901715788 0.00022958853390288672 0.00025522191156390729 0.00028340863235291788 0.0002441126697046784 0.00031617933020169621 0.00032763199699364687 0.00065579953300138499 0.00036307975113374362 0.00058273019151475279 0.0003626847413255945 0.00033101845294872901 0.00044931501141844208 0.00050187110768633466 0.00041424358269328052 0.00038721189142922074 0.00037577321857973876 0.00074930920076888435 0.00037458048714294351 0.00034903263123294123 0.00096918417911109097 0.00045173366811505276 0.00035056137283646899 0.00067521303884258651 0.0003558778374825649 0.00036595967292404077 0.00034368499694841523 0.00075720773967784976 0.00043458485660496048 0.00033981267766247853 0.00067418881068992105 0.00047923370108844226 0.00037138158372755555 0.0003365674029530015 0.00052548715121298109 0.00042216547297295053 0.00035787029297926383 0.00067838319867483522 0.00035575787614023767 0.00045816855191565734 0.00047794208007847881 0.0003735010506555539 0.0011697684098703348 0.00082288575582296962 0.0015802473792915701 0.00077397946425998359 0.00074521247972673531 0.00097560602433957285 0.00073366823642200549 0.00092136951267075351 0.0008774844427620694 0.00094298352248210846 0.00076508971917353002 0.0014367799789573642 0.0012370299817672874 0.00045747617426811015 0.0016605685196902499 0.00039899700062024008 0.00041999730687553179 0.00033176101989284467 0.00047656965515353151 0.00039522188995929594 0.0015561861029855678 0.00076661369372593973 0.00093286943030604537 0.0010179754143811971 0.0015117281920027719 0.0010048102820654056 0.00087018698423513979 0.0009476607460660848 0.00077965807343095372 0.00052005628957448003 0.0014070784904815442 0.00046971491961723808 0.0011095744443016839 0.00072257661814984127 0.0013885484566090105 0.00044970026400529872 0.00049787336773794895 0.00060756820218982083 0.00051504222917523126 0.00051052076359335205 0.00063621430025666064 0.00085360728131898692 0.00077415676403544279 0.00047324466401310204 0.002323615716800286 0.0014563024138198567 0.0015202191653662768 0.0021352978238681135 0.0020622244665118496 0.0020704779519172198 0.001247601689919754 0.0011837293465617271 0.0022980548808366392 0.0016632958578512995 0.00087710537428540973 0.0021773240387045049 0.0010742511908115426 0.002236652649837806 0.00076887251928793327 0.0022691035672262202 0.0021051506959711415 0.0010047867141198699 0.0019297329089894384 0.0010009914792687485 0.0015192031145291329 0.0019793113728091053 0.0013602042399023979 0.0023136241272642588 0.001811901039378213 0.0023153389185573115 0.0021291980876775281 0.0018664425015028606 0.00057543706203158347 0.00050984196300761498 0.00084257541340938564 0.0023231843641276038 0.0017561953681731071 0.0015520791939909395 0.0021835345879115909 0.0022980186521412401 0.0018622872777134809 0.0012969718261931593 0.0011866357343653395 0.002063448824312134 0.0018602243872779057 0.00071773050202964092 0.002174466366975786 0.00098211678608870791 0.0021862863897463632 0.00088353109190281338 0.0023176707912978172 0.0021081023317570248 0.0011241766342209899 0.0017406859107141274 0.00093613994697397938 0.0015169340470283154 0.0022228154883645736 0.0012329069278985061 0.0023140572620170036 0.0015230167188198277 0.0022699048014830493 0.0018722618730457245 0.0020742161546131329 0.00079556125511063213 0.001234919592098475 0.0009813326612426248 0.0011946308573262448 
        </DataArray>
        <DataArray type="Int32" Name="eta_H_T_available" NumberOfComponents="1" format="ascii">
          1 1 1 1 1 1 1 1 1 1 1 1 1 1 1 1 1 1 1 1 1 1 1 1 1 1 1 1 1 1 1 1 1 1 1 1 1 1 1 1 1 1 1 1 1 1 1 1 1 1 1 1 1 1 1 1 1 1 1 1 1 1 1 1 1 1 1 1 1 1 1 1 1 1 1 1 1 1 1 1 1 1 1 1 1 1 1 1 1 1 1 1 1 1 1 1 1 1 1 1 1 1 1 1 1 1 1 1 1 1 1 1 1 1 1 1 1 1 1 1 1 1 1 1 1 1 1 1 1 1 1 1 1 1 1 1 1 1 1 1 1 1 1 1 1 1 1 1 1 1 1 1 1 1 1 1 1 1 1 1 1 1 1 1 1 1 1 1 1 1 1 1 1 1 1 1 1 1 1 1 1 1 1 1 1 1 1 1 1 1 1 1 1 1 1 1 1 1 1 1 1 1 1 1 1 1 1 1 1 1 1 1 1 1 1 1 1 1 1 1 1 1 1 1 1 1 1 1 1 1 1 1 
        </DataArray>
      </CellData>
      <Points>
        <DataArray type="Float64" NumberOfComponents="3" format="ascii">
          0 0 0 1 0 0 1 1 0 0 1 0 0.5 0.5 0 0.5 0 0 0 0.5 0 1 0.5 0 0.5 1 0 0.25 0.25 0 0.75 0.25 0 0.75 0.75 0 0.25 0.75 0 0.25 0 0 0 0.25 0 0.75 0 0 1 0.25 0 1 0.75 0 0.75 1 0 0 0.75 0 0.25 1 0 0.5 0.25 0 0.25 0.5 0 0.75 0.5 0 0.5 0.75 0 0.125 0.125 0 0.875 0.125 0 0.875 0.875 0 0.125 0.875 0 0.375 0.375 0 0.625 0.375 0 0.625 0.625 0 0.375 0.625 0 0.375 0.125 0 0.625 0.125 0 0.125 0.375 0 0.125 0.625 0 0.875 0.375 0 0.875 0.625 0 0.625 0.875 0 0.375 0.875 0 0.125 0 0 0 0.125 0 0.875 0 0 1 0.125 0 1 0.875 0 0.875 1 0 0 0.875 0 0.125 1 0 0.5 0.375 0 0.375 0.5 0 0.625 0.5 0 0.5 0.625 0 0.375 0 0 0.625 0 0 0.5 0.125 0 0 0.375 0 0 0.625 0 0.125 0.5 0 1 0.375 0 1 0.625 0 0.875 0.5 0 0.625 1 0 0.375 1 0 0.5 0.875 0 0.25 0.125 0 0.125 0.25 0 0.375 0.25 0 0.25 0.375 0 0.75 0.125 0 0.875 0.25 0 0.625 0.25 0 0.75 0.375 0 0.875 0.75 0 0.75 0.875 0 0.75 0.625 0 0.625 0.75 0 0.125 0.75 0 0.25 0.875 0 0.25 0.625 0 0.375 0.75 0 0.4375 0.4375 0 0.5625 0.4375 0 0.5625 0.5625 0 0.4375 0.5625 0 0.0625 0.4375 0 0.0625 0.5625 0 0.3125 0.6875 0 0.1875 0.6875 0 0.3125 0.8125 0 0.0625 0.6875 0 0.3125 0.4375 0 0.3125 0.5625 0 0.1875 0.4375 0 0.1875 0.5625 0 0.5625 0.6875 0 0.4375 0.6875 0 0.5 0.4375 0 0.4375 0.5 0 0.5 0.5625 0 0.3125 0.3125 0 0.3125 0.75 0 0.4375 0.3125 0 0.3125 0.5 0 0.1875 0.5 0 0.25 0.4375 0 0.25 0.5625 0 0.4375 0.8125 0 0.4375 0.75 0 0.4375 0.375 0 0.375 0.4375 0 0.3125 0.375 0 0.375 0.5625 0 0.4375 0.625 0 0.3125 0.625 0 0.375 0.6875 0 0.25 0.6875 0 0.28125 0.46875 0 0.28125 0.53125 0 0.21875 0.53125 0 0.40625 0.40625 0 0.34375 0.40625 0 0.40625 0.59375 0 0.34375 0.65625 0 0.34375 0.59375 0 0.1875 0.625 0 0.40625 0.46875 0 0.40625 0.53125 0 0.34375 0.46875 0 0.34375 0.53125 0 0.28125 0.65625 0 0.28125 0.59375 0 0.21875 0.59375 0 
        </DataArray>
      </Points>
      <Cells>
        <DataArray type="Int32" Name="connectivity" format="ascii">
          67 33 21 76 39 24 72 37 23 69 34 15 78 40 20 66 35 14 73 38 17 65 25 13 74 27 18 77 28 19 70 26 16 71 30 21 75 31 23 51 30 23 43 26 15 48 28 20 42 25 14 45 27 17 53 33 13 62 39 18 59 37 16 55 34 21 61 38 23 55 33 5 64 39 8 61 37 7 54 34 5 63 40 8 60 38 7 41 25 0 46 27 2 47 28 3 44 26 1 76 31 11 72 30 10 69 26 10 78 28 12 66 25 9 73 27 11 65 33 9 74 39 11 70 37 10 71 34 10 68 35 9 75 38 11 67 9 33 76 11 39 72 10 37 69 10 34 66 9 35 73 11 38 65 9 25 74 11 27 77 12 28 70 10 26 71 10 30 75 11 31 43 1 26 48 3 28 42 0 25 45 2 27 53 5 33 62 8 39 59 7 37 55 5 34 64 8 40 61 7 38 55 21 33 64 24 39 61 23 37 54 15 34 63 20 40 56 14 35 60 17 38 41 13 25 46 18 27 47 19 28 44 16 26 49 21 30 51 23 31 72 23 30 69 15 26 78 20 28 66 14 25 73 17 27 65 13 33 74 18 39 70 16 37 71 21 34 75 23 38 95 52 31 90 57 36 93 58 35 86 58 36 85 56 35 82 49 30 83 51 31 88 77 36 89 80 40 89 78 12 82 51 4 86 57 6 85 58 6 96 52 24 95 76 24 90 77 19 95 24 52 90 19 57 86 6 58 85 6 56 83 4 51 88 12 77 89 40 78 83 31 52 82 30 51 86 36 57 85 35 58 94 36 58 95 31 76 90 36 77 93 35 68 107 64 40 100 67 29 100 68 9 102 67 21 115 96 80 111 91 68 113 84 52 101 87 80 97 81 49 99 83 52 104 94 58 105 93 68 108 96 24 104 93 22 97 82 4 99 84 4 98 81 4 101 89 12 113 96 32 102 21 49 107 24 64 100 9 67 102 29 67 107 40 80 115 32 96 101 12 87 97 4 81 99 4 83 98 4 84 105 22 93 108 80 96 105 68 91 104 58 93 97 49 82 99 52 84 101 80 89 115 80 87 109 49 81 113 52 96 109 102 49 108 107 80 111 100 29 109 29 102 108 24 107 111 68 100 116 88 79 116 87 12 125 88 36 129 112 92 126 110 81 130 114 87 127 98 84 128 103 91 131 106 92 119 106 94 117 105 91 118 103 92 123 115 87 120 109 81 122 112 84 121 110 91 124 114 92 121 111 29 124 112 32 122 113 32 120 110 29 123 114 32 119 104 22 117 103 22 118 106 22 132 106 79 129 103 50 126 98 50 127 112 50 128 110 50 131 114 79 125 36 94 116 12 88 125 79 88 129 50 112 126 50 110 130 79 114 127 50 98 128 50 103 131 79 106 119 22 106 117 22 105 118 22 103 123 32 115 120 29 109 122 32 112 121 29 110 124 32 114 121 91 111 124 92 112 122 84 113 120 81 110 123 87 114 119 94 104 117 91 103 118 92 106 132 94 106 129 92 103 126 81 98 127 84 112 128 91 110 131 92 114 132 125 94 130 116 79 132 79 125 130 87 116 
        </DataArray>
        <DataArray type="Int32" Name="offsets" format="ascii">
          3 6 9 12 15 18 21 24 27 30 33 36 39 42 45 48 51 54 57 60 63 66 69 72 75 78 81 84 87 90 93 96 99 102 105 108 111 114 117 120 123 126 129 132 135 138 141 144 147 150 153 156 159 162 165 168 171 174 177 180 183 186 189 192 195 198 201 204 207 210 213 216 219 222 225 228 231 234 237 240 243 246 249 252 255 258 261 264 267 270 273 276 279 282 285 288 291 294 297 300 303 306 309 312 315 318 321 324 327 330 333 336 339 342 345 348 351 354 357 360 363 366 369 372 375 378 381 384 387 390 393 396 399 402 405 408 411 414 417 420 423 426 429 432 435 438 441 444 447 450 453 456 459 462 465 468 471 474 477 480 483 486 489 492 495 498 501 504 507 510 513 516 519 522 525 528 531 534 537 540 543 546 549 552 555 558 561 564 567 570 573 576 579 582 585 588 591 594 597 600 603 606 609 612 615 618 621 624 627 630 633 636 639 642 645 648 651 654 657 660 663 666 669 672 675 678 681 684 687 690 693 696 
        </DataArray>
        <DataArray type="UInt8" Name="types" format="ascii">
          5 5 5 5 5 5 5 5 5 5 5 5 5 5 5 5 5 5 5 5 5 5 5 5 5 5 5 5 5 5 5 5 5 5 5 5 5 5 5 5 5 5 5 5 5 5 5 5 5 5 5 5 5 5 5 5 5 5 5 5 5 5 5 5 5 5 5 5 5 5 5 5 5 5 5 5 5 5 5 5 5 5 5 5 5 5 5 5 5 5 5 5 5 5 5 5 5 5 5 5 5 5 5 5 5 5 5 5 5 5 5 5 5 5 5 5 5 5 5 5 5 5 5 5 5 5 5 5 5 5 5 5 5 5 5 5 5 5 5 5 5 5 5 5 5 5 5 5 5 5 5 5 5 5 5 5 5 5 5 5 5 5 5 5 5 5 5 5 5 5 5 5 5 5 5 5 5 5 5 5 5 5 5 5 5 5 5 5 5 5 5 5 5 5 5 5 5 5 5 5 5 5 5 5 5 5 5 5 5 5 5 5 5 5 5 5 5 5 5 5 5 5 5 5 5 5 5 5 5 5 5 5 
        </DataArray>
      </Cells>
    </Piece>
  </UnstructuredGrid>
</VTKFile>
