<?xml version="1.0"?>
<VTKFile type="UnstructuredGrid" version="0.1" byte_order="LittleEndian">
  <UnstructuredGrid>
    <Piece NumberOfPoints="720" NumberOfCells="1369">
      <PointData>
      </PointData>
      <CellData>
        <DataArray type="Float64" Name="eta_H_T" NumberOfComponents="1" format="ascii">
          0.00022501271115496323 7.2827767856794003e-05 0.00015353816536632523 3.7172810397845844e-05 0.017243399597996881 0.00010023085385185425 0.00020475937099221335 2.778747156907263e-05 0.00069779179826806831 6.0216682536469523e-05 0.0033520067389265456 9.9796696850553855e-05 2.1359900869816662e-05 6.2145577328847633e-05 0.00046693448317178092 0.0001463011596727406 1.8621590896640727e-05 0.00044127933970268714 5.9671762690094198e-05 0.00012704239501251422 3.7699810368317785e-05 0.0005025661875150962 5.7724353101732733e-05 0.00032247088467262926 0.00015203285566658259 0.0010302067016954067 0.00085697198597329053 7.9352357206197708e-05 0.011833355315340858 0.0002643439951459079 0.00039378110466540189 0.00066692081202904859 0.00036744171053319048 0.00019392451726610939 0.00078332392832823573 0.0063409687588191765 0.00015419500506988791 0.0001785233560755945 0.00071137513485056971 0.01738479042270083 0.00014652583822077325 0.00078919768093434282 0.00038438486254883155 2.1360442491756922e-05 0.00038263274072020993 5.3329687275524256e-05 0.00020101668679955385 7.9627761837069871e-05 1.7708212868743693e-05 5.5579050224293377e-05 0.00029555772119125955 0.0001276936691205279 2.2938091314929552e-05 0.0012267220646831143 6.193576105346345e-05 0.00013645050636384114 3.4279642660688062e-05 0.0018300860249034318 6.6752028058047721e-05 0.00082365361610502749 0.00017220388770651 0.00022478056858314232 0.004102325325969939 6.7339239635091732e-05 0.00013245802737054061 2.9218395010775629e-05 9.6973449299842849e-05 0.00017766246683939007 2.5902793944300207e-05 6.4705464748208503e-05 0.00013199040884332027 2.9116527717486602e-05 0.026589896996316618 6.7149552828972247e-05 0.00017063009062231525 2.5073901378898515e-05 6.5493168724477103e-05 0.019738846992931863 0.00011875179056737489 2.6185228779291068e-05 6.64598670620173e-05 0.00017062039604987781 1.637223137656642e-05 4.8888431545267047e-05 5.8774936809938221e-05 0.00011989321476364401 4.3654476486789816e-05 2.5845814518625955e-05 5.3073084831229868e-05 6.807425195178093e-05 0.00014598884737660505 0.0019890805812356753 0.0026645399251030871 0.00098505706690601904 0.00014886216526888431 0.00066893693321894035 0.00034642399500813415 0.0017616225227840604 0.012485906238162514 0.0006753128341093884 0.00028052578317187225 0.0002896522711264022 0.00039364055082369477 0.0010939685873073595 0.00016594644532684388 0.00016943376186226056 0.00048559441405574021 0.0015737224122712146 7.7347760047955443e-05 0.00031537513299910062 0.00039725605997033113 0.00025383917589983968 0.00033838571076780509 5.8512731890885968e-05 0.00024295405378580578 0.00012619745640894955 2.0681749043950964e-05 0.00019479844380291408 0.00013975052847141117 0.00013563962952337937 2.3102433477522594e-05 0.00089391141781693096 9.4899094252380125e-05 0.00013747104663635958 0.00019693890794153084 0.0012376407952396384 6.2585299954539598e-05 0.00057660830441506287 0.00020357123705885886 0.00041088626162886837 0.00062284202838183169 7.0759912988513246e-05 0.0033750539222863266 0.00015376214298199123 2.8038761640201694e-05 0.00022070440233323428 0.00039549494866289821 0.00017093906987097123 2.949654282106603e-05 0.0012185228939731337 0.00010113994225260367 0.00015383571399446222 0.00019748957630957249 0.0017063171619289344 7.1197499425644642e-05 0.00059018850532331548 0.00023137104632205361 0.0002539559500730956 0.00061637881335303033 6.1922424220619009e-05 0.003351435205047468 0.0001348297666152789 2.2714301183497067e-05 0.00019576905495407399 0.00037441881067546231 0.00014745165533023097 2.0439338209734949e-05 0.00029201437541671573 9.5149769149567543e-05 0.00013249610627825344 0.00019748735106470057 0.00043632290429246708 5.8785770758396953e-05 0.0001745317986242104 0.00019656662247967061 0.0010369326196344858 0.00056488735325017773 7.7272656514647443e-05 0.00057007047332001501 0.00027302805595911844 0.00039356925759019426 0.00068855340996305879 0.00023025705886408953 0.00017961549846540618 0.0017899885850134465 0.012382367575330441 0.001086453912641444 0.0001961776415427627 0.00027427790443692386 0.0017737280559719498 0.0032224503022494689 0.00017756120558562436 0.00052615943893735608 0.00068484650284300489 0.00043089796120480164 2.1293523555107353e-05 4.5732165258863833e-05 5.2684727451452712e-05 0.00014338776469096718 7.0477148407697315e-05 1.6634936272389805e-05 5.1876370213610713e-05 6.5076927973547937e-05 0.00012358956775789645 2.3790912439054706e-05 6.3833623397576328e-05 0.00013689826353255777 3.1948783614010648e-05 0.015887215651271415 6.8553052078342038e-05 0.00017489076897322746 2.7101262926835533e-05 6.4852995417390274e-05 0.029730143618639453 0.00012784183006325547 2.7197100393078945e-05 6.7429455925806651e-05 0.000169051079412033 0.0002246392225201382 6.7197167710446835e-05 0.00013646634576920213 3.1012973471398523e-05 0.027428622501437315 9.6779030723549941e-05 0.00017916560076885129 2.4544949241582257e-05 0.0010276969889154619 6.3905761982683756e-05 0.0074042424438708144 0.00010839958289493911 2.3941732580258181e-05 6.428849843288392e-05 0.00070473372963747449 0.00016252400368975444 1.7134785455973441e-05 0.00038302279575862269 5.6944956794826726e-05 0.00011970040981924165 4.0639467770766378e-05 0.00035579128363516017 5.4495864382440562e-05 0.00029623211132503942 0.00014766417581393509 0.0011687509575876254 0.0022164475983449446 8.631556519981027e-05 0.011837418600600051 0.00027686062219026191 0.00068063006010733306 0.0006678242758766217 0.00038846576323028448 0.00021442273143235579 0.0004524528233923331 0.0063407417308742843 0.00015037559166553011 0.00016916365148183658 0.00044517594279574162 0.017230783895980779 0.00010468914042938356 0.00054034334480657044 0.00038236921439377977 2.6699180140655064e-05 0.00047063302203683853 5.6704515055455281e-05 0.0002507148109473501 8.7784467537483458e-05 1.9184385067829119e-05 5.9016807876753266e-05 0.00031203938212236794 0.00013438804916808309 2.1510916615832033e-05 0.00095316980811495518 5.9271230654079104e-05 0.00013222269326750843 3.4712466528000919e-05 0.0012625172608977074 6.158939736476091e-05 0.00063718385058863505 0.00016098695812625534 0.00039360400220454875 0.00089623404041567697 7.3025327356276038e-05 0.00013775421969325867 3.0870212596021178e-05 0.0001392408142571698 0.00018591706945912746 0.0015788927038787347 0.00056005023154135736 0.071900103229008541 0.0013969930545683349 0.0093530756663394721 0.0013443237726007589 0.0009064399221344056 0.099727640845407278 0.09967613776725423 0.095395829674638291 0.11506883701567638 0.099028866498970997 0.0048813411624281274 0.0039799838644508654 0.006688457083711471 0.00046645537243103177 0.0063892137935289001 0.00043080236932122355 0.0013850180912078269 0.004751170128671405 0.0040000944436246527 0.10396343425310511 0.10906051353328523 0.093647578494317832 0.11125665795372036 0.088588109970377929 0.0018734370234864454 0.0041559361970495501 0.0015033072944207451 0.0092937481260419695 0.088273288757618473 0.0024306854957476267 0.00050089429624319674 0.0050815432981766535 0.051194543354117626 0.0077788147927711111 0.096190171439672428 0.049086904413448595 0.023288339586654726 0.093771564845912675 0.0062962137632273357 0.012678946726699303 0.094055346808853968 0.077636861115344 0.0039843950196993558 0.070814657250399857 0.046135744201086813 0.010849653326790982 0.037932078789032465 0.01071381984040473 0.052941835225462287 0.096998883025310845 0.081171891112616038 0.00091279067557833624 0.0715742402376984 0.063563563122968944 0.0031998246436391255 0.091696638526367349 0.090990802670138538 0.056528247391203185 0.0066756804653316229 0.010732374323350554 0.085831582307791546 0.063927370786379389 0.001380407567738325 0.037913891831277871 0.046217473648242101 0.011364806771799015 0.091056553692354741 0.077952238749383104 0.038528099261958555 0.021750941651687564 0.013355492971831022 0.10125738922526213 0.009369149227514615 0.084277257370500069 0.010828135404699466 0.0044895115875173098 0.0040951302823363771 0.0024072103656467073 0.057009803090224291 0.040877720439555038 0.037232642054540382 0.065418066627561181 0.045251827299087437 0.042907138602225683 0.02243053518665895 0.050013458332769357 0.08435211066712503 0.065063089932335255 0.022687940833541403 0.021805685492182772 0.071607390690353684 0.025648123760043849 0.019502641933261199 0.015153242537166649 0.044317081293832931 0.056158867642361859 0.049422235699971409 0.02574994607363177 0.036135001495938152 0.06093737626855001 0.020539021756051247 0.034705413705776331 0.03489185398927426 0.051167538497436341 0.0013314373637031405 0.085073468155254808 0.0044007544324689458 0.0089831971839368693 0.038645172923706214 0.030130462108870649 0.017573814465997747 0.046632131527242868 0.043417379315560653 0.026317287960496101 0.046200713485203611 0.076951466913578001 0.053743887283677128 0.043089327496890303 0.01007064133410986 0.026778010437212028 0.019786219033800762 0.066656848325334528 0.032505087364775954 0.037022083893460025 0.065936095795245092 0.046270585429512477 0.043363111865712317 0.021934834473892297 0.050831052100460905 0.077332904126587387 0.035428238062152249 0.068724702592303635 0.082234692114603464 0.010189484631580691 0.0066968089342618184 0.0090533414219119198 0.0035107249057566956 0.06704871626680492 0.0067904562268998169 0.0069440594340456673 0.022503928329725326 0.0091439853719313801 0.046020017982555339 0.00088778178611286396 0.012468283060091366 0.0090953091467564154 0.00085623614875480342 0.033397225989571781 0.095677510338006061 0.0010016690443377665 0.0033111890009164353 0.019694179510333719 0.023205728493223027 0.034424068498735451 0.054613986175666145 0.018529280928778282 0.038380085427770765 0.012860992984070362 0.040512133275379614 0.030409240129218473 0.070561703509135834 0.078073229847365186 0.086419039472544951 0.082105214955854947 0.01428465761136144 0.025606478716059491 0.016911060994901365 0.058720745422414206 0.037333890409932881 0.0052372498931607036 0.014392704700440099 0.018096612936524793 0.02073006337676819 0.020574155181260236 0.087101003349903741 0.087200190564337046 0.069594604904626892 0.07734375358003942 0.053224255958851642 0.035443728058544892 0.047047349419959188 0.011693277868297726 0.060349547497250813 0.040738631658683293 0.055701316046138066 0.076351719773950291 0.031528055393079353 0.019325632614756987 0.03122105460703704 0.022033058200815192 0.024577120749288247 0.045015461079255283 0.05614648610565591 0.04754806724725244 0.00082940519043279992 0.0030807513976575849 0.011872723025103052 0.037311558816290426 0.00090092832878818792 0.0044076866977494833 0.085881496911915517 0.0090973896942313365 0.0080781661399956413 0.010835808555665087 0.056141366557292273 0.047800493226178617 0.01067149450706174 0.073117011997202774 0.065203352314785398 0.044117226796382504 0.026639332618085713 0.036799423810255513 0.013966621666325689 0.047161789114957942 0.032040401547094928 0.071699330371869957 0.078644359097611902 0.086798816783735522 0.08738683229790549 0.020387142583149991 0.026543165998355336 0.029445514659624111 0.025064736911450496 0.022085744261134504 0.019516342347493974 0.014550316896573628 0.078409051826322768 0.082763221487651278 0.084205780946075753 0.075022277618691013 0.04497351207413653 0.026966680133769561 0.017975067946204498 0.055308828166227557 0.039468603514176442 0.054229112436111254 0.012908852809624932 0.045993388210341338 0.019329458950601119 0.029453513591071623 0.028420946879900325 0.055910740770873338 0.051800139931275344 0.0044616955915608115 0.0062648985244483811 0.0070226816614911902 0.045510410689660295 0.012969939969976604 0.035284360480298628 0.058351406741506524 0.001198501532966452 0.0025456861817874507 0.045416222884429022 0.0076570904074029309 0.0075556231498453323 0.019965626056473108 0.029201423961927073 0.10051774367972713 0.023811861401936724 0.012564481612776212 0.05615770381576414 0.0057993861141603853 0.010202464806529022 0.047491383268033358 0.039980512131157928 0.020045825738938233 0.019847065082846404 0.026914460930648088 0.040132626891122826 0.02996480561378204 0.032403319583213512 0.044786176954896333 0.022361871891803001 0.020516955501261223 0.023854442701293253 0.032203230489650875 0.024441129662983424 0.044200739974322487 0.0013492777732206803 0.049306152625269058 0.04364412197047831 0.039239925605082812 0.010519516672308367 0.058312452659307255 0.090023195119505753 0.068081615322639913 0.046003066189202087 0.087981087181647988 0.093947162986123545 0.043652049802874522 0.042670731842273289 0.089955029924370794 0.055649856640132452 0.061998072372054756 0.062446898894801726 0.091228074678175342 0.070041053262840547 0.086177438550281038 0.069279496379008251 0.081855589088497174 0.049011879928671807 0.055771768796343192 0.095783607428686288 0.038130861523758282 0.098344927388210296 0.047309449707830513 0.08106622699953106 0.013612804714697115 0.058378604850460349 0.014882651457592285 0.02865833537979073 0.060819698749710167 0.058293832810990633 0.06488964123178681 0.057241877494501166 0.037474337870082357 0.034013315848601108 0.053521343040279758 0.038266579182261402 0.030932278721324785 0.0091074251608704582 0.019777832504512361 0.051091120290924677 0.062064223658864506 0.073580009799968468 0.021773118260915804 0.047326981146849807 0.099164108938915127 0.046236654715974997 0.053891607356328843 0.099002066474909556 0.011410475600679718 0.075064801956094648 0.080508503298158909 0.048372891784332191 0.0737355269767523 0.087205840541762072 0.03356531171741451 0.062386654719206687 0.092689321195673427 0.054915979950780937 0.061626412916313232 0.033904732646104323 0.0474085626090174 0.090005586442588825 0.096677631747349821 0.051552400995726819 0.075623247126909987 0.051121598090066986 0.065985603374581758 0.095533399508403366 0.035044695806964163 0.04557512743845088 0.052556079258799952 0.026771381406768272 0.06778723550213335 0.059548744797201555 0.059460170579296881 0.043647061667132524 0.063248209328506833 0.027130860092962315 0.035024521511085469 0.063796270429271357 0.014792850555615578 0.065947276094877411 0.054758400754351309 0.061383466460711841 0.034717634755096732 0.019240122991688553 0.020095976876503236 0.075248227197962328 0.059141106467562994 0.005414554321953995 0.043352888544679814 0.0055288294724977899 0.0098896639069244383 0.069026515414676887 0.024125794025758547 0.043847380446066592 0.023688102042036044 0.039252457803586716 0.030046984725511081 0.033586197458918138 0.024903161392470688 0.044797115387886957 0.038421885551240133 0.019249125133039339 0.040379852047058504 0.031348428501562643 0.019718408373188608 0.034376383434069048 0.020740024909618526 0.015134132408371869 0.0091376475224220766 0.033442682358127335 0.03881569652060271 0.019648346008449821 0.018983796102211008 0.09402106682581915 0.073302255091506702 0.059068335094056859 0.037309551559701171 0.083484853284667412 0.094855324147249065 0.045793016566847554 0.042055639952737103 0.085038569192281588 0.054496816493609462 0.058003763929594103 0.063209270824000824 0.094071115656504625 0.069333185131728273 0.05547521731209356 0.074059964269577894 0.086878872290060818 0.074246619835422856 0.038265751765290214 0.081318834498302503 0.05398956364268595 0.097997799967232832 0.044014300795536698 0.10005696329909161 0.048590835244320577 0.017169598617482681 0.02646484532000325 0.061956129296195948 0.01139444282539734 0.034454987322232504 0.070666532298800905 0.060686386728258553 0.058913081975651906 0.050989108488070603 0.033843356072273026 0.053130585092137569 0.001126561727619632 0.05468885033263602 0.04536949993565835 0.037613021508177059 0.079721591259797261 0.029971764556684731 0.044887446272076199 0.097436386119383642 0.055676948154454745 0.09681084556978789 0.011905118992086849 0.071102709704093714 0.079751059980444336 0.048801759683244461 0.068731477505452901 0.087706574699151357 0.062690355905377679 0.088631399155006951 0.058137886443804854 0.070312537310838585 0.043287531195783394 0.052156148599804941 0.094191064143986758 0.095786749576012589 0.049660357772828005 0.081112419914842152 0.055612427919780646 0.06126202822710354 0.092735199521322392 0.025428178495888139 0.039522305795839138 0.069709234798508046 0.053799297924985209 0.028431792935613164 0.057448988380037778 0.057108549417632833 0.057804785239153687 0.059621545845195197 0.024421265783988084 0.026644498008435106 0.067328185457604536 0.010878864968452013 0.059279792858077822 0.032466036827230663 0.06191471421408256 0.054749380041953462 0.045259801839750098 0.0097185510566245269 0.019425856793441981 0.075614824167968386 0.056292180682098063 0.074135946801217489 0.019224698447318375 0.072074682542129065 0.050898848281262551 0.048946218262878677 0.026529396829967768 0.041954603658050281 0.01422969031632073 0.031684495646298175 0.079759247765223321 0.057456160612215361 0.032086551848057573 0.021104159358020382 0.086398295154754653 0.019147428972865504 0.054234199316907185 0.043776400938072488 0.072070190710685003 0.031783808552888808 0.056970695587708092 0.057557241899261681 0.03469082731825348 0.061311935094904173 0.019545517232968865 0.011781364398516328 0.07019229402325701 0.0068037190778674102 0.034190328752633753 0.059670413180137674 0.066935153384110338 0.047185207111559963 0.054742999848807539 0.035851741083883323 0.044555011836490806 0.021868154576769314 0.032099713999067414 0.079411785438671903 0.060250072701685059 0.013653252722810821 0.029043702043699205 0.080115311249973162 0.026207967288699858 0.050108361801851582 0.037856006196043998 0.060909234276729986 0.032593327388403079 0.058074638973276894 0.056718950611994154 0.040687655438343795 0.064844125712154116 0.022841028672018929 0.025604460159308461 0.066811957791390111 0.023543227524705009 0.058292388228827534 0.0015346530210232872 0.0070780281756781353 0.0012679227409155126 0.012607395702457311 0.03217702432972494 0.011064119970686754 0.072073170354041705 0.058134022464782033 0.050445302897019116 0.022313264635263494 0.012635105155840407 0.021602498714380271 0.047126105099386022 0.052339998614916602 0.024211632231220651 0.039233064771793294 0.054204552714782236 0.048444826449265364 0.051814816760820587 0.044241905458048347 0.022609894276392414 0.05062311653370815 0.052209208558897532 0.022936292497268217 0.053180258411588181 0.046074964679957794 0.074517159621666496 0.074640004316686992 0.032603092347136216 0.041438215996168835 0.018874529394345845 0.027170094703710682 0.020871740232658649 0.036373345243683582 0.051364312391312221 0.051603420163321367 0.048153320349493371 0.053176089442498228 0.018167554882366928 0.021067029354335829 0.033808188886429953 0.054581686102388421 0.049952401317423116 0.011038151726333488 0.018347309086031761 0.034304530584088715 0.037679021343117743 0.051142502729734009 0.052151545388989799 0.047033120852739425 0.03505460446215522 0.0073778009929723453 0.056179739809213515 0.056054375769900786 0.037463263280913393 0.06196681853695165 0.061195075302415448 0.010262603140899792 0.055379126163021264 0.046449755364956782 0.060496868009809364 0.043937035980787534 0.04564576158121432 0.0054004592151363738 0.065454855585831015 0.082768218272891408 0.065269787931987996 0.07752567213461195 0.047468339532780637 0.085010091677436325 0.068527143956148409 0.08790074817161031 0.029234494352680739 0.041613212723147087 0.046149423211617364 0.09432801083617974 0.059638117939910439 0.08151287760978955 0.084426823124418363 0.057557471593200168 0.072708349960724214 0.063994568720987174 0.071739066136017618 0.051952202644590648 0.061209030489805645 0.073023161605565282 0.059037191184530623 0.044751241810550013 0.050878746701419696 0.066186071289964274 0.051414365536145028 0.024970750364314891 0.073871951813781631 0.038893291910707464 0.057230840693987046 0.027066386813247977 0.037393858390264038 0.021505045263615359 0.056926247681356228 0.081299480656255571 0.074384215811443069 0.06114758107349607 0.068452938632663496 0.06706171311216387 0.079396584934650072 0.041595056467008396 0.037469066336745648 0.055099719503642071 0.031308401257011703 0.023570161656349391 0.079117736621401577 0.012168161316930754 0.065302396539927227 0.066881623252541808 0.061005405711046297 0.017253772100929033 0.082187723010963054 0.076554654248330536 0.066778523743474635 0.046298119555393799 0.065778799460807419 0.073607666360982385 0.02797486906549037 0.086762272805293014 0.060392258635655248 0.066716860429218219 0.052608431517072202 0.065740098859443208 0.059904177903810238 0.08804847728387237 0.08512973210449655 0.075883998853665022 0.094150828237778802 0.030265929947953938 0.067011924360659073 0.085044613101516883 0.056211690683789339 0.082388312133883326 0.080640703105278752 0.05096046875523922 0.078862891668415605 0.033913497780757439 0.064057047231357161 0.080764875071327916 0.067932768053317091 0.070874427286442346 0.062362198635303831 0.077256318599053048 0.056406602756561446 0.038962622520265937 0.046982168529908309 0.061235427120329776 0.033349502416732971 0.058990672892034329 0.067582197665599156 0.042436022527345414 0.052812086486427129 0.078666956304269398 0.072766733414741672 0.064057483575113205 0.064742045011271149 0.068615549281977592 0.070152701812868548 0.077360141412945033 0.051802413527430084 0.046407524630154906 0.06202234259337585 0.045696093962797266 0.025910932836925537 0.034148047471064445 0.032888678233471504 0.017993947846751606 0.0642253314437045 0.047166924739325856 0.064195482583427443 0.02409605511001843 0.077822884333786577 0.076796773108273972 0.072244641717605557 0.0630881926710809 0.043249925431694848 0.085068687146630503 0.067761256369958098 0.047885060373875986 0.044453290419357326 0.063787136542264658 0.059549250690800165 0.066970245604581161 0.081203607100198735 0.058506178249377101 0.071650480317416859 0.073848613836469623 0.063771061046722879 0.032493809726741069 0.084253279357933933 0.070443170759696291 0.058563703397939391 0.029578011655793889 0.068305522821932405 0.026412810723351391 0.048376957390090909 0.073839440437629772 0.067965070943623682 0.069075522197789396 0.079896380367077066 0.065108088728699123 0.063403853261540549 0.084748340899644684 0.076302082016497241 0.045946533124277281 0.026931655755356242 0.041810577657965579 0.051515290563739637 0.020154819037277352 0.004403403510925134 0.0024722938664403279 0.0010745957746300099 0.012646480882323912 0.030570746147864019 0.016825775788676417 0.019679883199426491 0.084733247645726317 0.039549646298920077 0.040788252201838064 0.067981591633532887 0.0095633821318955141 0.020572173933605869 0.045803460868859724 0.055295548014069579 0.021185514564649968 0.021334942245740833 0.03171394948118364 0.043024282801430433 0.052464148911135981 0.049561468266170854 0.051025372423372156 0.037932029951126559 0.04141614054554648 0.018528660410299911 0.050800219025543221 0.048556993559213425 0.019250341727200065 0.051809452997915041 0.051365035276407782 0.055250524283666259 0.060189611810507082 0.055837264158772992 0.046477225175740558 0.028137859568028365 0.029834281774078208 0.022219663845966183 0.039560962388276499 0.052384153878495245 0.042465018332666166 0.054512539412292095 0.049703256941573307 0.029736057772046 0.051167911347348424 0.051721776816555202 0.010265228613729596 0.022133447597469411 0.027517800824184566 0.033284427442655334 0.052926384719727514 0.051979047326803661 0.050795022315039469 0.037206493397045834 0.048747530287625983 0.039146601464789252 0.06061736094366408 0.019180232297428549 0.055854874523725923 0.053673248862463219 0.061275443998497499 0.039716538748135827 0.055876453354262431 0.057479488139065553 0.049158908827825434 0.071414228448837921 0.07919353483681614 0.051050615208115421 0.077173830051164544 0.0525546379036042 0.084768033961862291 0.056136409306917566 0.083892416643691958 0.021227241096046155 0.033830928947426876 0.034962952248548611 0.094354557446444498 0.075929489464351171 0.084777496953524045 0.08813099062837379 0.061282194122869282 0.068977990926891983 0.05898001389680782 0.053587604753841556 0.058484275202623726 0.063833803758108557 0.075639667730476978 0.048396438573103003 0.057694430460193839 0.07621619793563357 0.06609517301423018 0.050488657312818284 0.045725147989983644 0.061021851430184848 0.038236824204846219 0.022596455226853673 0.035420839597951025 0.030471556495288283 0.061900134654536247 0.079434538089929063 0.070356231178259052 0.0776746747343358 0.064911536680369253 0.074055097768139289 0.060926455724727338 0.069481727215377181 0.073743712556520805 0.04454792272159467 0.042313872098187412 0.057473375694608718 0.04790216247272313 0.026704914149691891 0.024854312658341298 0.078434835722998933 0.023587229730354591 0.068431089246927035 0.073250024624683718 0.058586085474257421 0.028433328886308978 0.086123706747520637 0.070587441900997597 0.070633799296127883 0.054515484912771389 0.061433081485533343 0.072790323426359077 0.1147041398609632 0.0053800341640515845 0.054091088145500066 0.064210048877142475 0.071010628032009707 0.069644106137921796 0.065860444800777185 0.084909714276591108 0.081288918321790124 0.059580189854688152 0.094124224168147974 0.042701144580035932 0.060621317218762863 0.088382963367979905 0.069381078638845253 0.082717977317071201 0.080895111734643171 0.06435559326637133 0.083114136229129554 0.039423155977581129 0.047655535277476166 0.077605550781407892 0.06434578503925982 0.062952897041999106 0.054595684869364829 0.065960235465785888 0.050898682098517257 0.052537140362505876 0.058647921088544698 0.039581399521317152 0.045531766515123272 0.063542041764994034 0.037606956379731799 0.050346278737701207 0.083989121747070142 0.073584338377455163 0.060945746352567061 0.059996440456726141 0.079973230036959289 0.052705052068089356 0.026199380858132157 0.059372329175670195 0.074700534761005605 0.046246799173953496 0.032023898736156263 0.034180580739215573 0.056738496852891576 0.02481161769190841 0.016773039892296827 0.057344419254544678 0.054461736193240295 0.060849396073060107 0.013127323236188392 0.075670101590628314 0.077494110441009317 0.065341029753714405 0.036875391658949867 0.081081505182409822 0.073956852270698412 0.06224873954000619 0.060736548001823459 0.059008312006367178 0.060189169696241718 0.083374324424172794 0.055818128369285312 0.064608765559117584 0.073804693661871673 0.057090327685272946 0.032753330730366161 0.083415878730267956 0.07155781049778849 0.061843807983726178 0.025305616235871499 0.076812946912538302 0.026604858094885633 0.053639112655127608 0.073802603318673193 0.07400876102983428 0.065729494408797814 0.080770278283437552 0.073503267461198327 0.068766599804369569 0.04803348180530833 0.083610128241460316 0.074885405682852971 0.053639560331748694 0.029280204214273284 0.04256337114852405 0.060442337877127647 0.0014876472529577946 0.026147184845679954 0.047897159415434855 0.021192257331858533 0.048375408733542111 0.076110229648195915 0.051759729247186116 0.024516734385983001 0.029029079580130058 0.045899774109708004 0.032856589805312239 0.063022018846603356 0.058298654008898679 0.037418140950775884 0.037715599328722413 0.055411974532423691 0.055267516984210299 0.065256832802197628 0.087979857476504442 0.080061165497401304 0.05704340426291097 0.044076927710730768 0.10021851645866423 0.0082336596853347932 0.071826296772822831 0.047067103139183393 0.075075999228095117 0.070544207813151016 0.065000190595892585 0.078191526450936646 0.072797077408734437 0.0068089513707481029 0.015523456748927782 0.045565903356750856 0.073106513026196362 0.075837196445652802 0.019379511807792949 0.051805351054479865 0.043248223843405008 0.05682129166018892 0.022743545644889982 0.047800310914272962 0.031242790024133812 0.01277743634718787 0.035001865084476266 0.019187643926019928 0.061676935341107256 0.066468980783256318 0.010092333644528526 0.070230748822517619 0.065532454648500757 0.059010469049153864 0.06521324377616744 0.061720256612781903 0.056169971568522228 0.089975436168622788 0.045392869982676935 0.066317843512825006 0.079142158077157257 0.066838745976888866 0.040164683599704896 0.027520590520094777 0.067192441924972479 0.0043286616100801983 0.027940334013430258 0.061025299889238958 0.019774424131477425 0.037300001879428987 0.074175561851333865 0.050615056803849243 0.015713580596697765 0.02899076590374183 0.042115632448163812 0.033496310028383484 0.070935830556230831 0.065628409027824047 0.041870955958241203 0.03111219304552925 0.058143665245519449 0.048283129182069347 0.064526314238125118 0.089062242629943819 0.081387799801746 0.049878165999351763 0.042553017276245546 0.093857161025489438 0.007590207366896644 0.071864146941478843 0.040969351932972138 0.071099696226444367 0.064175068486022821 0.068381913611447548 0.074994218296995166 0.071986413989163001 0.0016500589284483352 0.02022062738950646 0.044348772493920739 0.06742558526885728 0.076971830987982132 0.017702574408719345 0.043074031352647167 0.039126298606377945 0.056926999946874647 0.016069605966587769 0.055232608641194843 0.029105869131570504 0.019627847205223474 0.036997234043631207 0.010276448397963883 0.061246428137400673 0.066996255118168674 0.0092153239236277881 0.06909470416474682 0.062446404075908429 0.043592532503759912 0.077910035958656823 0.062237628877895371 0.063382516150934987 0.087967760836741446 0.048660272132018373 0.073195321645820155 0.079183117797640687 0.072628236076446806 0.042984722508089775 
        </DataArray>
        <DataArray type="Int32" Name="eta_H_T_available" NumberOfComponents="1" format="ascii">
          1 1 1 1 1 1 1 1 1 1 1 1 1 1 1 1 1 1 1 1 1 1 1 1 1 1 1 1 1 1 1 1 1 1 1 1 1 1 1 1 1 1 1 1 1 1 1 1 1 1 1 1 1 1 1 1 1 1 1 1 1 1 1 1 1 1 1 1 1 1 1 1 1 1 1 1 1 1 1 1 1 1 1 1 1 1 1 1 1 1 1 1 1 1 1 1 1 1 1 1 1 1 1 1 1 1 1 1 1 1 1 1 1 1 1 1 1 1 1 1 1 1 1 1 1 1 1 1 1 1 1 1 1 1 1 1 1 1 1 1 1 1 1 1 1 1 1 1 1 1 1 1 1 1 1 1 1 1 1 1 1 1 1 1 1 1 1 1 1 1 1 1 1 1 1 1 1 1 1 1 1 1 1 1 1 1 1 1 1 1 1 1 1 1 1 1 1 1 1 1 1 1 1 1 1 1 1 1 1 1 1 1 1 1 1 1 1 1 1 1 1 1 1 1 1 1 1 1 1 1 1 1 1 1 1 1 1 1 1 1 1 1 1 1 1 1 1 1 1 1 1 1 1 1 1 1 1 1 1 1 1 1 1 1 1 1 1 1 1 1 1 1 1 1 1 1 1 1 1 1 1 1 1 1 1 1 1 1 1 1 1 1 1 1 1 1 1 1 1 1 1 1 1 1 1 1 1 1 1 1 1 1 1 1 1 1 1 1 1 1 1 1 1 1 1 1 1 1 1 1 1 1 1 1 1 1 1 1 1 1 1 1 1 1 1 1 1 1 1 1 1 1 1 1 1 1 1 1 1 1 1 1 1 1 1 1 1 1 1 1 1 1 1 1 1 1 1 1 1 1 1 1 1 1 1 1 1 1 1 1 1 1 1 1 1 1 1 1 1 1 1 1 1 1 1 1 1 1 1 1 1 1 1 1 1 1 1 1 1 1 1 1 1 1 1 1 1 1 1 1 1 1 1 1 1 1 1 1 1 1 1 1 1 1 1 1 1 1 1 1 1 1 1 1 1 1 1 1 1 1 1 1 1 1 1 1 1 1 1 1 1 1 1 1 1 1 1 1 1 1 1 1 1 1 1 1 1 1 1 1 1 1 1 1 1 1 1 1 1 1 1 1 1 1 1 1 1 1 1 1 1 1 1 1 1 1 1 1 1 1 1 1 1 1 1 1 1 1 1 1 1 1 1 1 1 1 1 1 1 1 1 1 1 1 1 1 1 1 1 1 1 1 1 1 1 1 1 1 1 1 1 1 1 1 1 1 1 1 1 1 1 1 1 1 1 1 1 1 1 1 1 1 1 1 1 1 1 1 1 1 1 1 1 1 1 1 1 1 1 1 1 1 1 1 1 1 1 1 1 1 1 1 1 1 1 1 1 1 1 1 1 1 1 1 1 1 1 1 1 1 1 1 1 1 1 1 1 1 1 1 1 1 1 1 1 1 1 1 1 1 1 1 1 1 1 1 1 1 1 1 1 1 1 1 1 1 1 1 1 1 1 1 1 1 1 1 1 1 1 1 1 1 1 1 1 1 1 1 1 1 1 1 1 1 1 1 1 1 1 1 1 1 1 1 1 1 1 1 1 1 1 1 1 1 1 1 1 1 1 1 1 1 1 1 1 1 1 1 1 1 1 1 1 1 1 1 1 1 1 1 1 1 1 1 1 1 1 1 1 1 1 1 1 1 1 1 1 1 1 1 1 1 1 1 1 1 1 1 1 1 1 1 1 1 1 1 1 1 1 1 1 1 1 1 1 1 1 1 1 1 1 1 1 1 1 1 1 1 1 1 1 1 1 1 1 1 1 1 1 1 1 1 1 1 1 1 1 1 1 1 1 1 1 1 1 1 1 1 1 1 1 1 1 1 1 1 1 1 1 1 1 1 1 1 1 1 1 1 1 1 1 1 1 1 1 1 1 1 1 1 1 1 1 1 1 1 1 1 1 1 1 1 1 1 1 1 1 1 1 1 1 1 1 1 1 1 1 1 1 1 1 1 1 1 1 1 1 1 1 1 1 1 1 1 1 1 1 1 1 1 1 1 1 1 1 1 1 1 1 1 1 1 1 1 1 1 1 1 1 1 1 1 1 1 1 1 1 1 1 1 1 1 1 1 1 1 1 1 1 1 1 1 1 1 1 1 1 1 1 1 1 1 1 1 1 1 1 1 1 1 1 1 1 1 1 1 1 1 1 1 1 1 1 1 1 1 1 1 1 1 1 1 1 1 1 1 1 1 1 1 1 1 1 1 1 1 1 1 1 1 1 1 1 1 1 1 1 1 1 1 1 1 1 1 1 1 1 1 1 1 1 1 1 1 1 1 1 1 1 1 1 1 1 1 1 1 1 1 1 1 1 1 1 1 1 1 1 1 1 1 1 1 1 1 1 1 1 1 1 1 1 1 1 1 1 1 1 1 1 1 1 1 1 1 1 1 1 1 1 1 1 1 1 1 1 1 1 1 1 1 1 1 1 1 1 1 1 1 1 1 1 1 1 1 1 1 1 1 1 1 1 1 1 1 1 1 1 1 1 1 1 1 1 1 1 1 1 1 1 1 1 1 1 1 1 1 1 1 1 1 1 1 1 1 1 1 1 1 1 1 1 1 1 1 1 1 1 1 1 1 1 1 1 1 1 1 1 1 1 1 1 1 1 1 1 1 1 1 1 1 1 1 1 1 1 1 1 1 1 1 1 1 1 1 1 1 1 1 1 1 1 1 1 1 1 1 1 1 1 1 1 1 1 1 1 1 1 1 1 1 1 1 1 1 1 1 1 1 1 1 1 1 1 1 1 1 1 1 1 1 1 1 1 1 1 1 1 1 1 1 1 1 1 1 1 1 1 1 1 1 1 1 1 1 1 1 1 1 1 1 1 1 1 1 1 1 1 1 1 1 1 1 1 1 1 1 1 1 1 1 1 1 1 1 1 1 1 1 1 1 1 1 1 1 1 1 1 1 1 1 1 1 1 1 1 1 1 1 1 1 1 1 1 1 1 1 1 1 1 1 1 1 1 1 1 1 1 1 1 1 1 1 1 1 1 1 1 1 1 1 1 1 1 1 1 1 1 1 1 
        </DataArray>
      </CellData>
      <Points>
        <DataArray type="Float64" NumberOfComponents="3" format="ascii">
          -1 -1 0 0 -1 0 -1 0 0 0 0 0 1 0 0 -1 1 0 0 1 0 1 1 0 -0.5 -0.5 0 -0.5 0.5 0 0.5 0.5 0 -0.5 -1 0 -1 -0.5 0 0 -0.5 0 -0.5 0 0 -1 0.5 0 0.5 0 0 0 0.5 0 1 0.5 0 -0.5 1 0 0.5 1 0 -0.75 -0.75 0 -0.25 -0.75 0 -0.75 -0.25 0 -0.75 0.25 0 -0.25 -0.25 0 -0.25 0.25 0 0.25 0.25 0 0.75 0.25 0 -0.75 0.75 0 -0.25 0.75 0 0.25 0.75 0 0.75 0.75 0 -0.75 -1 0 -1 -0.75 0 -0.25 -1 0 0 -0.75 0 -1 -0.25 0 -0.75 0 0 -1 0.25 0 0 -0.25 0 -0.25 0 0 0.25 0 0 0 0.25 0 0.75 0 0 1 0.25 0 -1 0.75 0 -0.75 1 0 0 0.75 0 -0.25 1 0 0.25 1 0 1 0.75 0 0.75 1 0 -0.5 -0.75 0 -0.75 -0.5 0 -0.25 -0.5 0 -0.5 -0.25 0 -0.5 0.25 0 -0.75 0.5 0 -0.25 0.5 0 -0.5 0.75 0 0.5 0.25 0 0.25 0.5 0 0.75 0.5 0 0.5 0.75 0 -0.875 -0.875 0 -0.125 -0.875 0 -0.875 -0.125 0 -0.875 0.125 0 -0.125 -0.125 0 -0.125 0.125 0 0.125 0.125 0 0.875 0.125 0 -0.875 0.875 0 -0.125 0.875 0 0.125 0.875 0 0.875 0.875 0 -0.625 -0.625 0 -0.375 -0.625 0 -0.625 -0.375 0 -0.375 -0.375 0 -0.625 0.375 0 -0.375 0.375 0 -0.625 0.625 0 -0.375 0.625 0 0.375 0.375 0 0.625 0.375 0 0.375 0.625 0 0.625 0.625 0 -0.625 -0.875 0 -0.375 -0.875 0 -0.875 -0.625 0 -0.875 -0.375 0 -0.125 -0.625 0 -0.125 -0.375 0 -0.625 -0.125 0 -0.625 0.125 0 -0.375 -0.125 0 -0.375 0.125 0 -0.875 0.375 0 -0.875 0.625 0 0.375 0.125 0 0.625 0.125 0 -0.125 0.375 0 0.125 0.375 0 -0.125 0.625 0 0.125 0.625 0 0.875 0.375 0 0.875 0.625 0 -0.625 0.875 0 -0.375 0.875 0 0.375 0.875 0 0.625 0.875 0 -0.875 -1 0 -1 -0.875 0 -0.125 -1 0 0 -0.875 0 -1 -0.125 0 -0.875 0 0 -1 0.125 0 0 -0.125 0 -0.125 0 0 0.125 0 0 0 0.125 0 0.875 0 0 1 0.125 0 -1 0.875 0 -0.875 1 0 0 0.875 0 -0.125 1 0 0.125 1 0 1 0.875 0 0.875 1 0 -0.5 -0.625 0 -0.625 -0.5 0 -0.375 -0.5 0 -0.5 -0.375 0 -0.5 0.375 0 -0.625 0.5 0 -0.375 0.5 0 -0.5 0.625 0 0.5 0.375 0 0.375 0.5 0 0.625 0.5 0 0.5 0.625 0 -0.625 -1 0 -0.375 -1 0 -0.5 -0.875 0 -1 -0.625 0 -1 -0.375 0 -0.875 -0.5 0 0 -0.625 0 0 -0.375 0 -0.125 -0.5 0 -0.625 0 0 -0.375 0 0 -0.5 -0.125 0 -0.5 0.125 0 -1 0.375 0 -1 0.625 0 -0.875 0.5 0 0.375 0 0 0.625 0 0 0.5 0.125 0 0 0.375 0 0 0.625 0 -0.125 0.5 0 0.125 0.5 0 1 0.375 0 1 0.625 0 0.875 0.5 0 -0.625 1 0 -0.375 1 0 -0.5 0.875 0 0.375 1 0 0.625 1 0 0.5 0.875 0 -0.75 -0.875 0 -0.875 -0.75 0 -0.625 -0.75 0 -0.75 -0.625 0 -0.25 -0.875 0 -0.125 -0.75 0 -0.375 -0.75 0 -0.25 -0.625 0 -0.875 -0.25 0 -0.75 -0.125 0 -0.75 -0.375 0 -0.625 -0.25 0 -0.75 0.125 0 -0.875 0.25 0 -0.625 0.25 0 -0.75 0.375 0 -0.125 -0.25 0 -0.25 -0.125 0 -0.25 -0.375 0 -0.375 -0.25 0 -0.25 0.125 0 -0.125 0.25 0 -0.375 0.25 0 -0.25 0.375 0 0.25 0.125 0 0.125 0.25 0 0.375 0.25 0 0.25 0.375 0 0.75 0.125 0 0.875 0.25 0 0.625 0.25 0 0.75 0.375 0 -0.875 0.75 0 -0.75 0.875 0 -0.75 0.625 0 -0.625 0.75 0 -0.125 0.75 0 -0.25 0.875 0 -0.25 0.625 0 -0.375 0.75 0 0.125 0.75 0 0.25 0.875 0 0.25 0.625 0 0.375 0.75 0 0.875 0.75 0 0.75 0.875 0 0.75 0.625 0 0.625 0.75 0 -0.0625 -0.0625 0 -0.0625 0.0625 0 0.0625 0.0625 0 -0.5625 -0.0625 0 -0.5625 0.0625 0 -0.4375 -0.0625 0 -0.4375 0.0625 0 -0.0625 0.4375 0 0.0625 0.4375 0 -0.0625 0.5625 0 -0.1875 0.1875 0 -0.3125 0.3125 0 -0.3125 0.1875 0 -0.1875 0.3125 0 -0.1875 -0.0625 0 -0.1875 0.0625 0 -0.3125 -0.0625 0 -0.3125 0.0625 0 -0.0625 0.1875 0 0.0625 0.1875 0 -0.0625 0.3125 0 0.0625 0.3125 0 -0.4375 0.3125 0 -0.5625 0.1875 0 -0.4375 0.1875 0 -0.3125 0.4375 0 -0.1875 0.4375 0 -0.1875 0.5625 0 -0.4375 0 0 -0.5 -0.0625 0 -0.5 0.0625 0 0 0.4375 0 -0.3125 -0.1875 0 -0.25 0.1875 0 -0.1875 0.25 0 -0.3125 0.25 0 -0.25 0.3125 0 -0.1875 0 0 -0.3125 0 0 -0.25 -0.0625 0 -0.25 0.0625 0 0 0.1875 0 0 0.3125 0 -0.0625 0.25 0 0.0625 0.25 0 -0.4375 -0.1875 0 -0.5 0.1875 0 -0.4375 0.25 0 -0.25 0.4375 0 -0.125 0.0625 0 -0.0625 0.125 0 -0.1875 0.125 0 -0.125 0.1875 0 -0.375 0.3125 0 -0.3125 0.375 0 -0.375 -0.0625 0 -0.4375 -0.125 0 -0.3125 -0.125 0 -0.375 0.0625 0 -0.4375 0.125 0 -0.3125 0.125 0 -0.375 0.1875 0 -0.0625 0.375 0 -0.125 0.4375 0 -0.125 0.3125 0 -0.1875 0.375 0 -0.46875 -0.03125 0 -0.46875 0.03125 0 0.0625 0.5625 0 -0.0625 0.5 0 0.0625 0.5 0 -0.03125 0.46875 0 0.03125 0.46875 0 -0.1875 -0.1875 0 -0.25 -0.1875 0 -0.21875 0.21875 0 -0.28125 0.28125 0 -0.28125 0.21875 0 -0.21875 0.28125 0 0.1875 0.1875 0 0.1875 0.3125 0 -0.21875 0.03125 0 -0.28125 -0.03125 0 -0.28125 0.03125 0 0.03125 0.21875 0 -0.03125 0.28125 0 0.03125 0.28125 0 0.1875 0.4375 0 -0.1875 -0.125 0 0.125 0.1875 0 -0.375 -0.1875 0 -0.40625 -0.09375 0 -0.34375 -0.09375 0 -0.34375 -0.15625 0 -0.40625 0.09375 0 -0.34375 0.15625 0 -0.34375 0.09375 0 -0.40625 0.15625 0 -0.09375 0.40625 0 -0.15625 0.34375 0 -0.09375 0.34375 0 -0.15625 0.40625 0 0.0625 0.375 0 0.125 0.4375 0 0.125 0.3125 0 -0.40625 -0.03125 0 -0.40625 0.03125 0 -0.34375 -0.03125 0 -0.34375 0.03125 0 -0.46875 0.09375 0 -0.03125 0.40625 0 0.03125 0.40625 0 -0.03125 0.34375 0 0.03125 0.34375 0 -0.09375 0.46875 0 -0.21875 -0.09375 0 -0.28125 -0.09375 0 -0.28125 -0.15625 0 -0.21875 0.15625 0 -0.28125 0.15625 0 -0.21875 0.09375 0 -0.28125 0.09375 0 -0.15625 0.21875 0 -0.15625 0.28125 0 -0.09375 0.28125 0 -0.34375 0.21875 0 -0.21875 0.34375 0 0.09375 0.21875 0 0.09375 0.28125 0 0.4375 0.4375 0 -0.0625 -0.4375 0 0.4375 0.0625 0 -0.3125 -0.3125 0 -0.1875 -0.3125 0 -0.1875 -0.25 0 -0.3125 -0.25 0 -0.28125 -0.21875 0 -0.21875 -0.21875 0 0.3125 0.3125 0 0.3125 0.1875 0 0.25 0.1875 0 0.1875 0.25 0 0.25 0.3125 0 -0.0625 -0.3125 0 0.1875 0.0625 0 0.3125 0.0625 0 0 0.28125 0 0.03125 0.25 0 -0.4375 -0.3125 0 -0.4375 -0.25 0 0.4375 0.3125 0 0.4375 0.1875 0 0.3125 0.4375 0 0.1875 0.5625 0 0.1875 0.5 0 0.25 0.4375 0 0.1875 0.125 0 0.15625 0.15625 0 -0.40625 -0.15625 0 -0.375 -0.09375 0 -0.34375 -0.125 0 -0.375 -0.15625 0 -0.375 0.09375 0 -0.40625 0.125 0 -0.34375 0.125 0 -0.375 0.15625 0 -0.09375 0.375 0 -0.125 0.34375 0 -0.15625 0.375 0 0.1875 0.375 0 0.09375 0.40625 0 0.09375 0.34375 0 0.15625 0.34375 0 0.15625 0.40625 0 -0.40625 0 0 -0.34375 0 0 -0.375 -0.03125 0 -0.375 0.03125 0 0 0.40625 0 0 0.34375 0 -0.03125 0.375 0 0.03125 0.375 0 0.09375 0.46875 0 0.15625 0.46875 0 -0.28125 -0.125 0 -0.21875 -0.15625 0 -0.25 -0.15625 0 -0.34375 -0.21875 0 -0.40625 -0.21875 0 0.09375 0.25 0 0.15625 0.21875 0 0.15625 0.28125 0 0.125 0.21875 0 0.125 0.28125 0 -0.4375 0.03125 0 -0.40625 0.0625 0 -0.4375 0.09375 0 -0.0625 0.40625 0 0.03125 0.4375 0 0.0625 0.40625 0 -0.3125 0.15625 0 -0.34375 0.1875 0 -0.3125 -0.03125 0 -0.34375 -0.0625 0 -0.3125 -0.09375 0 -0.3125 0.03125 0 -0.34375 0.0625 0 -0.3125 0.09375 0 -0.03125 0.3125 0 -0.0625 0.34375 0 -0.09375 0.3125 0 0.03125 0.3125 0 0.0625 0.28125 0 0.0625 0.34375 0 0.09375 0.3125 0 -0.3125 -0.15625 0 -0.28125 -0.1875 0 -0.34375 -0.1875 0 -0.25 -0.3125 0 -0.21875 -0.28125 0 -0.21875 -0.25 0 -0.25 0.21875 0 -0.21875 0.25 0 -0.28125 0.25 0 -0.25 0.28125 0 0.3125 0.25 0 0.21875 0.21875 0 0.21875 0.28125 0 0.28125 0.28125 0 0.28125 0.21875 0 -0.0625 -0.1875 0 0 -0.3125 0 -0.0625 -0.25 0 0.5625 0.1875 0 0.5 0.1875 0 0.4375 0.25 0 -0.125 -0.1875 0 0.4375 0.375 0 0.375 0.3125 0 0.3125 0.375 0 -0.0625 -0.375 0 -0.125 -0.3125 0 -0.359375 0.140625 0 -0.359375 0.109375 0 0.4375 0.125 0 0.3125 0.125 0 0.375 0.1875 0 -0.125 0.40625 0 -0.109375 0.390625 0 -0.140625 0.359375 0 -0.109375 0.359375 0 -0.140625 0.390625 0 0.09375 0.375 0 0.125 0.40625 0 0.125 0.34375 0 0.15625 0.375 0 -0.390625 -0.015625 0 -0.390625 0.015625 0 -0.359375 -0.015625 0 -0.359375 0.015625 0 -0.015625 0.390625 0 0.015625 0.390625 0 -0.015625 0.359375 0 0.015625 0.359375 0 -0.15625 -0.21875 0 -0.15625 -0.28125 0 -0.28125 0.125 0 -0.15625 0.25 0 -0.125 0.28125 0 -0.34375 0.28125 0 -0.40625 0.21875 0 -0.375 0.21875 0 -0.28125 0.34375 0 -0.21875 0.40625 0 -0.25 0.34375 0 -0.21875 0.375 0 0.21875 0.15625 0 0.28125 0.15625 0 0.109375 0.265625 0 0.15625 0.25 0 0.140625 0.265625 0 0.21875 0.34375 0 0.21875 0.40625 0 0.28125 0.34375 0 0.28125 0.40625 0 -0.4375 -0.03125 0 -0.40625 -0.0625 0 -0.21875 0.1875 0 -0.1875 0.21875 0 -0.3125 0.28125 0 -0.28125 0.3125 0 -0.28125 0.1875 0 -0.3125 0.21875 0 -0.328125 0.171875 0 -0.296875 0.171875 0 -0.328125 0.203125 0 -0.1875 0.28125 0 -0.21875 0.3125 0 -0.15625 0.3125 0 -0.1875 0.34375 0 -0.078125 0.328125 0 0.078125 0.296875 0 0.078125 0.328125 0 -0.1875 0.40625 0 -0.421875 -0.015625 0 -0.328125 -0.015625 0 -0.328125 0.015625 0 0.015625 0.328125 0 -0.390625 -0.046875 0 -0.359375 -0.046875 0 -0.359375 0.078125 0 -0.390625 0.046875 0 -0.359375 0.046875 0 -0.328125 0.140625 0 -0.328125 0.109375 0 -0.296875 0.140625 0 -0.359375 0.203125 0 -0.078125 0.359375 0 -0.140625 0.328125 0 -0.109375 0.328125 0 -0.109375 0.296875 0 -0.171875 0.359375 0 -0.171875 0.390625 0 -0.21875 -0.1875 0 -0.1875 -0.21875 0 0.1875 0.21875 0 0.1875 0.15625 0 0.15625 0.3125 0 0.1875 0.28125 0 0.1875 0.34375 0 0.15625 0.4375 0 0.1875 0.40625 0 0.046875 0.390625 0 0.046875 0.359375 0 0.078125 0.390625 0 0.078125 0.359375 0 0.109375 0.296875 0 0.109375 0.328125 0 0.140625 0.296875 0 0 -0.4375 0 0.4375 0 0 -0.25 -0.21875 0 -0.28125 -0.28125 0 -0.28125 -0.25 0 -0.234375 -0.234375 0 -0.25 -0.28125 0 -0.234375 -0.265625 0 -0.234375 0.234375 0 -0.265625 0.265625 0 -0.265625 0.234375 0 -0.234375 0.265625 0 0.25 0.21875 0 0.21875 0.25 0 0.25 0.28125 0 0.28125 0.25 0 0 -0.1875 0 -0.03125 -0.28125 0 -0.03125 -0.21875 0 0.3125 0 0 0.25 0.0625 0 -0.3125 -0.4375 0 -0.1875 -0.4375 0 -0.15625 -0.15625 0 -0.3125 -0.375 0 -0.375 -0.3125 0 -0.34375 0.34375 0 -0.125 -0.4375 0 -0.1875 -0.375 0 -0.09375 -0.40625 0 -0.15625 -0.34375 0 -0.09375 -0.34375 0 -0.40625 -0.125 0 -0.390625 -0.109375 0 -0.359375 -0.109375 0 -0.359375 -0.140625 0 -0.390625 -0.140625 0 0.375 0.0625 0 0.40625 0.09375 0 0.34375 0.15625 0 0.34375 0.09375 0 0.40625 0.15625 0 0.140625 0.359375 0 -0.03125 -0.40625 0 -0.03125 -0.34375 0 0 0.359375 0 -0.015625 0.375 0 -0.15625 -0.25 0 -0.09375 -0.28125 0 -0.125 -0.28125 0 -0.28125 -0.34375 0 -0.21875 -0.34375 0 -0.375 -0.21875 0 -0.34375 -0.28125 0 -0.34375 -0.25 0 -0.40625 -0.28125 0 -0.40625 -0.25 0 -0.34375 0.25 0 -0.28125 0.40625 0 -0.28125 0.375 0 -0.234375 0.359375 0 -0.265625 0.359375 0 0.25 0.15625 0 0.28125 0.09375 0 0.28125 0.125 0 0.34375 0.28125 0 0.34375 0.21875 0 0.40625 0.28125 0 0.40625 0.21875 0 0.25 0.34375 0 0.21875 0.375 0 -0.03125 0.4375 0 -0.09375 0.4375 0 -0.078125 0.421875 0 -0.046875 0.421875 0 -0.3125 0.34375 0 -0.296875 0.296875 0 -0.296875 0.328125 0 -0.296875 0.203125 0 -0.328125 0.1875 0 -0.3125 0.203125 0 -0.203125 0.296875 0 -0.171875 0.328125 0 -0.171875 0.296875 0 -0.203125 0.328125 0 -0.328125 -0.078125 0 -0.015625 0.421875 0 -0.328125 -0.171875 0 -0.296875 -0.171875 0 -0.3125 -0.21875 0 -0.296875 -0.203125 0 -0.328125 -0.203125 0 -0.265625 0.203125 0 -0.203125 0.265625 0 -0.171875 0.265625 0 -0.296875 0.265625 0 -0.296875 0.234375 0 -0.328125 0.234375 0 -0.328125 0.265625 0 -0.265625 0.296875 0 -0.234375 0.296875 0 -0.234375 0.328125 0 -0.265625 0.328125 0 -0.015625 0.328125 0 -0.40625 -0.1875 0 -0.390625 -0.078125 0 -0.359375 -0.078125 0 -0.359375 -0.0625 0 -0.328125 -0.109375 0 -0.328125 -0.140625 0 -0.296875 -0.109375 0 -0.296875 -0.140625 0 -0.078125 0.390625 0 -0.046875 0.390625 0 -0.046875 0.359375 0 -0.078125 0.375 0 -0.0625 0.359375 0 -0.203125 0.359375 0 -0.1875 0.359375 0 -0.203125 -0.203125 0 -0.15625 -0.1875 0 -0.171875 -0.203125 0 -0.265625 -0.171875 0 -0.265625 -0.203125 0 -0.234375 -0.203125 0 0.21875 0.3125 0 0.171875 0.328125 0 0.171875 0.296875 0 0.203125 0.296875 0 0.203125 0.328125 0 -0.359375 -0.171875 0 -0.390625 -0.171875 0 -0.359375 -0.203125 0 -0.171875 0.34375 0 -0.09375 0.359375 0 -0.078125 0.34375 0 -0.015625 0.40625 0 -0.03125 0.390625 0 -0.015625 0.34375 0 -0.03125 0.359375 0 -0.34375 0.203125 0 -0.328125 0.21875 0 -0.1875 -0.28125 0 -0.21875 -0.3125 0 -0.15625 -0.3125 0 -0.203125 -0.234375 0 -0.203125 -0.265625 0 -0.171875 -0.234375 0 0.28125 0.3125 0 0.3125 0.28125 0 0.28125 0.1875 0 0.3125 0.21875 0 0.3125 0.15625 0 0.203125 0.265625 0 0.171875 0.359375 0 0.203125 0.359375 0 
        </DataArray>
      </Points>
      <Cells>
        <DataArray type="Int32" Name="connectivity" format="ascii">
          179 89 53 216 110 60 224 112 64 187 92 54 184 93 55 211 100 58 208 107 63 181 90 35 186 95 38 210 109 47 205 102 44 218 111 50 178 91 34 190 99 39 213 105 48 221 108 51 177 65 33 189 68 38 214 74 49 222 76 52 185 67 37 182 66 36 209 73 46 217 75 48 206 72 45 183 78 53 188 79 56 212 83 60 207 86 61 220 87 64 180 77 54 192 81 58 215 84 59 223 88 63 133 77 53 137 81 57 140 84 60 144 88 64 134 79 54 135 78 55 138 83 58 142 87 62 143 86 63 115 66 35 118 67 38 127 73 47 124 72 44 130 75 50 114 65 34 119 68 39 128 74 48 131 76 51 145 89 33 154 96 38 172 110 49 175 112 52 149 92 37 151 93 36 159 100 46 165 106 48 168 107 45 147 90 53 156 95 56 173 109 60 176 111 64 150 91 54 160 99 58 170 108 63 147 89 11 173 110 19 176 112 20 150 92 12 153 93 13 160 100 15 170 107 18 146 90 11 171 109 19 162 102 16 174 111 20 148 91 12 158 99 15 169 108 18 113 65 0 118 68 2 129 74 6 132 76 7 117 67 2 116 66 1 126 73 5 128 75 6 125 72 4 133 78 8 136 79 8 137 82 9 140 83 9 141 86 10 144 87 10 134 77 8 135 80 8 138 81 9 139 84 9 143 88 10 179 77 21 191 81 24 216 84 30 224 88 32 187 79 23 184 78 22 211 83 29 219 87 31 208 86 28 181 66 22 186 67 23 210 73 29 205 72 28 218 75 31 178 65 21 190 68 24 213 74 30 221 76 32 177 89 21 189 96 24 214 110 30 222 112 32 185 92 23 182 93 22 209 100 29 217 106 31 206 107 28 183 90 22 188 95 23 212 109 29 207 102 28 220 111 31 180 91 21 192 99 24 215 105 30 223 108 32 179 21 89 191 24 96 216 30 110 224 32 112 187 23 92 184 22 93 211 29 100 219 31 106 208 28 107 181 22 90 186 23 95 210 29 109 205 28 102 218 31 111 178 21 91 190 24 99 213 30 105 221 32 108 177 21 65 189 24 68 214 30 74 222 32 76 185 23 67 182 22 66 209 29 73 217 31 75 206 28 72 183 22 78 188 23 79 212 29 83 207 28 86 220 31 87 180 21 77 192 24 81 215 30 84 223 32 88 133 8 77 136 8 80 137 9 81 140 9 84 144 10 88 134 8 79 135 8 78 138 9 83 139 9 82 142 10 87 143 10 86 115 1 66 118 2 67 127 5 73 124 4 72 130 6 75 114 0 65 119 2 68 128 6 74 131 7 76 145 11 89 172 19 110 175 20 112 149 12 92 151 13 93 159 15 100 168 18 107 147 11 90 173 19 109 163 16 102 176 20 111 150 12 91 160 15 99 170 18 108 147 53 89 173 60 110 176 64 112 150 54 92 153 55 93 160 58 100 170 63 107 146 35 90 154 38 95 171 47 109 162 44 102 174 50 111 148 34 91 158 39 99 165 48 105 169 51 108 113 33 65 118 38 68 129 49 74 132 52 76 117 37 67 116 36 66 126 46 73 128 48 75 125 45 72 133 53 78 136 56 79 140 60 83 141 61 86 144 64 87 134 54 77 138 58 81 139 59 84 143 63 88 179 53 77 191 57 81 216 60 84 224 64 88 187 54 79 184 55 78 211 58 83 219 62 87 208 63 86 181 35 66 186 38 67 210 47 73 205 44 72 218 50 75 178 34 65 190 39 68 213 48 74 221 51 76 177 33 89 189 38 96 214 49 110 222 52 112 185 37 92 182 36 93 209 46 100 217 48 106 206 45 107 183 53 90 188 56 95 212 60 109 220 64 111 180 54 91 192 58 99 223 63 108 248 191 96 250 139 82 244 123 71 252 166 105 229 157 96 228 154 95 234 165 105 225 121 69 227 122 71 226 121 3 225 120 3 227 123 3 229 154 14 251 166 59 247 137 57 252 215 59 248 57 191 250 59 139 252 59 166 228 14 154 234 17 165 225 3 121 227 3 122 226 3 123 225 69 120 227 71 123 229 96 154 228 95 156 234 105 166 248 96 157 239 69 121 247 82 137 252 105 215 270 156 56 277 243 198 278 247 199 274 240 121 284 249 157 281 230 156 275 226 123 254 228 156 271 248 157 262 239 121 266 243 123 273 251 59 264 239 41 268 243 43 272 247 57 271 249 57 255 229 14 277 235 70 274 226 70 275 243 70 279 250 82 276 240 70 277 70 243 278 82 247 274 70 240 275 70 226 276 70 235 254 14 228 271 57 248 262 41 239 266 43 243 273 59 250 272 57 249 268 198 243 272 199 247 262 121 240 266 123 244 271 157 249 254 156 230 255 157 229 274 121 226 288 166 251 275 123 243 281 156 270 293 167 106 293 165 17 294 234 166 314 244 71 343 276 235 334 255 231 345 265 240 352 269 244 341 264 241 349 268 245 308 265 242 306 262 240 309 266 244 291 254 230 326 288 251 322 286 249 291 253 14 296 256 17 292 255 14 308 263 41 306 265 41 307 264 41 310 268 43 346 265 197 340 264 194 343 258 197 347 277 198 334 284 157 345 276 197 293 106 165 313 69 239 294 17 234 339 166 288 343 197 276 344 197 258 334 157 255 345 197 265 341 194 264 349 198 268 308 41 265 306 41 262 309 43 266 307 41 263 291 14 254 292 14 253 297 17 256 322 249 284 316 230 281 292 231 255 306 240 265 309 244 269 307 241 264 310 245 268 346 242 265 340 239 264 347 235 277 345 240 276 340 313 239 296 294 232 295 293 17 297 295 17 339 294 166 340 194 313 296 17 294 295 167 293 297 233 295 339 232 294 352 244 314 378 219 106 373 136 80 354 142 85 354 141 10 355 153 13 369 122 42 377 142 62 374 270 56 383 281 270 407 295 233 395 328 233 432 346 285 437 311 269 427 307 263 433 310 267 419 292 253 423 297 256 421 319 284 388 322 284 387 319 283 390 320 286 371 311 267 372 309 269 414 353 269 399 331 253 403 336 256 379 312 62 407 328 167 414 352 202 372 311 43 371 310 43 388 319 98 390 322 98 432 321 242 420 319 231 430 308 242 436 311 246 427 332 241 433 337 245 419 331 231 423 336 233 421 334 231 431 333 242 429 341 241 435 349 245 409 342 194 415 314 304 417 352 314 382 314 71 410 313 194 438 338 246 378 62 219 373 56 136 375 61 141 356 16 163 354 10 142 378 106 167 369 71 122 377 85 142 380 62 312 407 167 295 432 242 346 428 241 332 434 245 337 420 231 331 430 242 333 436 246 338 437 246 311 427 241 307 433 245 310 419 231 292 423 233 297 421 231 319 431 242 321 388 98 322 387 98 319 371 43 311 372 43 309 409 194 341 407 233 328 414 269 352 372 269 311 371 267 310 388 284 319 390 286 322 420 283 319 426 286 320 430 263 308 436 267 311 437 269 353 419 253 331 423 256 336 421 284 334 408 167 328 424 233 336 417 202 352 411 194 342 382 304 314 410 298 313 381 369 201 379 378 167 380 377 62 408 379 167 424 395 233 417 415 202 411 410 194 381 71 369 379 62 378 374 56 373 382 71 381 413 270 374 408 312 379 417 314 415 411 299 410 455 120 69 458 163 102 458 207 61 495 272 249 498 273 200 494 278 199 523 348 289 516 344 258 513 347 259 512 300 258 472 323 288 447 300 259 491 346 197 493 348 198 496 350 199 492 347 198 528 326 251 513 300 235 510 291 230 512 343 235 511 330 230 462 375 141 469 356 163 459 376 163 501 365 304 507 380 312 534 428 332 536 420 331 531 430 333 532 436 338 538 425 320 535 431 321 544 435 325 547 393 326 539 389 321 543 392 324 530 400 332 533 401 330 537 402 333 483 401 332 482 402 331 481 399 330 484 400 333 488 404 338 474 393 324 467 389 320 473 391 323 468 387 321 475 392 325 518 426 320 526 437 353 519 425 344 555 408 328 548 410 299 561 439 353 557 424 336 552 397 329 558 406 338 478 398 328 503 418 353 486 406 336 460 376 61 464 363 85 462 354 85 463 375 85 478 395 104 477 396 104 518 425 237 525 435 245 476 393 103 468 389 98 475 391 103 474 392 103 467 390 98 503 414 202 483 400 155 482 399 155 486 403 164 481 401 155 484 402 155 501 381 201 534 401 280 536 402 283 529 399 253 531 400 263 532 404 267 546 393 290 538 389 285 535 387 283 544 392 289 539 432 285 530 427 263 540 425 285 537 431 283 545 435 289 526 439 246 488 406 164 555 398 312 561 418 329 557 406 327 558 438 327 553 416 366 560 438 396 551 382 381 556 398 394 563 418 416 504 415 366 527 439 396 527 438 246 480 398 104 505 418 202 509 380 204 550 415 304 562 439 329 559 424 327 458 102 207 495 199 272 498 251 273 494 236 278 495 249 286 513 235 347 510 230 330 512 235 300 511 230 316 492 198 348 491 197 344 493 198 349 491 285 346 493 289 348 492 259 347 446 258 300 472 288 326 513 259 300 510 253 291 512 258 343 464 85 377 462 85 375 463 85 363 459 61 376 460 61 375 507 204 380 536 283 420 541 286 426 531 263 430 532 267 436 538 285 425 535 283 431 544 289 435 547 290 393 539 285 389 543 289 392 530 263 400 533 280 401 537 283 402 479 104 396 477 104 395 483 155 401 482 155 402 481 155 399 485 164 403 484 155 400 474 103 393 467 98 389 473 103 391 468 98 387 475 103 392 525 245 434 526 246 437 519 237 425 555 312 408 548 298 410 561 329 439 557 327 424 558 327 406 478 104 398 503 202 418 486 164 406 462 141 354 469 163 376 451 304 365 478 328 395 518 320 425 525 325 435 476 326 393 468 321 389 474 324 392 467 320 390 503 353 414 483 332 400 482 331 399 486 336 403 481 330 401 484 333 402 534 332 401 536 331 402 529 330 399 531 333 400 532 338 404 546 324 393 538 320 389 535 321 387 544 325 392 539 321 432 530 332 427 540 344 425 537 333 431 545 349 435 526 353 439 479 329 397 488 338 406 555 328 398 561 353 418 557 336 406 558 338 438 560 327 438 551 304 382 556 312 398 563 329 418 504 202 415 527 246 439 504 366 416 527 396 438 480 394 398 505 416 418 509 377 380 550 366 415 562 396 439 559 395 424 457 455 193 528 498 290 496 495 286 529 510 330 540 491 344 545 493 349 476 472 326 509 464 377 550 451 366 562 479 396 559 477 395 505 504 416 459 458 61 461 455 69 500 498 200 519 516 237 473 472 103 541 496 286 547 528 290 543 523 289 533 511 280 508 464 204 560 477 327 551 501 304 556 507 312 563 552 329 528 251 498 514 236 494 496 199 495 489 193 461 529 253 510 540 285 491 545 289 493 476 103 472 509 204 464 550 304 451 562 329 479 559 327 477 505 202 504 459 163 458 461 193 455 500 290 498 519 344 516 473 323 472 541 350 496 547 326 528 543 324 523 533 330 511 508 363 464 560 396 477 551 381 501 556 394 507 563 416 552 585 135 55 586 195 55 622 273 250 590 278 236 590 279 82 636 339 288 596 316 281 635 296 232 587 313 298 601 370 161 565 356 161 668 413 315 678 434 337 676 422 323 672 429 317 670 384 317 674 409 341 675 440 342 673 385 318 597 384 316 598 385 317 649 428 317 638 422 335 651 440 318 694 442 318 686 411 342 599 386 318 652 441 342 584 369 42 583 370 42 564 355 13 588 357 80 589 373 80 616 413 196 637 422 232 649 429 241 566 361 25 598 384 97 652 440 257 599 385 97 668 383 270 678 405 287 650 403 256 669 384 280 672 385 282 667 433 267 677 422 287 674 429 282 675 409 282 673 440 282 651 442 257 694 386 315 686 441 299 619 374 373 653 412 360 687 441 361 695 386 383 567 360 357 568 361 360 620 413 374 655 442 412 618 412 196 654 441 257 600 386 97 696 442 315 639 497 279 665 522 351 663 515 301 657 521 303 660 517 302 669 511 316 664 449 303 656 446 302 659 448 301 658 492 348 681 500 351 624 499 351 573 449 301 572 446 300 575 447 303 574 448 302 646 523 324 645 522 303 642 516 302 640 514 301 647 521 348 648 524 351 632 471 376 612 466 368 607 465 355 629 463 363 614 443 357 608 456 368 631 460 375 704 541 426 698 542 391 689 452 367 703 487 405 700 485 403 699 525 434 581 457 368 603 471 364 605 469 376 595 465 368 604 470 370 576 451 365 643 520 426 609 487 404 610 485 405 633 506 367 634 507 394 680 542 434 606 479 397 683 548 362 691 552 416 706 490 359 712 508 367 709 549 362 714 454 365 718 480 397 578 453 367 569 445 362 626 502 365 690 554 397 621 494 199 587 461 69 647 523 238 648 522 238 640 515 236 645 521 238 646 524 238 575 449 26 574 446 26 572 447 26 573 448 26 624 500 200 665 499 261 663 449 261 657 447 259 660 448 260 664 522 261 656 516 258 659 514 260 658 521 259 661 517 260 605 471 101 595 466 94 602 469 101 593 465 94 603 470 101 581 456 40 634 506 204 626 501 201 671 534 280 679 542 287 577 451 27 578 452 27 610 487 164 609 488 164 643 518 237 690 552 305 632 460 203 612 457 193 629 450 203 615 443 195 630 471 203 608 465 152 631 463 203 704 520 350 698 475 325 702 487 337 701 485 335 699 542 325 688 548 299 611 490 193 633 508 204 691 553 305 683 549 298 576 454 27 606 480 104 706 444 358 712 453 363 709 445 359 714 502 364 718 554 394 662 514 494 666 499 497 684 489 461 697 546 524 705 520 517 716 502 470 719 554 506 713 453 450 707 444 443 710 445 444 641 515 497 579 454 450 613 490 466 692 553 452 685 549 489 582 457 40 625 499 200 682 546 290 644 520 237 628 502 201 693 554 305 579 453 27 571 445 25 666 515 261 715 454 364 708 490 358 717 553 366 711 549 359 585 55 195 586 55 153 585 80 135 622 200 273 590 82 278 622 250 279 636 232 339 621 199 350 636 288 323 635 256 296 587 69 313 589 80 357 565 16 356 584 42 370 668 270 413 676 287 422 672 282 429 670 280 384 667 267 404 677 287 405 674 282 409 675 282 440 673 282 385 597 97 384 598 97 385 616 196 412 649 241 428 638 232 422 651 257 440 694 315 442 686 299 411 599 97 386 652 257 441 584 201 369 583 161 370 601 161 356 591 153 355 596 281 383 616 315 413 637 323 422 649 317 429 598 317 384 652 342 440 599 318 385 669 316 384 676 323 391 672 317 385 670 317 428 667 337 433 677 335 422 674 341 429 675 342 409 673 318 440 651 318 442 694 318 386 686 342 441 687 299 441 695 315 386 568 25 361 620 196 413 655 257 442 618 360 412 654 361 441 600 383 386 617 357 360 653 360 361 696 412 442 665 261 522 663 261 515 657 259 521 660 260 517 669 280 511 664 261 449 656 258 446 659 260 448 658 259 492 681 290 500 624 200 499 573 26 449 572 26 446 575 26 447 574 26 448 646 238 523 645 238 522 642 237 516 640 236 514 647 238 521 648 238 524 632 203 471 607 152 465 629 203 463 630 203 450 614 195 443 608 152 456 631 203 460 704 350 541 698 325 542 703 337 487 700 335 485 699 325 525 581 40 457 603 101 471 594 94 466 605 101 469 595 94 465 604 101 470 577 27 452 576 27 451 643 237 520 609 164 487 610 164 485 611 193 489 633 204 506 634 204 507 680 287 542 606 104 479 683 298 548 691 305 552 706 358 490 712 363 508 709 359 549 714 364 454 718 394 480 578 27 453 569 25 445 626 201 502 690 305 554 580 120 455 623 279 497 647 348 523 648 351 522 640 301 515 645 303 521 642 302 517 575 303 449 574 302 446 572 300 447 573 301 448 624 351 500 665 351 499 663 301 449 657 303 447 660 302 448 664 303 522 656 302 516 659 301 514 658 348 521 681 351 524 605 376 471 595 368 466 602 356 469 593 355 465 567 357 443 581 368 456 626 365 501 671 428 534 679 391 542 577 366 451 578 367 452 610 405 487 609 404 488 643 426 518 690 397 552 632 376 460 612 368 457 630 364 471 608 368 465 631 375 463 627 370 470 704 426 520 698 391 475 702 404 487 701 405 485 689 367 506 699 434 542 688 362 548 611 359 490 633 367 508 691 416 553 683 362 549 576 365 454 606 397 480 712 367 453 709 362 445 714 365 502 718 397 554 662 260 514 666 261 499 697 324 546 705 350 520 716 364 502 719 394 554 713 363 453 707 358 444 710 359 445 641 236 515 579 27 454 613 193 490 692 305 553 685 298 549 582 455 457 625 497 499 682 524 546 644 517 520 628 470 502 693 506 554 579 450 453 570 443 444 571 444 445 666 497 515 715 450 454 708 466 490 717 452 553 711 489 549 588 585 195 591 586 153 623 622 279 650 635 335 661 621 350 637 636 323 617 589 357 615 592 358 627 584 370 702 667 404 701 677 405 696 616 412 688 566 362 602 601 356 593 591 355 600 596 383 679 676 391 671 670 428 618 617 360 654 653 361 715 630 450 708 594 466 717 577 452 711 611 489 582 580 455 625 623 497 644 642 517 682 681 524 570 567 443 628 627 470 693 689 506 571 570 444 592 586 94 639 590 236 638 635 232 597 596 97 604 601 101 594 592 94 680 678 287 569 566 25 607 564 152 614 588 195 619 589 196 687 566 299 695 668 315 703 678 337 700 650 335 620 619 196 655 653 257 568 567 25 641 639 236 613 612 193 692 689 305 662 621 260 684 587 298 697 646 324 705 661 350 716 603 364 719 634 394 713 629 363 707 615 358 710 706 359 685 684 298 588 80 585 591 94 586 623 200 622 650 256 635 661 260 621 637 232 636 617 196 589 615 195 592 627 201 584 702 337 667 701 335 677 696 315 616 688 299 566 602 101 601 593 94 591 600 97 596 679 287 676 671 280 670 618 196 617 654 257 653 715 364 630 708 358 594 717 366 577 711 359 611 582 40 580 625 200 623 644 237 642 682 290 681 570 25 567 628 201 627 693 305 689 571 25 570 592 195 586 639 279 590 638 335 635 597 316 596 604 370 601 594 358 592 680 434 678 569 362 566 607 355 564 614 357 588 619 373 589 687 361 566 695 383 668 703 405 678 700 403 650 620 374 619 655 412 653 568 360 567 641 497 639 613 466 612 692 452 689 662 494 621 684 461 587 697 524 646 705 517 661 716 470 603 719 506 634 713 450 629 707 443 615 710 444 706 685 489 684 
        </DataArray>
        <DataArray type="Int32" Name="offsets" format="ascii">
          3 6 9 12 15 18 21 24 27 30 33 36 39 42 45 48 51 54 57 60 63 66 69 72 75 78 81 84 87 90 93 96 99 102 105 108 111 114 117 120 123 126 129 132 135 138 141 144 147 150 153 156 159 162 165 168 171 174 177 180 183 186 189 192 195 198 201 204 207 210 213 216 219 222 225 228 231 234 237 240 243 246 249 252 255 258 261 264 267 270 273 276 279 282 285 288 291 294 297 300 303 306 309 312 315 318 321 324 327 330 333 336 339 342 345 348 351 354 357 360 363 366 369 372 375 378 381 384 387 390 393 396 399 402 405 408 411 414 417 420 423 426 429 432 435 438 441 444 447 450 453 456 459 462 465 468 471 474 477 480 483 486 489 492 495 498 501 504 507 510 513 516 519 522 525 528 531 534 537 540 543 546 549 552 555 558 561 564 567 570 573 576 579 582 585 588 591 594 597 600 603 606 609 612 615 618 621 624 627 630 633 636 639 642 645 648 651 654 657 660 663 666 669 672 675 678 681 684 687 690 693 696 699 702 705 708 711 714 717 720 723 726 729 732 735 738 741 744 747 750 753 756 759 762 765 768 771 774 777 780 783 786 789 792 795 798 801 804 807 810 813 816 819 822 825 828 831 834 837 840 843 846 849 852 855 858 861 864 867 870 873 876 879 882 885 888 891 894 897 900 903 906 909 912 915 918 921 924 927 930 933 936 939 942 945 948 951 954 957 960 963 966 969 972 975 978 981 984 987 990 993 996 999 1002 1005 1008 1011 1014 1017 1020 1023 1026 1029 1032 1035 1038 1041 1044 1047 1050 1053 1056 1059 1062 1065 1068 1071 1074 1077 1080 1083 1086 1089 1092 1095 1098 1101 1104 1107 1110 1113 1116 1119 1122 1125 1128 1131 1134 1137 1140 1143 1146 1149 1152 1155 1158 1161 1164 1167 1170 1173 1176 1179 1182 1185 1188 1191 1194 1197 1200 1203 1206 1209 1212 1215 1218 1221 1224 1227 1230 1233 1236 1239 1242 1245 1248 1251 1254 1257 1260 1263 1266 1269 1272 1275 1278 1281 1284 1287 1290 1293 1296 1299 1302 1305 1308 1311 1314 1317 1320 1323 1326 1329 1332 1335 1338 1341 1344 1347 1350 1353 1356 1359 1362 1365 1368 1371 1374 1377 1380 1383 1386 1389 1392 1395 1398 1401 1404 1407 1410 1413 1416 1419 1422 1425 1428 1431 1434 1437 1440 1443 1446 1449 1452 1455 1458 1461 1464 1467 1470 1473 1476 1479 1482 1485 1488 1491 1494 1497 1500 1503 1506 1509 1512 1515 1518 1521 1524 1527 1530 1533 1536 1539 1542 1545 1548 1551 1554 1557 1560 1563 1566 1569 1572 1575 1578 1581 1584 1587 1590 1593 1596 1599 1602 1605 1608 1611 1614 1617 1620 1623 1626 1629 1632 1635 1638 1641 1644 1647 1650 1653 1656 1659 1662 1665 1668 1671 1674 1677 1680 1683 1686 1689 1692 1695 1698 1701 1704 1707 1710 1713 1716 1719 1722 1725 1728 1731 1734 1737 1740 1743 1746 1749 1752 1755 1758 1761 1764 1767 1770 1773 1776 1779 1782 1785 1788 1791 1794 1797 1800 1803 1806 1809 1812 1815 1818 1821 1824 1827 1830 1833 1836 1839 1842 1845 1848 1851 1854 1857 1860 1863 1866 1869 1872 1875 1878 1881 1884 1887 1890 1893 1896 1899 1902 1905 1908 1911 1914 1917 1920 1923 1926 1929 1932 1935 1938 1941 1944 1947 1950 1953 1956 1959 1962 1965 1968 1971 1974 1977 1980 1983 1986 1989 1992 1995 1998 2001 2004 2007 2010 2013 2016 2019 2022 2025 2028 2031 2034 2037 2040 2043 2046 2049 2052 2055 2058 2061 2064 2067 2070 2073 2076 2079 2082 2085 2088 2091 2094 2097 2100 2103 2106 2109 2112 2115 2118 2121 2124 2127 2130 2133 2136 2139 2142 2145 2148 2151 2154 2157 2160 2163 2166 2169 2172 2175 2178 2181 2184 2187 2190 2193 2196 2199 2202 2205 2208 2211 2214 2217 2220 2223 2226 2229 2232 2235 2238 2241 2244 2247 2250 2253 2256 2259 2262 2265 2268 2271 2274 2277 2280 2283 2286 2289 2292 2295 2298 2301 2304 2307 2310 2313 2316 2319 2322 2325 2328 2331 2334 2337 2340 2343 2346 2349 2352 2355 2358 2361 2364 2367 2370 2373 2376 2379 2382 2385 2388 2391 2394 2397 2400 2403 2406 2409 2412 2415 2418 2421 2424 2427 2430 2433 2436 2439 2442 2445 2448 2451 2454 2457 2460 2463 2466 2469 2472 2475 2478 2481 2484 2487 2490 2493 2496 2499 2502 2505 2508 2511 2514 2517 2520 2523 2526 2529 2532 2535 2538 2541 2544 2547 2550 2553 2556 2559 2562 2565 2568 2571 2574 2577 2580 2583 2586 2589 2592 2595 2598 2601 2604 2607 2610 2613 2616 2619 2622 2625 2628 2631 2634 2637 2640 2643 2646 2649 2652 2655 2658 2661 2664 2667 2670 2673 2676 2679 2682 2685 2688 2691 2694 2697 2700 2703 2706 2709 2712 2715 2718 2721 2724 2727 2730 2733 2736 2739 2742 2745 2748 2751 2754 2757 2760 2763 2766 2769 2772 2775 2778 2781 2784 2787 2790 2793 2796 2799 2802 2805 2808 2811 2814 2817 2820 2823 2826 2829 2832 2835 2838 2841 2844 2847 2850 2853 2856 2859 2862 2865 2868 2871 2874 2877 2880 2883 2886 2889 2892 2895 2898 2901 2904 2907 2910 2913 2916 2919 2922 2925 2928 2931 2934 2937 2940 2943 2946 2949 2952 2955 2958 2961 2964 2967 2970 2973 2976 2979 2982 2985 2988 2991 2994 2997 3000 3003 3006 3009 3012 3015 3018 3021 3024 3027 3030 3033 3036 3039 3042 3045 3048 3051 3054 3057 3060 3063 3066 3069 3072 3075 3078 3081 3084 3087 3090 3093 3096 3099 3102 3105 3108 3111 3114 3117 3120 3123 3126 3129 3132 3135 3138 3141 3144 3147 3150 3153 3156 3159 3162 3165 3168 3171 3174 3177 3180 3183 3186 3189 3192 3195 3198 3201 3204 3207 3210 3213 3216 3219 3222 3225 3228 3231 3234 3237 3240 3243 3246 3249 3252 3255 3258 3261 3264 3267 3270 3273 3276 3279 3282 3285 3288 3291 3294 3297 3300 3303 3306 3309 3312 3315 3318 3321 3324 3327 3330 3333 3336 3339 3342 3345 3348 3351 3354 3357 3360 3363 3366 3369 3372 3375 3378 3381 3384 3387 3390 3393 3396 3399 3402 3405 3408 3411 3414 3417 3420 3423 3426 3429 3432 3435 3438 3441 3444 3447 3450 3453 3456 3459 3462 3465 3468 3471 3474 3477 3480 3483 3486 3489 3492 3495 3498 3501 3504 3507 3510 3513 3516 3519 3522 3525 3528 3531 3534 3537 3540 3543 3546 3549 3552 3555 3558 3561 3564 3567 3570 3573 3576 3579 3582 3585 3588 3591 3594 3597 3600 3603 3606 3609 3612 3615 3618 3621 3624 3627 3630 3633 3636 3639 3642 3645 3648 3651 3654 3657 3660 3663 3666 3669 3672 3675 3678 3681 3684 3687 3690 3693 3696 3699 3702 3705 3708 3711 3714 3717 3720 3723 3726 3729 3732 3735 3738 3741 3744 3747 3750 3753 3756 3759 3762 3765 3768 3771 3774 3777 3780 3783 3786 3789 3792 3795 3798 3801 3804 3807 3810 3813 3816 3819 3822 3825 3828 3831 3834 3837 3840 3843 3846 3849 3852 3855 3858 3861 3864 3867 3870 3873 3876 3879 3882 3885 3888 3891 3894 3897 3900 3903 3906 3909 3912 3915 3918 3921 3924 3927 3930 3933 3936 3939 3942 3945 3948 3951 3954 3957 3960 3963 3966 3969 3972 3975 3978 3981 3984 3987 3990 3993 3996 3999 4002 4005 4008 4011 4014 4017 4020 4023 4026 4029 4032 4035 4038 4041 4044 4047 4050 4053 4056 4059 4062 4065 4068 4071 4074 4077 4080 4083 4086 4089 4092 4095 4098 4101 4104 4107 
        </DataArray>
        <DataArray type="UInt8" Name="types" format="ascii">
          5 5 5 5 5 5 5 5 5 5 5 5 5 5 5 5 5 5 5 5 5 5 5 5 5 5 5 5 5 5 5 5 5 5 5 5 5 5 5 5 5 5 5 5 5 5 5 5 5 5 5 5 5 5 5 5 5 5 5 5 5 5 5 5 5 5 5 5 5 5 5 5 5 5 5 5 5 5 5 5 5 5 5 5 5 5 5 5 5 5 5 5 5 5 5 5 5 5 5 5 5 5 5 5 5 5 5 5 5 5 5 5 5 5 5 5 5 5 5 5 5 5 5 5 5 5 5 5 5 5 5 5 5 5 5 5 5 5 5 5 5 5 5 5 5 5 5 5 5 5 5 5 5 5 5 5 5 5 5 5 5 5 5 5 5 5 5 5 5 5 5 5 5 5 5 5 5 5 5 5 5 5 5 5 5 5 5 5 5 5 5 5 5 5 5 5 5 5 5 5 5 5 5 5 5 5 5 5 5 5 5 5 5 5 5 5 5 5 5 5 5 5 5 5 5 5 5 5 5 5 5 5 5 5 5 5 5 5 5 5 5 5 5 5 5 5 5 5 5 5 5 5 5 5 5 5 5 5 5 5 5 5 5 5 5 5 5 5 5 5 5 5 5 5 5 5 5 5 5 5 5 5 5 5 5 5 5 5 5 5 5 5 5 5 5 5 5 5 5 5 5 5 5 5 5 5 5 5 5 5 5 5 5 5 5 5 5 5 5 5 5 5 5 5 5 5 5 5 5 5 5 5 5 5 5 5 5 5 5 5 5 5 5 5 5 5 5 5 5 5 5 5 5 5 5 5 5 5 5 5 5 5 5 5 5 5 5 5 5 5 5 5 5 5 5 5 5 5 5 5 5 5 5 5 5 5 5 5 5 5 5 5 5 5 5 5 5 5 5 5 5 5 5 5 5 5 5 5 5 5 5 5 5 5 5 5 5 5 5 5 5 5 5 5 5 5 5 5 5 5 5 5 5 5 5 5 5 5 5 5 5 5 5 5 5 5 5 5 5 5 5 5 5 5 5 5 5 5 5 5 5 5 5 5 5 5 5 5 5 5 5 5 5 5 5 5 5 5 5 5 5 5 5 5 5 5 5 5 5 5 5 5 5 5 5 5 5 5 5 5 5 5 5 5 5 5 5 5 5 5 5 5 5 5 5 5 5 5 5 5 5 5 5 5 5 5 5 5 5 5 5 5 5 5 5 5 5 5 5 5 5 5 5 5 5 5 5 5 5 5 5 5 5 5 5 5 5 5 5 5 5 5 5 5 5 5 5 5 5 5 5 5 5 5 5 5 5 5 5 5 5 5 5 5 5 5 5 5 5 5 5 5 5 5 5 5 5 5 5 5 5 5 5 5 5 5 5 5 5 5 5 5 5 5 5 5 5 5 5 5 5 5 5 5 5 5 5 5 5 5 5 5 5 5 5 5 5 5 5 5 5 5 5 5 5 5 5 5 5 5 5 5 5 5 5 5 5 5 5 5 5 5 5 5 5 5 5 5 5 5 5 5 5 5 5 5 5 5 5 5 5 5 5 5 5 5 5 5 5 5 5 5 5 5 5 5 5 5 5 5 5 5 5 5 5 5 5 5 5 5 5 5 5 5 5 5 5 5 5 5 5 5 5 5 5 5 5 5 5 5 5 5 5 5 5 5 5 5 5 5 5 5 5 5 5 5 5 5 5 5 5 5 5 5 5 5 5 5 5 5 5 5 5 5 5 5 5 5 5 5 5 5 5 5 5 5 5 5 5 5 5 5 5 5 5 5 5 5 5 5 5 5 5 5 5 5 5 5 5 5 5 5 5 5 5 5 5 5 5 5 5 5 5 5 5 5 5 5 5 5 5 5 5 5 5 5 5 5 5 5 5 5 5 5 5 5 5 5 5 5 5 5 5 5 5 5 5 5 5 5 5 5 5 5 5 5 5 5 5 5 5 5 5 5 5 5 5 5 5 5 5 5 5 5 5 5 5 5 5 5 5 5 5 5 5 5 5 5 5 5 5 5 5 5 5 5 5 5 5 5 5 5 5 5 5 5 5 5 5 5 5 5 5 5 5 5 5 5 5 5 5 5 5 5 5 5 5 5 5 5 5 5 5 5 5 5 5 5 5 5 5 5 5 5 5 5 5 5 5 5 5 5 5 5 5 5 5 5 5 5 5 5 5 5 5 5 5 5 5 5 5 5 5 5 5 5 5 5 5 5 5 5 5 5 5 5 5 5 5 5 5 5 5 5 5 5 5 5 5 5 5 5 5 5 5 5 5 5 5 5 5 5 5 5 5 5 5 5 5 5 5 5 5 5 5 5 5 5 5 5 5 5 5 5 5 5 5 5 5 5 5 5 5 5 5 5 5 5 5 5 5 5 5 5 5 5 5 5 5 5 5 5 5 5 5 5 5 5 5 5 5 5 5 5 5 5 5 5 5 5 5 5 5 5 5 5 5 5 5 5 5 5 5 5 5 5 5 5 5 5 5 5 5 5 5 5 5 5 5 5 5 5 5 5 5 5 5 5 5 5 5 5 5 5 5 5 5 5 5 5 5 5 5 5 5 5 5 5 5 5 5 5 5 5 5 5 5 5 5 5 5 5 5 5 5 5 5 5 5 5 5 5 5 5 5 5 5 5 5 5 5 5 5 5 5 5 5 5 5 5 5 5 5 5 5 5 5 5 5 5 5 5 5 5 5 5 5 5 5 5 5 5 5 5 5 5 5 5 5 5 5 5 5 5 5 5 5 5 5 5 5 5 5 5 5 5 5 5 5 5 5 5 5 5 5 5 5 5 5 5 5 5 5 5 5 5 5 5 5 5 5 5 5 5 5 5 5 5 5 5 5 5 5 5 5 5 5 5 5 5 5 5 5 5 5 5 5 5 5 5 5 5 5 5 5 5 5 5 5 5 5 5 5 5 5 5 5 5 5 5 5 5 5 5 5 5 5 5 5 5 5 5 5 5 5 5 5 5 5 5 5 5 5 5 5 5 5 5 5 5 5 5 5 5 5 5 5 5 5 5 5 5 5 5 5 5 5 5 5 5 5 5 5 5 5 5 5 5 5 5 5 5 5 5 5 5 5 5 5 
        </DataArray>
      </Cells>
    </Piece>
  </UnstructuredGrid>
</VTKFile>
