<?xml version="1.0"?>
<VTKFile type="UnstructuredGrid" version="0.1" byte_order="LittleEndian">
  <UnstructuredGrid>
    <Piece NumberOfPoints="81" NumberOfCells="128">
      <PointData>
      </PointData>
      <CellData>
        <DataArray type="Float64" Name="eta_H_T" NumberOfComponents="1" format="ascii">
          0 0 0 0 0 0 0 0 0 0 0 0 0 0 0 0 0 0 0 0 0 0 0 0 0 0 0 0 0 0 0 0 0 0 0 0 0 0 0 0 0 0 0 0 0 0 0 0 0 0 0 0 0 0 0 0 0 0 0 0 0 0 0 0 0 0 0 0 0 0 0 0 0 0 0 0 0 0 0 0 0 0 0 0 0 0 0 0 0 0 0 0 0 0 0 0 0 0 0 0 0 0 0 0 0 0 0 0 0 0 0 0 0 0 0 0 0 0 0 0 0 0 0 0 0 0 0 0 
        </DataArray>
        <DataArray type="Int32" Name="eta_H_T_available" NumberOfComponents="1" format="ascii">
          0 0 0 0 0 0 0 0 0 0 0 0 0 0 0 0 0 0 0 0 0 0 0 0 0 0 0 0 0 0 0 0 0 0 0 0 0 0 0 0 0 0 0 0 0 0 0 0 0 0 0 0 0 0 0 0 0 0 0 0 0 0 0 0 0 0 0 0 0 0 0 0 0 0 0 0 0 0 0 0 0 0 0 0 0 0 0 0 0 0 0 0 0 0 0 0 0 0 0 0 0 0 0 0 0 0 0 0 0 0 0 0 0 0 0 0 0 0 0 0 0 0 0 0 0 0 0 0 
        </DataArray>
      </CellData>
      <Points>
        <DataArray type="Float64" NumberOfComponents="3" format="ascii">
          0 0 0 1 0 0 1 1 0 0 1 0 0.5 0.5 0 0.5 0 0 0 0.5 0 1 0.5 0 0.5 1 0 0.25 0.25 0 0.75 0.25 0 0.75 0.75 0 0.25 0.75 0 0.25 0 0 0 0.25 0 0.75 0 0 1 0.25 0 1 0.75 0 0.75 1 0 0 0.75 0 0.25 1 0 0.5 0.25 0 0.25 0.5 0 0.75 0.5 0 0.5 0.75 0 0.125 0.125 0 0.875 0.125 0 0.875 0.875 0 0.125 0.875 0 0.375 0.375 0 0.625 0.375 0 0.625 0.625 0 0.375 0.625 0 0.375 0.125 0 0.625 0.125 0 0.125 0.375 0 0.125 0.625 0 0.875 0.375 0 0.875 0.625 0 0.625 0.875 0 0.375 0.875 0 0.125 0 0 0 0.125 0 0.875 0 0 1 0.125 0 1 0.875 0 0.875 1 0 0 0.875 0 0.125 1 0 0.5 0.375 0 0.375 0.5 0 0.625 0.5 0 0.5 0.625 0 0.375 0 0 0.625 0 0 0.5 0.125 0 0 0.375 0 0 0.625 0 0.125 0.5 0 1 0.375 0 1 0.625 0 0.875 0.5 0 0.625 1 0 0.375 1 0 0.5 0.875 0 0.25 0.125 0 0.125 0.25 0 0.375 0.25 0 0.25 0.375 0 0.75 0.125 0 0.875 0.25 0 0.625 0.25 0 0.75 0.375 0 0.875 0.75 0 0.75 0.875 0 0.75 0.625 0 0.625 0.75 0 0.125 0.75 0 0.25 0.875 0 0.25 0.625 0 0.375 0.75 0 
        </DataArray>
      </Points>
      <Cells>
        <DataArray type="Int32" Name="connectivity" format="ascii">
          67 33 21 76 39 24 79 36 22 72 37 23 69 34 15 78 40 20 66 35 14 73 38 17 65 25 13 74 27 18 77 28 19 70 26 16 71 30 21 80 32 24 68 29 22 75 31 23 49 29 21 52 31 24 50 32 22 51 30 23 43 26 15 48 28 20 42 25 14 45 27 17 53 33 13 62 39 18 57 36 19 59 37 16 55 34 21 64 40 24 58 35 22 61 38 23 55 33 5 64 39 8 58 36 6 61 37 7 54 34 5 63 40 8 56 35 6 60 38 7 41 25 0 46 27 2 47 28 3 44 26 1 49 30 4 52 32 4 50 29 4 51 31 4 67 29 9 76 31 11 79 32 12 72 30 10 69 26 10 78 28 12 66 25 9 73 27 11 65 33 9 74 39 11 77 36 12 70 37 10 71 34 10 80 40 12 68 35 9 75 38 11 67 9 33 76 11 39 79 12 36 72 10 37 69 10 34 78 12 40 66 9 35 73 11 38 65 9 25 74 11 27 77 12 28 70 10 26 71 10 30 80 12 32 68 9 29 75 11 31 49 4 29 52 4 31 50 4 32 51 4 30 43 1 26 48 3 28 42 0 25 45 2 27 53 5 33 62 8 39 57 6 36 59 7 37 55 5 34 64 8 40 58 6 35 61 7 38 55 21 33 64 24 39 58 22 36 61 23 37 54 15 34 63 20 40 56 14 35 60 17 38 41 13 25 46 18 27 47 19 28 44 16 26 49 21 30 52 24 32 50 22 29 51 23 31 67 21 29 76 24 31 79 22 32 72 23 30 69 15 26 78 20 28 66 14 25 73 17 27 65 13 33 74 18 39 77 19 36 70 16 37 71 21 34 80 24 40 68 22 35 75 23 38 
        </DataArray>
        <DataArray type="Int32" Name="offsets" format="ascii">
          3 6 9 12 15 18 21 24 27 30 33 36 39 42 45 48 51 54 57 60 63 66 69 72 75 78 81 84 87 90 93 96 99 102 105 108 111 114 117 120 123 126 129 132 135 138 141 144 147 150 153 156 159 162 165 168 171 174 177 180 183 186 189 192 195 198 201 204 207 210 213 216 219 222 225 228 231 234 237 240 243 246 249 252 255 258 261 264 267 270 273 276 279 282 285 288 291 294 297 300 303 306 309 312 315 318 321 324 327 330 333 336 339 342 345 348 351 354 357 360 363 366 369 372 375 378 381 384 
        </DataArray>
        <DataArray type="UInt8" Name="types" format="ascii">
          5 5 5 5 5 5 5 5 5 5 5 5 5 5 5 5 5 5 5 5 5 5 5 5 5 5 5 5 5 5 5 5 5 5 5 5 5 5 5 5 5 5 5 5 5 5 5 5 5 5 5 5 5 5 5 5 5 5 5 5 5 5 5 5 5 5 5 5 5 5 5 5 5 5 5 5 5 5 5 5 5 5 5 5 5 5 5 5 5 5 5 5 5 5 5 5 5 5 5 5 5 5 5 5 5 5 5 5 5 5 5 5 5 5 5 5 5 5 5 5 5 5 5 5 5 5 5 5 
        </DataArray>
      </Cells>
    </Piece>
  </UnstructuredGrid>
</VTKFile>
