<?xml version="1.0"?>
<VTKFile type="UnstructuredGrid" version="0.1" byte_order="LittleEndian">
  <UnstructuredGrid>
    <Piece NumberOfPoints="526" NumberOfCells="984">
      <PointData>
      </PointData>
      <CellData>
        <DataArray type="Float64" Name="eta_H_T" NumberOfComponents="1" format="ascii">
          0.00021367862310317338 0.00024589098674426298 0.00064329954091580592 0.00034009065854968004 0.00025121201928603046 0.00081565396612371635 0.00015812745634825718 0.0026175871247896688 0.00019649901612817268 0.0086446863536238233 0.00039614493397633228 0.00010919130016177382 0.00022034708751635768 0.00066006537649533723 0.0005893257797061676 0.0001024474902807984 0.00041327309415347682 0.00027921608933407686 0.00052038501930178592 0.00023418005852767523 0.0007075307548936368 0.00019198674355008888 0.00059334427135456793 0.00063759437839016914 0.00062027169981831098 0.0010415005604093347 0.00026404291040837063 0.013348753007399593 0.00071770897774520821 0.00029910384726535781 0.00029476086437715045 0.00039908225143259597 0.0008002067702209258 0.00038702264627520929 0.00057229167800356784 0.0002961161116732592 0.00083864211396599724 0.00072301960846681175 0.00030433975951861195 0.0011881929050848322 0.00011728548153228788 0.00039135885276450654 0.00017562937204792977 0.0010707270779208972 0.00036734512151086478 9.0190504839099116e-05 0.00023738172351690177 0.00054183022573563134 0.00051568790307782641 0.00012489819271731473 0.0030789551708790175 0.00020901390306857283 0.0005631861458136085 0.00017721759305471059 0.0081476095548565219 0.00022377990238840417 0.0038806750550465412 0.00070104544963313993 0.00020673149354446187 0.00021917166452946644 0.00055497615808309966 0.00020518174177861349 0.00023926384914689102 0.00070423513851379017 0.00013328295979632827 0.00021055494616145483 0.00053710331951537286 0.00016196851387447787 0.00022552208225849017 0.0006998895403227801 0.00014532676311032188 0.00021186687660706743 0.00049068282419151526 0.00012628179229248155 0.00022885926281534082 0.00068992700593732388 9.0939593794685938e-05 0.00027644985316044372 0.00028723784036208474 0.0004902854770694404 0.00021910272445798263 0.00016165614294843958 0.00017760335810978738 0.00041297164748489538 0.00059864908159226596 0.010649591976816268 0.0007784876413001379 0.00048245916519680087 0.001448398561744128 0.00091295190798607636 0.00072646061593191155 0.00049250230292240496 0.00067333535631962154 0.00096305061294281078 0.00025896031663804161 0.00031642517851204174 0.00034959951333542221 0.00072416677175603727 0.00073687335589728373 0.00092236388099068973 0.00025873180675029602 0.00076178419674057158 0.0013048831564872946 0.0004137076559035696 0.00043240705561679578 0.00019376802403378793 0.001259500361848972 0.00049799721146433326 0.00011062228885487955 0.00026918361456733402 0.00048600650053387832 0.00054781829211334571 0.00012210274492909575 0.00036110211064416963 0.00030788390784945881 0.00055931635254686683 0.00033048265422968898 0.005210089501051382 0.00020819654186069529 0.00069297075720605198 0.00092812034233902068 0.00046201948551327431 0.0026353901946944555 0.00023286871097390852 0.0086311068250948843 0.00061702027039367915 0.00015210582855777958 0.00028332090416049202 0.0005781173474366353 0.00069367190829880052 0.00015758686762208115 0.00034328669261717861 0.00032919929370068532 0.00062523628243848464 0.00039684047720245624 0.0052242058346046874 0.00023761950295474437 0.00076300799278101463 0.0010164656768648849 0.00041568676891399722 0.0026141129721832385 0.00020349352408618101 0.0086236147694532337 0.00049719889407821112 0.00012062067639832677 0.00025003097163903918 0.00059182575558217379 0.00059687474242796443 0.00011142521733648867 0.00032968515978936785 0.00036136934981610556 0.00053936698687751699 0.00034407113819435038 0.00063664064140188544 0.00019538137322460373 0.00057922013112171817 0.00090317860917268379 0.00071412209671511755 0.00082158658922573647 0.00025693444304535805 0.0015591048218133003 0.00072412358878328083 0.00025601650787600137 0.00030691470525499593 0.00044521522826091668 0.00076186696969976139 0.00071385569471811182 0.0006793159063601923 0.00048533821303145433 0.00091914954018350054 0.00093779904689625653 0.00048739103266731432 0.00077470999335644576 0.00083882529460019262 0.0012313983743992836 0.0001136266278244386 0.00027297894822692748 0.00017486941100389457 0.0006056600075879311 0.00032906848113295299 8.8023764348529518e-05 0.00023188538281972796 0.0004001077665928714 0.00050239779406436788 0.00013026590878517671 0.00020970026624140439 0.00056497044088429558 0.00016921569321502497 0.00023067640597985718 0.00071276814814350985 0.00014615927939314093 0.00020882342705222796 0.00051670245944129627 0.00013267811684158706 0.00022895835280228787 0.00068645969433959986 0.0001978376173594681 0.00022082205551038814 0.00057401836232164722 0.00022523291046688254 0.00023597769338828305 0.00071733227099995489 0.00014119997722675143 0.0040128501428546336 0.00020691898591102356 0.010976642370834244 0.00044806205144307598 0.00011788930760501631 0.00022483737611572963 0.0038753738429324696 0.00065717220937611587 9.6760893664281602e-05 0.00039378771790712572 0.00027918557779305878 0.00049269536655810616 0.00021196668717676038 0.00051967032089125309 0.00018246122309817904 0.00055139763352700225 0.00060410072354079422 0.00063848747488656971 0.010654043325263337 0.00029137332864611818 0.013346146593823717 0.00083184488000662322 0.00041356417684338542 0.00031245989964027033 0.00056077795443299037 0.00090715318789621091 0.00029645468240121196 0.0003221602365932452 0.0002725986465729448 0.00073981849380814395 0.0007079277041603944 0.00027126849849102956 0.0011553393320982391 0.00015284903386753029 0.00045293662500966688 0.00018640894863789496 0.0013964997751864112 0.00039714643529656455 9.8034092272643224e-05 0.0002418618832096418 0.00056712511391994187 0.00053958344827451511 0.0001139692481574322 0.00043874489179649903 0.00020534438942701691 0.0005410347530489327 0.00021371508234181743 0.0052192260989347445 0.00020501421594267048 0.00070481907919362657 0.00067245993274777608 0.00029703302438054239 0.00024068898409471142 0.00060947946559370043 0.00021692128117168323 0.00027010750748715327 0.00073557481737129089 0.00036348939987298969 0.00080281471282238098 0.062634559465288175 0.0030922217757417504 0.0054004182771404769 0.005700968125742392 0.09005916423630711 0.087812410442712027 0.078064579642061094 0.088535765530537186 0.10462645717848441 0.088703488255675159 0.027679518672948447 0.00071731436055534538 0.000342560160817943 0.00070563877715305531 0.027745789613788173 0.024775112342328442 0.093924436570652386 0.097079946860902988 0.086774697582964314 0.10117088919026494 0.078452611007972656 0.004343780486725045 0.030952153085384605 0.0042455821233713239 0.0003543275074376431 0.079304968194318454 0.065932289965490457 0.00081004260331834035 0.00076227201323321632 0.08598608229157563 0.066531715794262342 0.049457170887954156 0.00032611219978548892 0.084036018461716835 0.00059106909306687436 0.00025940125049351323 0.077152461860517219 0.047228365872734393 0.0005304214631224397 0.00027207422485997778 0.068249455879211357 0.027649793091913438 0.047633738708640939 0.00076306235649296352 0.088661333251461305 0.00079240570108977568 0.065987270015937807 0.05612460373294522 0.00080062145947434437 0.081257270530243689 0.00075826535979253902 0.054629643863405505 0.065683731155567512 0.047488192454980531 0.00031428314944011691 0.076342270044643459 0.00051303106172505134 0.00028833233072814277 0.077191125970879224 0.00060252797168311716 0.08149921149680267 0.069633839168951814 0.0041492808009535856 0.093014484612640239 0.00075331482017926613 0.0044604937130590366 0.02477544210238123 0.068424560350443558 0.050034076317852831 0.049034547853490422 0.093207404078645764 0.05997048866300566 0.042662884181137707 0.086212521075126072 0.055305551391032569 0.039754841933769026 0.08733792898082271 0.00026720884826512108 0.079627707255438704 0.047196711307919616 0.023814356558227903 0.098355802543273099 0.090940809145540633 0.093407330656878895 0.091239841319816134 0.049501558386570638 0.03557439247418314 0.077663854948372274 0.041352620565585529 0.00039165457932419112 0.059140433558501918 0.0007540502387306889 0.093140942599380966 0.059742115641685786 0.060141422239579058 0.0057060050669934829 0.049714910793518578 0.040870105452731814 0.060022587931317622 0.067347373722379963 0.092933924277487423 0.059024907435006484 0.063409374565761692 0.038210372928677197 0.059847864444654543 0.077707831457377585 0.00040893354576640998 0.040937129371249541 0.049340669483791469 0.098378583066076428 0.093483258926333856 0.091215277952257853 0.04855403851925303 0.023798319110319033 0.04741115726968903 0.041644159025681443 0.087332975970170756 0.0002335896459479114 0.088765858490774882 0.054499012466192535 0.024530072453011819 0.00078246183318516228 0.093313820469238778 0.081736102914464939 0.067578520675348031 0.059140894960787956 0.056182931429334608 0.033264876738047712 0.066003974078565619 0.062879020085220311 0.051844220535603461 0.022959295012268347 0.062707537998414414 0.040389444181724472 0.0090016831345951006 0.00082798266143685809 0.09278127232778903 0.061645338999126456 0.0024556601634142367 0.0097793894251931371 0.00083785006418061504 0.093851018528817429 0.030894245357063352 0.040065503818787256 0.081555971385627049 0.070371511360914393 0.045381638608697865 0.021407322228410651 0.00099772882866697166 0.054957591562492213 0.092394129009019235 0.017037740946976139 0.0012857122345692018 0.0097449269470953545 0.06964669664770072 0.038518303643642497 0.053064049740596649 0.070101738849154285 0.05867150751965549 0.043861793777182578 0.086635138154566499 0.055698592014114881 0.016455925173544588 0.0037565405258208951 0.0032024723026116029 0.017985651278641445 0.073361152874761817 0.030960735735612803 0.050226858511126626 0.075029141870313884 0.0014273588352838268 0.06516110116022894 0.039926968085518925 0.03166645857018615 0.058121810715253401 0.055398959041979411 0.014652597189175727 0.066318808210763219 0.079928603420501051 0.05274400993995939 0.091807205583170556 0.009139435381336514 0.088103821573915928 0.011365977295591037 0.075820666609563755 0.072341270952758455 0.026636979495629723 0.018860081060297108 0.050778607354323213 0.1023235569744652 0.073717411107154338 0.022385024823081082 0.060099017951499224 0.035543899049624718 0.090496376828967676 0.017946987497997422 0.023003710591799599 0.058381077347475489 0.023921094084898249 0.041781152787141736 0.059154732344032207 0.033454543001255742 0.022809983162680698 0.07260980376396961 0.041855002811320589 0.040828838699017357 0.010817679407517111 0.04006973651852367 0.090278801782463031 0.04254315262282643 0.035760576443667459 0.063663411638754441 0.017981060378553671 0.0037529107997306354 0.032427219174744129 0.013409661850139578 0.019088380289707128 0.10633879934505928 0.041336013102042012 0.070832811076914221 0.067328990908379946 0.055183350842491499 0.038421840792284001 0.070165821043590593 0.0010377653641821894 0.016480860521692058 0.00092685252096942009 0.098752635796990382 0.055127150510347576 0.0019713098090816954 0.0097407446875832932 0.022314807375121849 0.042400813317622819 0.07619004054964737 0.06910749171446802 0.041006935026536108 0.0015760589611699474 0.073947325385908105 0.074715479980722282 0.074779913825654576 0.0014379390676931517 0.00084317643728695128 0.0040550738665566695 0.014834495913173576 0.080892285706683928 0.0088455824365590765 0.073725216632002835 0.077591611183631795 0.0039245709519383429 0.078449938320188581 0.013425945431034467 0.031855049868909649 0.059691197214353536 0.035923942607888407 0.053442777088986128 0.049990216647532539 0.011417619124167791 0.057327741204482925 0.078454432983789804 0.042166650240066099 0.094297746929124862 0.080149647530194323 0.0014166003364783385 0.069693024788041569 0.020977112182677959 0.056111405857563398 0.10003303570814941 0.014605625019574202 0.06429546186607038 0.048734825028286889 0.091777327315161472 0.015030583161087021 0.031070160502656038 0.046096711915108987 0.066738177774888469 0.038266619059359491 0.019623939712209226 0.083209802821081133 0.035016796747436872 0.021389960965903527 0.029383520929497923 0.074823248586369545 0.0097973306753824062 0.03705568377065864 0.080613735606261422 0.037640187348721446 0.044489160997718276 0.060831442251731829 0.051391019811062297 0.00093267310953376354 0.0044322688245281771 0.061095659743857521 0.083795569637523229 0.024290785316806895 0.042366033915129275 0.076635970444176818 0.03133868510974492 0.026305555119856463 0.027547869409189428 0.022794112930012333 0.077302346490264753 0.0037647518724378214 0.0044131313664031255 0.094774617180843276 0.078548465590969938 0.015764428049062432 0.084906339396966693 0.086820494487932984 0.060695820177212506 0.034873820103526687 0.036873824776026971 0.0064079464300307847 0.028584817368203171 0.061610838148818979 0.043114295022392467 0.070102829228454899 0.015359370621082195 0.039790409542241466 0.033194675032747228 0.050120059895388681 0.0017697963133574723 0.074480346898133168 0.0055859243200411636 0.042762639720955765 0.084868768801708683 0.038208905715408262 0.034125119672949719 0.033081931790637183 0.078902709592132858 0.042257732448675978 0.032069344274789836 0.031485634723451422 0.023250937264273585 0.063774830888628342 0.00089914000516529873 0.030938829599629666 0.091240489140376635 0.079773592178462971 0.082947270971234971 0.081849780897007424 0.042986085274511816 0.047117804710020292 0.01171484987274986 0.030125250036256122 0.066067477163371774 0.038465573102656705 0.062926184151078021 0.019264126970333157 0.045923217411497304 0.027509248694183319 0.00070264806185924619 0.00048488838816487237 0.0059574019825750484 0.03389277818361016 0.047258277361219653 0.00077541647231753157 0.024529699438029597 0.0027989048379498446 0.055488396701338143 0.073763815599514851 0.027645396443523245 0.00029458392877026535 0.027369290909531826 0.00032579706860441849 0.00065238581091397096 0.046122143274220193 0.00016875890270111996 0.0022953829763209558 0.05855821786129168 0.020917055124010084 0.0029078057134688264 0.00011908734601831764 0.00027542989554208352 0.008710225009610887 0.00075201931472856508 0.071500779050744173 0.016533903813649747 0.024126255010713752 0.0007096824211415433 0.0083245830752727134 0.0013763487822253593 5.1979875227929009e-05 1.9557208470881241e-19 0.048660046256362208 0.00023113362443972149 0.00040533764907393319 4.234117314164155e-18 0.030867256595071758 0.00017822868831085363 9.3158026576529055e-05 1.6272444071606115e-19 0.047654280122654949 0.0001958677163756992 0.021698815868454634 0.00010750343253322667 2.4821389632665666e-19 6.9463500282579275e-05 0.00075988828225183542 0.0084325546932477215 0.012328639133369748 0.00045719305334217421 0.042568092610418412 0.022810515355027396 0.093054332041792212 0.049631382557482479 0.013913943228349218 0.0094350029449813948 0.00047727409429770541 0.0001508072788855536 0.0031700732614355865 0.061253255869923862 0.0043908792061859115 0.00020702736998913014 0.0003725556891996534 0.0083009776706284896 0.070469528149337476 0.0087670111557788359 0.00037525959632614213 0.00052881667718640123 0.0087057572704673219 0.00068350873621403612 0.084404964485320338 0.084884611928628506 0.010123030482360613 0.031777763327375141 0.057058951181401717 0.0016044556355682528 0.009527517547656102 0.0027933195213015391 0.0020638770236658037 1.9582231735964466e-19 3.1698589105793889e-21 0.03619858884952569 0.00015767151749175828 0.00015404386130089459 4.7109014215747109e-21 0.021804553262854406 7.9429557276491041e-05 0.00017835826876052145 2.5118504491310868e-18 0.043641940972950398 0.00018882223942856452 0.03794693016268668 0.0004429211885173006 3.5620776813397872e-20 7.9373779466334617e-20 0.00071278020320578986 0.0027800514540830645 0.0007718467547817129 0.044201363540070641 0.035674418644584684 0.0040729628014872571 0.033690163837571063 0.0036868256612369184 9.6729613408607303e-05 8.0542187310532823e-05 0.0023559566451271312 0.055663841371409263 0.040089984569415565 0.031135041012396211 0.00023766082024074566 0.073242332401279586 0.083088868493372256 0.083808308151261862 0.1050323465256095 0.10950468791986238 0.092457286680771814 0.083775674897103497 0.098954624148037254 0.015630217108384397 0.053693366261295963 0.074848701623086031 0.049812355433727779 0.051812257599353859 0.020930309075729413 0.064632479989600464 0.038932561227453477 0.047927992264945221 0.035353093513848313 0.0021364945903418159 0.038780614922760338 0.089175857924891619 0.048892445603271176 0.096259942354336797 0.080827857173061249 0.074532965782192609 0.090942654044392918 0.083892424109460989 0.098988469737847196 0.010954653075013294 0.021667921134937724 0.051233810413536668 0.056415009784748213 0.059041525417707096 0.093641067420136101 0.027727727818686734 0.064872852832450853 0.078492339481208831 0.046456003316365388 0.047347889588612441 0.042302253737417382 0.035782518728602462 0.044014811789262823 0.083705720766315522 0.07606391397555462 0.099693544338962242 0.042497924032680913 0.081587678413210976 0.077907463683363473 0.072515627636707838 0.098295185457470582 0.075095483105076452 0.040044239198777233 0.043867419365185928 0.00060902391125031315 0.024833989121026263 0.00030413354624985671 0.031559194160717605 0.00028123565299766962 0.0026470089704734214 0.00074641038984866689 0.0027906494582717735 0.067016858293396916 0.043675811755675156 0.0041254771302301823 0.056265978358528354 0.043714675782766284 0.00025509091344165627 0.033248188629602438 0.062106867599533981 0.00019751897643594186 0.0022953829763209558 0.054328075041051575 0.0209190767947629 0.0029078057134688264 9.6729613408607303e-05 8.0542187310532823e-05 0.003383955605833675 0.00080960907030830278 0.059116196811430433 0.022509022359614377 0.0088069812707875037 0.00076842830763497818 0.0023760061041914809 0.0013520585264014614 2.6478360452477694e-20 1.3342103332585501e-19 0.044289928559772207 0.00034532571339303297 0.0001765378647794683 4.2714776157871973e-18 0.037829762259555942 0.00020896641323643267 7.7307894078950466e-05 3.1698589105793889e-21 0.036264333575506041 0.00014004418585170607 0.021695442862841096 0.00010750343253322667 2.0236769584105719e-19 3.7659538043921405e-21 0.0017145208450417893 0.0030203709356330828 0.009527517547656102 0.0016044556355682528 0.03215142532021089 0.0086570759229136207 0.097083720500784704 0.060795081775240081 0.013722957643928868 0.0093930688147444118 0.00052351657110990559 0.00036346416740556383 0.0083179311727140069 0.07833095243013638 0.0090633084334581678 0.00038805657411055978 0.0001715644949634806 0.0031253185081098886 0.050815132034113024 0.0037412224003489061 0.00018191259398142554 0.00048678166403466649 0.0090038024921115355 0.00064877203495675661 0.076755652536326172 0.080244982819759489 0.016870959582431823 0.025981362219505692 0.063514189503524693 0.00046057177500098722 0.012359568305029593 0.0083080916104750109 0.0013763487822253593 5.1979875227929009e-05 1.6272444071606115e-19 0.047604268285836478 0.00020883509225108214 0.00041243010256345933 2.4475858741969991e-18 0.021804553262854406 0.00010551887243828595 0.00014586806786899702 1.6563774738265624e-19 0.048807214152324405 0.00019411066955420629 0.029841073763502687 0.00033406630318912593 2.4427912291298923e-19 6.9463500282579275e-05 0.00075988828225183542 0.008493853675637885 0.00071120574791434853 0.05976116814635609 0.032239386367648087 0.02282766496425527 0.047811624956416644 0.0087889681889466859 0.00027500969006294461 9.5859018175005437e-05 0.0023559566451271312 0.059200215929192335 0.040089984569415565 0.022160491780081767 0.00021114253231789153 0.076152807409770887 0.084431874481451272 0.085539665155159345 0.099070643258413665 0.10692646949239897 0.1069828657990497 0.022653838054046121 0.099232691084818136 0.083313425302552951 0.028550014800697257 0.055193350967777395 0.076590981197849045 0.04386852558017227 0.058428503613012488 0.048426798424052592 0.030201833796027547 0.064970880918537685 0.047646868203639878 0.05168311744401087 0.018457845807634873 0.0023601589346609929 0.044674791982332908 0.095620661375778238 0.057351199051937689 0.080232245553707865 0.096871220183416901 0.10616881674666641 0.082126347923682536 0.1049548407748806 0.010908651746737446 0.03713014887460539 0.049276501530928725 0.058668934078650634 0.087049826319652593 0.014072214883321457 0.063601561490566019 0.046554496964418587 0.036182915414538538 0.046139309739123995 0.028395698968778266 0.038018452256331201 0.080651131016059405 0.072284211364484527 0.091942102907314666 0.041992662237047444 0.071949880336855218 0.073412468886570076 0.077062951936054475 0.10536050957246616 0.09997040153283282 0.078366921195257067 0.023044850169056514 0.042184937344781431 0.00033964443511589194 0.00023081726601508425 0.020650545009445305 0.043101774666821538 0.038483581541046516 0.025231343474496154 0.0006551813062452064 0.024939036510704192 0.046975793842809109 0.11486983358786174 0.11056211794795236 0.0004252117253983675 0.004948500285261657 0.014092536394333994 0.029239965286311551 0.00080406684238210925 0.00039579010920337928 0.00027194430704126349 0.078923987574560789 0.093611655868504465 0.048773400403219723 0.062867709507328812 0.0005767112146757231 0.0002263879333328392 0.031239795687554327 0.026586437103508193 0.042611983144837162 0.021318235443928128 0.00068698852514673234 0.041163473077193813 0.048492337024936799 0.11222032880152602 0.10904973281315108 0.00062078588089327282 0.023955863081831858 0.014120521266543659 0.036060369065936564 0.00074812469677247118 0.00030136807156608015 0.00045506779515588902 0.082399682107181238 0.10123534269359044 0.049209089122087608 0.073702868920196243 
        </DataArray>
        <DataArray type="Int32" Name="eta_H_T_available" NumberOfComponents="1" format="ascii">
          1 1 1 1 1 1 1 1 1 1 1 1 1 1 1 1 1 1 1 1 1 1 1 1 1 1 1 1 1 1 1 1 1 1 1 1 1 1 1 1 1 1 1 1 1 1 1 1 1 1 1 1 1 1 1 1 1 1 1 1 1 1 1 1 1 1 1 1 1 1 1 1 1 1 1 1 1 1 1 1 1 1 1 1 1 1 1 1 1 1 1 1 1 1 1 1 1 1 1 1 1 1 1 1 1 1 1 1 1 1 1 1 1 1 1 1 1 1 1 1 1 1 1 1 1 1 1 1 1 1 1 1 1 1 1 1 1 1 1 1 1 1 1 1 1 1 1 1 1 1 1 1 1 1 1 1 1 1 1 1 1 1 1 1 1 1 1 1 1 1 1 1 1 1 1 1 1 1 1 1 1 1 1 1 1 1 1 1 1 1 1 1 1 1 1 1 1 1 1 1 1 1 1 1 1 1 1 1 1 1 1 1 1 1 1 1 1 1 1 1 1 1 1 1 1 1 1 1 1 1 1 1 1 1 1 1 1 1 1 1 1 1 1 1 1 1 1 1 1 1 1 1 1 1 1 1 1 1 1 1 1 1 1 1 1 1 1 1 1 1 1 1 1 1 1 1 1 1 1 1 1 1 1 1 1 1 1 1 1 1 1 1 1 1 1 1 1 1 1 1 1 1 1 1 1 1 1 1 1 1 1 1 1 1 1 1 1 1 1 1 1 1 1 1 1 1 1 1 1 1 1 1 1 1 1 1 1 1 1 1 1 1 1 1 1 1 1 1 1 1 1 1 1 1 1 1 1 1 1 1 1 1 1 1 1 1 1 1 1 1 1 1 1 1 1 1 1 1 1 1 1 1 1 1 1 1 1 1 1 1 1 1 1 1 1 1 1 1 1 1 1 1 1 1 1 1 1 1 1 1 1 1 1 1 1 1 1 1 1 1 1 1 1 1 1 1 1 1 1 1 1 1 1 1 1 1 1 1 1 1 1 1 1 1 1 1 1 1 1 1 1 1 1 1 1 1 1 1 1 1 1 1 1 1 1 1 1 1 1 1 1 1 1 1 1 1 1 1 1 1 1 1 1 1 1 1 1 1 1 1 1 1 1 1 1 1 1 1 1 1 1 1 1 1 1 1 1 1 1 1 1 1 1 1 1 1 1 1 1 1 1 1 1 1 1 1 1 1 1 1 1 1 1 1 1 1 1 1 1 1 1 1 1 1 1 1 1 1 1 1 1 1 1 1 1 1 1 1 1 1 1 1 1 1 1 1 1 1 1 1 1 1 1 1 1 1 1 1 1 1 1 1 1 1 1 1 1 1 1 1 1 1 1 1 1 1 1 1 1 1 1 1 1 1 1 1 1 1 1 1 1 1 1 1 1 1 1 1 1 1 1 1 1 1 1 1 1 1 1 1 1 1 1 1 1 1 1 1 1 1 1 1 1 1 1 1 1 1 1 1 1 1 1 1 1 1 1 1 1 1 1 1 1 1 1 1 1 1 1 1 1 1 1 1 1 1 1 1 1 1 1 1 1 1 1 1 1 1 1 1 1 1 1 1 1 1 1 1 1 1 1 1 1 1 1 1 1 1 1 1 1 1 1 1 1 1 1 1 1 1 1 1 1 1 1 1 1 1 1 1 1 1 1 1 1 1 1 1 1 1 1 1 1 1 1 1 1 1 1 1 1 1 1 1 1 1 1 1 1 1 1 1 1 1 1 1 1 1 1 1 1 1 1 1 1 1 1 1 1 1 1 1 1 1 1 1 1 1 1 1 1 1 1 1 1 1 1 1 1 1 1 1 1 1 1 1 1 1 1 1 1 1 1 1 1 1 1 1 1 1 1 1 1 1 1 1 1 1 1 1 1 1 1 1 1 1 1 1 1 1 1 1 1 1 1 1 1 1 1 1 1 1 1 1 1 1 1 1 1 1 1 1 1 1 1 1 1 1 1 1 1 1 1 1 1 1 1 1 1 1 1 1 1 1 1 1 1 1 1 1 1 1 1 1 1 1 1 1 1 1 1 1 1 1 1 1 1 1 1 1 1 1 1 1 1 1 1 1 1 1 1 1 1 1 1 1 1 1 1 1 1 1 1 1 1 1 1 1 1 1 1 1 1 1 1 1 1 1 1 1 1 1 1 1 1 1 1 1 1 1 1 1 1 1 1 1 1 1 1 1 1 1 1 1 1 1 1 1 1 1 1 1 1 1 
        </DataArray>
      </CellData>
      <Points>
        <DataArray type="Float64" NumberOfComponents="3" format="ascii">
          -1 -1 0 0 -1 0 -1 0 0 0 0 0 1 0 0 -1 1 0 0 1 0 1 1 0 -0.5 -0.5 0 -0.5 0.5 0 0.5 0.5 0 -0.5 -1 0 -1 -0.5 0 0 -0.5 0 -0.5 0 0 -1 0.5 0 0.5 0 0 0 0.5 0 1 0.5 0 -0.5 1 0 0.5 1 0 -0.75 -0.75 0 -0.25 -0.75 0 -0.75 -0.25 0 -0.75 0.25 0 -0.25 -0.25 0 -0.25 0.25 0 0.25 0.25 0 0.75 0.25 0 -0.75 0.75 0 -0.25 0.75 0 0.25 0.75 0 0.75 0.75 0 -0.75 -1 0 -1 -0.75 0 -0.25 -1 0 0 -0.75 0 -1 -0.25 0 -0.75 0 0 -1 0.25 0 0 -0.25 0 -0.25 0 0 0.25 0 0 0 0.25 0 0.75 0 0 1 0.25 0 -1 0.75 0 -0.75 1 0 0 0.75 0 -0.25 1 0 0.25 1 0 1 0.75 0 0.75 1 0 -0.5 -0.75 0 -0.75 -0.5 0 -0.25 -0.5 0 -0.5 -0.25 0 -0.5 0.25 0 -0.75 0.5 0 -0.25 0.5 0 -0.5 0.75 0 0.5 0.25 0 0.25 0.5 0 0.75 0.5 0 0.5 0.75 0 -0.875 -0.875 0 -0.125 -0.875 0 -0.875 -0.125 0 -0.875 0.125 0 -0.125 -0.125 0 -0.125 0.125 0 0.125 0.125 0 0.875 0.125 0 -0.875 0.875 0 -0.125 0.875 0 0.125 0.875 0 0.875 0.875 0 -0.625 -0.625 0 -0.375 -0.625 0 -0.625 -0.375 0 -0.375 -0.375 0 -0.625 0.375 0 -0.375 0.375 0 -0.625 0.625 0 -0.375 0.625 0 0.375 0.375 0 0.625 0.375 0 0.375 0.625 0 0.625 0.625 0 -0.625 -0.875 0 -0.375 -0.875 0 -0.875 -0.625 0 -0.875 -0.375 0 -0.125 -0.625 0 -0.125 -0.375 0 -0.625 -0.125 0 -0.625 0.125 0 -0.375 -0.125 0 -0.375 0.125 0 -0.875 0.375 0 -0.875 0.625 0 0.375 0.125 0 0.625 0.125 0 -0.125 0.375 0 0.125 0.375 0 -0.125 0.625 0 0.125 0.625 0 0.875 0.375 0 0.875 0.625 0 -0.625 0.875 0 -0.375 0.875 0 0.375 0.875 0 0.625 0.875 0 -0.875 -1 0 -1 -0.875 0 -0.125 -1 0 0 -0.875 0 -1 -0.125 0 -0.875 0 0 -1 0.125 0 0 -0.125 0 -0.125 0 0 0.125 0 0 0 0.125 0 0.875 0 0 1 0.125 0 -1 0.875 0 -0.875 1 0 0 0.875 0 -0.125 1 0 0.125 1 0 1 0.875 0 0.875 1 0 -0.5 -0.625 0 -0.625 -0.5 0 -0.375 -0.5 0 -0.5 -0.375 0 -0.5 0.375 0 -0.625 0.5 0 -0.375 0.5 0 -0.5 0.625 0 0.5 0.375 0 0.375 0.5 0 0.625 0.5 0 0.5 0.625 0 -0.625 -1 0 -0.375 -1 0 -0.5 -0.875 0 -1 -0.625 0 -1 -0.375 0 -0.875 -0.5 0 0 -0.625 0 0 -0.375 0 -0.125 -0.5 0 -0.625 0 0 -0.375 0 0 -0.5 -0.125 0 -0.5 0.125 0 -1 0.375 0 -1 0.625 0 -0.875 0.5 0 0.375 0 0 0.625 0 0 0.5 0.125 0 0 0.375 0 0 0.625 0 -0.125 0.5 0 0.125 0.5 0 1 0.375 0 1 0.625 0 0.875 0.5 0 -0.625 1 0 -0.375 1 0 -0.5 0.875 0 0.375 1 0 0.625 1 0 0.5 0.875 0 -0.75 -0.875 0 -0.875 -0.75 0 -0.625 -0.75 0 -0.75 -0.625 0 -0.25 -0.875 0 -0.125 -0.75 0 -0.375 -0.75 0 -0.25 -0.625 0 -0.875 -0.25 0 -0.75 -0.125 0 -0.75 -0.375 0 -0.625 -0.25 0 -0.75 0.125 0 -0.875 0.25 0 -0.625 0.25 0 -0.75 0.375 0 -0.125 -0.25 0 -0.25 -0.125 0 -0.25 -0.375 0 -0.375 -0.25 0 -0.25 0.125 0 -0.125 0.25 0 -0.375 0.25 0 -0.25 0.375 0 0.25 0.125 0 0.125 0.25 0 0.375 0.25 0 0.25 0.375 0 0.75 0.125 0 0.875 0.25 0 0.625 0.25 0 0.75 0.375 0 -0.875 0.75 0 -0.75 0.875 0 -0.75 0.625 0 -0.625 0.75 0 -0.125 0.75 0 -0.25 0.875 0 -0.25 0.625 0 -0.375 0.75 0 0.125 0.75 0 0.25 0.875 0 0.25 0.625 0 0.375 0.75 0 0.875 0.75 0 0.75 0.875 0 0.75 0.625 0 0.625 0.75 0 -0.0625 -0.0625 0 -0.0625 0.0625 0 0.0625 0.0625 0 -0.5625 -0.0625 0 -0.5625 0.0625 0 -0.4375 -0.0625 0 -0.4375 0.0625 0 -0.0625 0.4375 0 0.0625 0.4375 0 -0.0625 0.5625 0 -0.1875 0.1875 0 -0.3125 0.3125 0 -0.3125 0.1875 0 -0.1875 0.3125 0 -0.1875 -0.0625 0 -0.1875 0.0625 0 -0.3125 -0.0625 0 -0.3125 0.0625 0 -0.0625 0.1875 0 0.0625 0.1875 0 -0.0625 0.3125 0 0.0625 0.3125 0 -0.4375 0.3125 0 -0.5625 0.1875 0 -0.4375 0.1875 0 -0.3125 0.4375 0 -0.1875 0.4375 0 -0.4375 0 0 -0.5 -0.0625 0 -0.5 0.0625 0 -0.3125 -0.1875 0 -0.25 0.1875 0 -0.1875 0.25 0 -0.3125 0.25 0 -0.25 0.3125 0 -0.1875 0 0 -0.3125 0 0 -0.25 -0.0625 0 -0.25 0.0625 0 0 0.3125 0 -0.0625 0.25 0 0.0625 0.25 0 -0.4375 -0.1875 0 -0.5 0.1875 0 -0.4375 0.25 0 -0.25 0.4375 0 -0.125 0.0625 0 -0.1875 0.125 0 -0.125 0.1875 0 -0.375 0.3125 0 -0.3125 0.375 0 -0.375 -0.0625 0 -0.4375 -0.125 0 -0.3125 -0.125 0 -0.375 0.0625 0 -0.4375 0.125 0 -0.3125 0.125 0 -0.375 0.1875 0 -0.0625 0.375 0 -0.125 0.4375 0 -0.125 0.3125 0 -0.1875 0.375 0 0.0625 0.375 0 0.0625 0.5625 0 0 0.4375 0 0.0625 0.5 0 -0.1875 -0.1875 0 -0.25 -0.1875 0 -0.21875 0.21875 0 -0.28125 0.28125 0 -0.28125 0.21875 0 -0.21875 0.28125 0 0.1875 0.1875 0 0.3125 0.3125 0 0.1875 0.3125 0 -0.28125 -0.03125 0 -0.28125 0.03125 0 0.3125 0.0625 0 0 0.1875 0 0.03125 0.21875 0 -0.03125 0.28125 0 0.03125 0.28125 0 0.3125 0.4375 0 0.1875 0.4375 0 0.125 0.1875 0 -0.375 -0.1875 0 -0.40625 -0.09375 0 -0.34375 -0.09375 0 -0.34375 -0.15625 0 -0.40625 -0.15625 0 -0.40625 0.09375 0 -0.34375 0.15625 0 -0.34375 0.09375 0 -0.40625 0.15625 0 -0.09375 0.40625 0 -0.15625 0.34375 0 -0.09375 0.34375 0 -0.15625 0.40625 0 0.125 0.4375 0 0.125 0.3125 0 0.09375 0.40625 0 0.09375 0.34375 0 -0.40625 -0.03125 0 -0.40625 0.03125 0 -0.34375 -0.03125 0 -0.34375 0.03125 0 -0.03125 0.40625 0 0.03125 0.40625 0 -0.03125 0.34375 0 0.03125 0.34375 0 -0.28125 -0.09375 0 -0.28125 -0.15625 0 -0.21875 0.15625 0 -0.28125 0.15625 0 -0.28125 0.09375 0 -0.15625 0.28125 0 -0.09375 0.28125 0 -0.34375 0.28125 0 -0.34375 0.21875 0 -0.40625 0.21875 0 -0.21875 0.34375 0 -0.21875 0.40625 0 0.09375 0.21875 0 0.09375 0.28125 0 -0.4375 -0.5625 0 -0.4375 -0.4375 0 0.4375 0.4375 0 -0.0625 -0.5625 0 -0.0625 -0.4375 0 0.4375 0.0625 0 0.5625 0.0625 0 -0.3125 -0.3125 0 -0.1875 -0.3125 0 -0.1875 -0.25 0 -0.3125 -0.25 0 -0.28125 -0.21875 0 -0.21875 -0.21875 0 0.3125 0.1875 0 0.25 0.1875 0 0.1875 0.25 0 0.3125 0.25 0 0.25 0.3125 0 -0.0625 -0.1875 0 -0.0625 -0.3125 0 0.1875 0.0625 0 0.3125 0 0 0.25 0.0625 0 -0.3125 -0.5625 0 -0.3125 -0.4375 0 -0.1875 -0.5625 0 -0.1875 -0.4375 0 -0.4375 -0.3125 0 -0.5625 -0.1875 0 -0.5 -0.1875 0 -0.4375 -0.25 0 0.4375 0.3125 0 0.4375 0.1875 0 0.5625 0.1875 0 0.3125 0.5625 0 0.1875 0.5625 0 0.3125 0.5 0 0.1875 0.5 0 0.25 0.4375 0 -0.125 -0.1875 0 -0.1875 -0.125 0 0.1875 0.125 0 0.15625 0.15625 0 0.375 0.4375 0 0.375 0.3125 0 0.3125 0.375 0 -0.34375 -0.125 0 -0.375 -0.15625 0 0.375 0.0625 0 0.3125 0.125 0 0.1875 0.375 0 0.09375 0.375 0 0.15625 0.34375 0 0.15625 0.40625 0 0.125 0.40625 0 0.125 0.34375 0 -0.46875 -0.15625 0 0.09375 0.46875 0 0.15625 0.46875 0 -0.28125 -0.125 0 -0.21875 -0.15625 0 -0.25 -0.15625 0 -0.34375 -0.21875 0 -0.40625 -0.21875 0 0.09375 0.25 0 0.15625 0.21875 0 0.15625 0.28125 0 0.125 0.21875 0 0.125 0.28125 0 0.09375 0.4375 0 0.0625 0.28125 0 0.0625 0.34375 0 0.09375 0.3125 0 -0.3125 -0.15625 0 -0.28125 -0.1875 0 -0.34375 -0.1875 0 -0.4375 -0.15625 0 -0.40625 -0.1875 0 -0.46875 0.03125 0 -0.0625 0.5 0 -0.25 -0.3125 0 -0.25 -0.21875 0 -0.21875 -0.28125 0 -0.21875 -0.25 0 -0.25 0.21875 0 -0.21875 0.25 0 -0.28125 0.25 0 -0.25 0.28125 0 0.21875 0.21875 0 0.28125 0.28125 0 0.21875 0.28125 0 0.28125 0.21875 0 0 -0.3125 0 -0.0625 -0.25 0 -0.21875 0.03125 0 -0.28125 0 0 -0.25 0.03125 0 -0.25 -0.4375 0 -0.1875 0.5625 0 -0.1875 0.5 0 0.4375 0.25 0 0.34375 0.34375 0 0.34375 0.40625 0 -0.0625 -0.375 0 -0.125 -0.3125 0 -0.1875 -0.375 0 -0.375 0.09375 0 -0.40625 0.125 0 -0.34375 0.125 0 -0.375 0.15625 0 0.375 0.1875 0 -0.09375 0.375 0 -0.125 0.40625 0 -0.125 0.34375 0 -0.15625 0.375 0 -0.40625 0 0 -0.34375 0 0 -0.375 0.03125 0 -0.46875 0.09375 0 -0.46875 0.15625 0 -0.09375 0.46875 0 -0.15625 0.46875 0 -0.15625 -0.21875 0 -0.15625 -0.28125 0 -0.21875 0.09375 0 -0.25 0.15625 0 -0.25 0.09375 0 -0.28125 0.125 0 -0.15625 0.21875 0 -0.09375 0.21875 0 -0.15625 0.25 0 -0.09375 0.25 0 -0.125 0.28125 0 -0.34375 0.25 0 -0.375 0.21875 0 -0.28125 0.34375 0 -0.25 0.34375 0 -0.21875 0.375 0 0.21875 0.15625 0 0.28125 0.15625 0 0.34375 0.28125 0 0.34375 0.21875 0 0.40625 0.28125 0 0.28125 0.34375 0 0.21875 0.34375 0 0.28125 0.40625 0 0.21875 0.40625 0 -0.4375 0.03125 0 -0.40625 0.0625 0 -0.4375 0.09375 0 -0.0625 0.40625 0 -0.09375 0.4375 0 -0.3125 0.28125 0 -0.28125 0.3125 0 -0.28125 0.1875 0 -0.3125 0.21875 0 -0.3125 0.15625 0 -0.34375 0.1875 0 -0.1875 0.28125 0 -0.21875 0.3125 0 -0.15625 0.3125 0 -0.1875 0.34375 0 -0.3125 0.03125 0 -0.28125 0.0625 0 -0.34375 0.0625 0 -0.3125 0.09375 0 -0.0625 0.28125 0 -0.0625 0.34375 0 -0.09375 0.3125 0 -0.4375 0.15625 0 -0.40625 0.1875 0 -0.15625 0.4375 0 -0.1875 0.40625 0 -0.1875 -0.21875 0 0.15625 0.3125 0 0.1875 0.28125 0 0.1875 0.34375 0 
        </DataArray>
      </Points>
      <Cells>
        <DataArray type="Int32" Name="connectivity" format="ascii">
          179 89 53 216 110 60 224 112 64 187 92 54 211 100 58 208 107 63 181 90 35 186 95 38 210 109 47 205 102 44 218 111 50 178 91 34 190 99 39 213 105 48 221 108 51 177 65 33 189 68 38 214 74 49 222 76 52 185 67 37 182 66 36 209 73 46 217 75 48 206 72 45 183 78 53 188 79 56 212 83 60 207 86 61 220 87 64 180 77 54 192 81 58 215 84 59 223 88 63 133 77 53 137 81 57 140 84 60 144 88 64 134 79 54 138 83 58 143 86 63 115 66 35 118 67 38 127 73 47 124 72 44 130 75 50 114 65 34 119 68 39 128 74 48 131 76 51 145 89 33 154 96 38 172 110 49 175 112 52 149 92 37 151 93 36 159 100 46 165 106 48 168 107 45 147 90 53 173 109 60 176 111 64 150 91 54 160 99 58 170 108 63 147 89 11 173 110 19 176 112 20 150 92 12 160 100 15 170 107 18 146 90 11 171 109 19 174 111 20 148 91 12 158 99 15 169 108 18 113 65 0 118 68 2 129 74 6 132 76 7 117 67 2 116 66 1 126 73 5 128 75 6 125 72 4 136 79 8 137 82 9 140 83 9 141 86 10 144 87 10 134 77 8 138 81 9 139 84 9 143 88 10 179 77 21 191 81 24 216 84 30 224 88 32 187 79 23 184 78 22 211 83 29 219 87 31 208 86 28 181 66 22 186 67 23 210 73 29 205 72 28 218 75 31 178 65 21 190 68 24 213 74 30 221 76 32 177 89 21 189 96 24 214 110 30 222 112 32 185 92 23 182 93 22 209 100 29 217 106 31 206 107 28 183 90 22 188 95 23 212 109 29 207 102 28 220 111 31 180 91 21 192 99 24 215 105 30 223 108 32 179 21 89 191 24 96 216 30 110 224 32 112 187 23 92 184 22 93 211 29 100 219 31 106 208 28 107 181 22 90 186 23 95 210 29 109 205 28 102 218 31 111 178 21 91 190 24 99 213 30 105 221 32 108 177 21 65 189 24 68 214 30 74 222 32 76 185 23 67 182 22 66 209 29 73 217 31 75 206 28 72 183 22 78 188 23 79 212 29 83 207 28 86 220 31 87 180 21 77 192 24 81 215 30 84 223 32 88 133 8 77 137 9 81 140 9 84 144 10 88 134 8 79 138 9 83 139 9 82 142 10 87 143 10 86 115 1 66 118 2 67 127 5 73 124 4 72 130 6 75 114 0 65 119 2 68 128 6 74 131 7 76 145 11 89 172 19 110 175 20 112 149 12 92 159 15 100 168 18 107 147 11 90 173 19 109 176 20 111 150 12 91 160 15 99 170 18 108 147 53 89 173 60 110 176 64 112 150 54 92 160 58 100 170 63 107 146 35 90 154 38 95 171 47 109 162 44 102 174 50 111 148 34 91 158 39 99 165 48 105 169 51 108 113 33 65 118 38 68 129 49 74 132 52 76 117 37 67 116 36 66 126 46 73 128 48 75 125 45 72 133 53 78 136 56 79 140 60 83 141 61 86 144 64 87 134 54 77 138 58 81 139 59 84 143 63 88 179 53 77 191 57 81 216 60 84 224 64 88 187 54 79 211 58 83 208 63 86 181 35 66 186 38 67 210 47 73 205 44 72 218 50 75 178 34 65 190 39 68 213 48 74 221 51 76 177 33 89 189 38 96 214 49 110 222 52 112 185 37 92 182 36 93 209 46 100 217 48 106 206 45 107 183 53 90 212 60 109 220 64 111 180 54 91 192 58 99 223 63 108 248 191 96 250 139 82 244 123 71 229 157 96 228 154 95 234 165 105 225 121 69 227 122 71 226 123 70 226 121 3 225 120 3 227 123 3 229 154 14 247 137 57 248 57 191 250 59 139 228 14 154 234 17 165 225 3 121 227 3 122 226 3 123 225 69 120 227 71 123 229 96 154 228 95 156 234 105 166 248 96 157 239 69 121 243 70 123 247 82 137 274 247 199 271 240 121 277 230 156 253 228 156 268 248 157 260 239 121 270 250 200 270 251 59 262 239 41 265 243 43 269 247 57 268 249 57 253 230 14 254 229 14 273 235 70 274 236 82 271 226 70 275 250 82 272 240 70 273 70 243 274 82 247 271 70 240 275 82 236 272 70 235 252 14 230 253 14 228 268 57 248 260 41 239 270 59 250 269 57 249 262 194 239 269 199 247 260 121 240 253 156 230 254 157 229 271 121 226 275 200 250 288 167 106 288 165 17 303 243 123 289 233 17 309 244 71 329 276 241 332 287 233 337 272 235 327 252 230 334 264 246 347 266 244 335 262 241 344 269 249 300 261 241 305 264 245 293 256 235 311 276 230 312 278 241 312 276 97 311 277 97 306 264 43 304 266 43 300 262 41 305 265 43 346 270 200 333 264 164 342 274 199 327 276 155 331 283 164 334 287 164 288 106 165 289 17 232 290 17 233 303 43 243 303 123 244 329 155 276 333 164 283 332 164 287 337 197 272 334 164 264 335 194 262 344 199 269 306 43 266 305 43 264 311 97 276 312 241 276 311 230 277 325 233 287 293 235 257 306 246 264 304 244 266 300 241 262 346 251 270 329 241 261 333 245 264 337 235 256 342 236 274 327 230 276 335 241 278 314 97 277 331 289 232 304 303 244 290 288 17 332 289 164 331 164 289 304 43 303 290 167 288 332 233 289 347 244 309 374 184 93 384 219 106 373 195 80 376 136 80 380 141 85 372 135 78 383 142 87 367 120 69 377 156 95 382 163 102 375 153 94 354 163 101 352 153 93 355 162 102 349 133 78 350 135 80 356 196 80 350 136 8 351 141 10 349 135 8 354 161 16 352 151 13 355 163 16 353 153 13 381 163 61 374 153 55 369 122 42 373 135 55 372 184 55 383 219 62 377 188 56 382 207 61 389 239 194 379 267 56 405 277 156 397 302 161 385 307 142 371 302 201 406 290 233 419 306 266 420 326 287 400 325 287 413 348 266 408 335 278 422 336 278 425 314 277 395 313 278 387 307 62 370 302 42 386 308 62 389 291 69 398 302 101 406 323 167 413 347 202 400 326 104 395 312 97 411 310 196 419 348 246 420 334 246 408 336 194 422 313 255 407 323 308 414 309 297 409 292 291 421 348 324 418 325 323 424 313 310 404 326 324 416 347 309 396 314 310 410 336 292 391 309 71 417 348 202 403 325 104 396 313 97 421 326 246 426 314 267 423 336 255 374 55 184 384 62 219 376 56 136 380 61 141 372 55 135 367 40 120 382 61 163 375 55 153 354 16 163 352 13 153 355 16 162 353 13 152 349 8 133 350 8 135 351 10 142 356 80 195 350 80 136 351 85 141 349 78 135 352 93 151 355 102 163 353 94 153 381 101 163 374 93 153 384 106 167 369 71 122 373 80 135 376 80 196 372 78 184 383 87 219 377 95 188 382 102 207 389 69 239 378 56 267 397 101 302 388 69 291 385 62 307 371 42 302 387 62 308 406 167 290 412 196 310 419 246 306 420 246 326 400 104 325 413 202 348 408 194 335 422 255 336 425 267 314 395 97 313 370 161 302 392 142 307 398 201 302 413 266 347 400 287 326 395 278 312 419 266 348 420 287 334 408 278 336 422 278 313 407 167 323 421 246 348 418 233 325 424 255 313 404 104 326 416 202 347 396 97 314 410 194 336 402 308 323 391 297 309 361 291 292 417 324 348 403 323 325 396 310 313 421 324 326 426 310 314 423 292 336 390 369 201 392 351 142 386 384 167 379 376 196 411 359 255 405 378 267 426 412 310 423 360 292 391 390 297 402 399 308 403 402 323 417 415 324 371 369 42 385 383 62 378 377 56 359 356 25 397 354 101 393 380 85 388 367 69 360 359 25 412 379 196 425 405 267 401 399 104 407 386 167 414 364 202 409 389 194 418 406 233 424 411 255 416 414 202 410 409 194 404 401 104 390 71 369 392 85 351 398 101 362 386 62 384 379 56 376 411 196 359 405 156 378 415 202 364 426 267 412 423 255 360 391 71 390 402 104 399 403 104 402 417 202 415 371 201 369 385 142 383 378 156 377 359 196 356 397 161 354 388 193 367 360 255 359 412 267 379 425 277 405 407 308 386 414 297 364 409 291 389 418 323 406 424 310 411 416 309 414 410 292 409 404 324 401 447 166 105 447 215 59 428 234 166 428 232 17 478 273 243 484 275 236 477 257 235 467 254 231 473 263 240 443 260 240 427 254 14 468 268 157 477 273 198 467 280 157 470 284 166 473 272 197 521 346 286 514 339 281 516 333 283 497 328 279 509 340 285 506 343 282 508 345 259 503 338 256 501 342 258 511 330 261 515 341 265 512 301 263 502 294 259 507 296 257 504 295 258 510 320 286 505 316 281 499 319 283 498 315 280 520 322 284 513 317 279 517 321 285 519 318 282 463 322 286 457 317 281 460 321 283 456 318 280 461 319 284 455 315 279 462 320 285 458 316 282 436 296 259 433 295 256 434 293 257 435 294 258 444 301 261 475 339 263 465 329 261 464 328 252 474 337 256 479 340 257 482 343 258 486 345 286 476 338 281 466 330 279 481 341 285 483 344 282 486 346 200 476 339 197 466 328 155 481 340 198 483 343 199 485 345 200 474 338 197 482 342 199 464 327 155 465 330 155 480 341 198 445 301 41 444 300 41 436 294 26 433 293 26 434 296 26 435 295 26 463 320 103 457 316 98 460 319 103 456 315 98 461 322 103 455 317 98 462 321 103 458 318 98 521 322 251 514 317 242 516 321 245 518 318 249 500 319 232 497 315 231 509 320 238 506 316 237 508 296 238 503 295 237 501 294 236 511 301 242 515 305 245 512 339 242 496 328 231 507 340 238 504 343 237 510 345 238 505 338 237 499 331 232 513 330 242 517 341 245 519 344 249 459 381 203 453 368 193 452 353 152 454 357 195 429 356 195 441 368 152 442 367 193 446 375 195 494 394 307 489 393 298 471 388 291 487 363 297 492 366 298 495 387 308 438 365 298 437 364 297 439 366 299 450 394 298 451 392 307 523 401 324 430 361 292 449 381 61 442 368 40 446 373 55 459 362 101 453 357 94 452 368 94 454 375 94 451 394 85 450 393 85 439 364 27 437 363 27 438 366 27 430 360 25 494 387 204 489 365 203 471 358 193 493 366 204 487 390 201 492 394 204 495 399 204 523 415 299 488 398 362 490 365 362 472 358 357 524 415 364 522 361 358 440 363 362 440 365 27 432 361 25 488 363 201 491 393 203 525 401 299 447 105 215 428 17 234 448 59 251 478 198 273 468 157 280 469 166 284 484 200 275 467 157 254 443 41 260 427 14 252 427 231 254 443 240 263 478 243 265 468 249 268 477 235 273 473 240 272 521 251 346 514 242 339 516 245 333 497 231 328 509 238 340 506 237 343 508 238 345 503 237 338 501 236 342 511 242 330 515 245 341 512 242 301 502 236 294 507 238 296 504 237 295 510 238 320 505 237 316 499 232 319 498 231 315 520 251 322 513 242 317 517 245 321 519 249 318 463 103 322 457 98 317 460 103 321 456 98 318 461 103 319 455 98 315 462 103 320 458 98 316 436 26 296 433 26 295 434 26 293 435 26 294 444 41 301 475 197 339 465 155 329 464 155 328 474 197 337 479 198 340 482 199 343 486 200 345 476 197 338 466 155 330 481 198 341 483 199 344 486 286 346 476 281 339 466 279 328 481 285 340 483 282 343 485 259 345 474 256 338 482 258 342 464 252 327 465 261 330 480 265 341 445 263 301 444 261 300 436 259 294 433 256 293 434 257 296 435 258 295 463 286 320 457 281 316 460 283 319 456 280 315 461 284 322 455 279 317 462 285 321 458 282 318 521 286 322 514 281 317 516 283 321 518 280 318 500 284 319 497 279 315 509 285 320 506 282 316 508 259 296 503 256 295 501 258 294 511 261 301 515 265 305 512 263 339 496 252 328 507 257 340 504 258 343 510 286 345 505 281 338 499 283 331 513 279 330 517 285 341 519 282 344 459 101 381 453 94 368 452 94 353 454 94 357 429 25 356 441 40 368 449 61 380 442 40 367 446 55 375 494 204 394 489 203 393 471 193 388 493 204 399 487 201 363 492 204 366 495 204 387 438 27 365 437 27 364 439 27 366 450 85 394 451 85 392 523 299 401 430 25 361 449 203 381 442 193 368 446 195 373 429 195 357 452 152 368 454 195 375 451 307 394 450 298 393 437 297 363 438 298 366 430 292 360 494 307 387 489 298 365 493 299 366 487 297 390 492 298 394 495 308 399 523 324 415 488 201 398 490 203 365 472 193 358 524 299 415 522 291 361 440 27 363 440 362 365 431 357 358 432 358 361 488 362 363 491 380 393 525 399 401 470 448 251 518 468 280 500 469 284 496 427 252 445 443 263 480 478 265 485 484 259 491 449 380 525 493 399 431 429 357 432 431 358 448 447 59 469 428 166 479 477 198 475 473 197 502 484 236 498 467 231 520 470 251 490 459 203 472 453 193 524 439 299 522 471 291 470 166 448 518 249 468 500 232 469 496 231 427 445 41 443 480 198 478 485 200 484 491 203 449 525 299 493 431 25 429 432 25 431 448 166 447 469 232 428 479 257 477 475 263 473 502 259 484 498 280 467 520 284 470 490 362 459 472 357 453 524 364 439 522 358 471 
        </DataArray>
        <DataArray type="Int32" Name="offsets" format="ascii">
          3 6 9 12 15 18 21 24 27 30 33 36 39 42 45 48 51 54 57 60 63 66 69 72 75 78 81 84 87 90 93 96 99 102 105 108 111 114 117 120 123 126 129 132 135 138 141 144 147 150 153 156 159 162 165 168 171 174 177 180 183 186 189 192 195 198 201 204 207 210 213 216 219 222 225 228 231 234 237 240 243 246 249 252 255 258 261 264 267 270 273 276 279 282 285 288 291 294 297 300 303 306 309 312 315 318 321 324 327 330 333 336 339 342 345 348 351 354 357 360 363 366 369 372 375 378 381 384 387 390 393 396 399 402 405 408 411 414 417 420 423 426 429 432 435 438 441 444 447 450 453 456 459 462 465 468 471 474 477 480 483 486 489 492 495 498 501 504 507 510 513 516 519 522 525 528 531 534 537 540 543 546 549 552 555 558 561 564 567 570 573 576 579 582 585 588 591 594 597 600 603 606 609 612 615 618 621 624 627 630 633 636 639 642 645 648 651 654 657 660 663 666 669 672 675 678 681 684 687 690 693 696 699 702 705 708 711 714 717 720 723 726 729 732 735 738 741 744 747 750 753 756 759 762 765 768 771 774 777 780 783 786 789 792 795 798 801 804 807 810 813 816 819 822 825 828 831 834 837 840 843 846 849 852 855 858 861 864 867 870 873 876 879 882 885 888 891 894 897 900 903 906 909 912 915 918 921 924 927 930 933 936 939 942 945 948 951 954 957 960 963 966 969 972 975 978 981 984 987 990 993 996 999 1002 1005 1008 1011 1014 1017 1020 1023 1026 1029 1032 1035 1038 1041 1044 1047 1050 1053 1056 1059 1062 1065 1068 1071 1074 1077 1080 1083 1086 1089 1092 1095 1098 1101 1104 1107 1110 1113 1116 1119 1122 1125 1128 1131 1134 1137 1140 1143 1146 1149 1152 1155 1158 1161 1164 1167 1170 1173 1176 1179 1182 1185 1188 1191 1194 1197 1200 1203 1206 1209 1212 1215 1218 1221 1224 1227 1230 1233 1236 1239 1242 1245 1248 1251 1254 1257 1260 1263 1266 1269 1272 1275 1278 1281 1284 1287 1290 1293 1296 1299 1302 1305 1308 1311 1314 1317 1320 1323 1326 1329 1332 1335 1338 1341 1344 1347 1350 1353 1356 1359 1362 1365 1368 1371 1374 1377 1380 1383 1386 1389 1392 1395 1398 1401 1404 1407 1410 1413 1416 1419 1422 1425 1428 1431 1434 1437 1440 1443 1446 1449 1452 1455 1458 1461 1464 1467 1470 1473 1476 1479 1482 1485 1488 1491 1494 1497 1500 1503 1506 1509 1512 1515 1518 1521 1524 1527 1530 1533 1536 1539 1542 1545 1548 1551 1554 1557 1560 1563 1566 1569 1572 1575 1578 1581 1584 1587 1590 1593 1596 1599 1602 1605 1608 1611 1614 1617 1620 1623 1626 1629 1632 1635 1638 1641 1644 1647 1650 1653 1656 1659 1662 1665 1668 1671 1674 1677 1680 1683 1686 1689 1692 1695 1698 1701 1704 1707 1710 1713 1716 1719 1722 1725 1728 1731 1734 1737 1740 1743 1746 1749 1752 1755 1758 1761 1764 1767 1770 1773 1776 1779 1782 1785 1788 1791 1794 1797 1800 1803 1806 1809 1812 1815 1818 1821 1824 1827 1830 1833 1836 1839 1842 1845 1848 1851 1854 1857 1860 1863 1866 1869 1872 1875 1878 1881 1884 1887 1890 1893 1896 1899 1902 1905 1908 1911 1914 1917 1920 1923 1926 1929 1932 1935 1938 1941 1944 1947 1950 1953 1956 1959 1962 1965 1968 1971 1974 1977 1980 1983 1986 1989 1992 1995 1998 2001 2004 2007 2010 2013 2016 2019 2022 2025 2028 2031 2034 2037 2040 2043 2046 2049 2052 2055 2058 2061 2064 2067 2070 2073 2076 2079 2082 2085 2088 2091 2094 2097 2100 2103 2106 2109 2112 2115 2118 2121 2124 2127 2130 2133 2136 2139 2142 2145 2148 2151 2154 2157 2160 2163 2166 2169 2172 2175 2178 2181 2184 2187 2190 2193 2196 2199 2202 2205 2208 2211 2214 2217 2220 2223 2226 2229 2232 2235 2238 2241 2244 2247 2250 2253 2256 2259 2262 2265 2268 2271 2274 2277 2280 2283 2286 2289 2292 2295 2298 2301 2304 2307 2310 2313 2316 2319 2322 2325 2328 2331 2334 2337 2340 2343 2346 2349 2352 2355 2358 2361 2364 2367 2370 2373 2376 2379 2382 2385 2388 2391 2394 2397 2400 2403 2406 2409 2412 2415 2418 2421 2424 2427 2430 2433 2436 2439 2442 2445 2448 2451 2454 2457 2460 2463 2466 2469 2472 2475 2478 2481 2484 2487 2490 2493 2496 2499 2502 2505 2508 2511 2514 2517 2520 2523 2526 2529 2532 2535 2538 2541 2544 2547 2550 2553 2556 2559 2562 2565 2568 2571 2574 2577 2580 2583 2586 2589 2592 2595 2598 2601 2604 2607 2610 2613 2616 2619 2622 2625 2628 2631 2634 2637 2640 2643 2646 2649 2652 2655 2658 2661 2664 2667 2670 2673 2676 2679 2682 2685 2688 2691 2694 2697 2700 2703 2706 2709 2712 2715 2718 2721 2724 2727 2730 2733 2736 2739 2742 2745 2748 2751 2754 2757 2760 2763 2766 2769 2772 2775 2778 2781 2784 2787 2790 2793 2796 2799 2802 2805 2808 2811 2814 2817 2820 2823 2826 2829 2832 2835 2838 2841 2844 2847 2850 2853 2856 2859 2862 2865 2868 2871 2874 2877 2880 2883 2886 2889 2892 2895 2898 2901 2904 2907 2910 2913 2916 2919 2922 2925 2928 2931 2934 2937 2940 2943 2946 2949 2952 
        </DataArray>
        <DataArray type="UInt8" Name="types" format="ascii">
          5 5 5 5 5 5 5 5 5 5 5 5 5 5 5 5 5 5 5 5 5 5 5 5 5 5 5 5 5 5 5 5 5 5 5 5 5 5 5 5 5 5 5 5 5 5 5 5 5 5 5 5 5 5 5 5 5 5 5 5 5 5 5 5 5 5 5 5 5 5 5 5 5 5 5 5 5 5 5 5 5 5 5 5 5 5 5 5 5 5 5 5 5 5 5 5 5 5 5 5 5 5 5 5 5 5 5 5 5 5 5 5 5 5 5 5 5 5 5 5 5 5 5 5 5 5 5 5 5 5 5 5 5 5 5 5 5 5 5 5 5 5 5 5 5 5 5 5 5 5 5 5 5 5 5 5 5 5 5 5 5 5 5 5 5 5 5 5 5 5 5 5 5 5 5 5 5 5 5 5 5 5 5 5 5 5 5 5 5 5 5 5 5 5 5 5 5 5 5 5 5 5 5 5 5 5 5 5 5 5 5 5 5 5 5 5 5 5 5 5 5 5 5 5 5 5 5 5 5 5 5 5 5 5 5 5 5 5 5 5 5 5 5 5 5 5 5 5 5 5 5 5 5 5 5 5 5 5 5 5 5 5 5 5 5 5 5 5 5 5 5 5 5 5 5 5 5 5 5 5 5 5 5 5 5 5 5 5 5 5 5 5 5 5 5 5 5 5 5 5 5 5 5 5 5 5 5 5 5 5 5 5 5 5 5 5 5 5 5 5 5 5 5 5 5 5 5 5 5 5 5 5 5 5 5 5 5 5 5 5 5 5 5 5 5 5 5 5 5 5 5 5 5 5 5 5 5 5 5 5 5 5 5 5 5 5 5 5 5 5 5 5 5 5 5 5 5 5 5 5 5 5 5 5 5 5 5 5 5 5 5 5 5 5 5 5 5 5 5 5 5 5 5 5 5 5 5 5 5 5 5 5 5 5 5 5 5 5 5 5 5 5 5 5 5 5 5 5 5 5 5 5 5 5 5 5 5 5 5 5 5 5 5 5 5 5 5 5 5 5 5 5 5 5 5 5 5 5 5 5 5 5 5 5 5 5 5 5 5 5 5 5 5 5 5 5 5 5 5 5 5 5 5 5 5 5 5 5 5 5 5 5 5 5 5 5 5 5 5 5 5 5 5 5 5 5 5 5 5 5 5 5 5 5 5 5 5 5 5 5 5 5 5 5 5 5 5 5 5 5 5 5 5 5 5 5 5 5 5 5 5 5 5 5 5 5 5 5 5 5 5 5 5 5 5 5 5 5 5 5 5 5 5 5 5 5 5 5 5 5 5 5 5 5 5 5 5 5 5 5 5 5 5 5 5 5 5 5 5 5 5 5 5 5 5 5 5 5 5 5 5 5 5 5 5 5 5 5 5 5 5 5 5 5 5 5 5 5 5 5 5 5 5 5 5 5 5 5 5 5 5 5 5 5 5 5 5 5 5 5 5 5 5 5 5 5 5 5 5 5 5 5 5 5 5 5 5 5 5 5 5 5 5 5 5 5 5 5 5 5 5 5 5 5 5 5 5 5 5 5 5 5 5 5 5 5 5 5 5 5 5 5 5 5 5 5 5 5 5 5 5 5 5 5 5 5 5 5 5 5 5 5 5 5 5 5 5 5 5 5 5 5 5 5 5 5 5 5 5 5 5 5 5 5 5 5 5 5 5 5 5 5 5 5 5 5 5 5 5 5 5 5 5 5 5 5 5 5 5 5 5 5 5 5 5 5 5 5 5 5 5 5 5 5 5 5 5 5 5 5 5 5 5 5 5 5 5 5 5 5 5 5 5 5 5 5 5 5 5 5 5 5 5 5 5 5 5 5 5 5 5 5 5 5 5 5 5 5 5 5 5 5 5 5 5 5 5 5 5 5 5 5 5 5 5 5 5 5 5 5 5 5 5 5 5 5 5 5 5 5 5 5 5 5 5 5 5 5 5 5 5 5 5 5 5 5 5 5 5 5 5 5 5 5 5 5 5 5 5 5 5 5 5 5 5 5 5 5 5 5 5 5 5 5 5 5 5 5 5 5 5 5 5 5 5 5 5 5 5 5 5 5 5 5 5 5 5 5 5 5 5 5 5 5 5 5 5 5 5 5 5 5 5 5 5 5 5 5 5 5 5 5 5 5 5 5 5 5 5 5 5 5 5 5 5 5 5 5 5 5 5 5 5 5 5 5 5 5 5 5 5 5 5 5 5 5 5 5 5 5 5 5 5 5 
        </DataArray>
      </Cells>
    </Piece>
  </UnstructuredGrid>
</VTKFile>
