<?xml version="1.0"?>
<VTKFile type="UnstructuredGrid" version="0.1" byte_order="LittleEndian">
  <UnstructuredGrid>
    <Piece NumberOfPoints="333" NumberOfCells="627">
      <PointData>
      </PointData>
      <CellData>
        <DataArray type="Float64" Name="eta_H_T" NumberOfComponents="1" format="ascii">
          0.00019279692584287038 0.00029090713530036106 0.00022709840986564922 0.00027544113671886303 0.00019945537791441994 0.00017072054260884267 0.00014392464824490486 0.00025861407463523013 0.00020133067451733581 0.00030270137684967695 0.00021164446494829718 0.00023969143363012708 0.00026453340828528791 0.0002485643348145957 0.00027055705174526562 0.00020947930058764889 0.000179776054192906 0.00020403096679371703 0.00013948366156165385 0.00018756230021714854 0.00025309397828564691 0.00020678172783596783 0.00022077577777698508 0.00023274027774561416 0.00024219537218766237 0.0002191551513481177 0.00026617626197979351 0.0002051420666154573 0.00019142468810149968 0.00013884768689664936 0.00020733895673423551 0.00020816135829205843 0.00017912237977928141 0.00026657120962943198 0.00026168385984299533 0.00026755649593564722 0.00020672532867289746 0.00031284615621231422 0.00025400374386788649 0.00025131944875963672 0.00019764938391375809 0.000155729683298888 0.00015595284772902557 0.00027082241370164287 0.00020533199340104418 0.00029060787739822126 0.00020659908214354857 0.0002030862784801916 0.00028757730417604553 0.00026384478375702695 0.00024861897901559443 0.00026611619066955382 0.00020039795889698896 0.00023804948756299914 0.000254566804766056 0.00026385626947445499 9.5039208142012316e-05 0.00022801330554629383 0.00017476930429837333 0.00020553013474733383 0.00015197448211074968 7.6184648141036841e-05 5.5903821060880712e-05 0.00021214411833628521 0.00022336698189001373 0.00013602551298524249 8.7012614526594623e-05 0.00015747510793295293 4.8936168974826692e-05 0 3.9127674949025855e-05 0.0001318568732240905 3.8846245456574012e-05 6.9815932767837573e-05 3.3085758293344938e-05 1.292900558154572e-05 0 2.9620047785588564e-05 9.1948568320002896e-06 0.0001365464159089446 9.4934446383644088e-05 5.847263162048117e-05 3.3505774195944459e-05 1.9102071457005594e-05 0.00010318825922336597 2.5375802056010762e-05 5.1167600582362237e-05 3.1761934196997324e-05 8.289203241766231e-05 0.00013538315036213316 0.00013386836207147655 1.9102071457005594e-05 1.018852782772866e-21 7.4645648528595949e-06 4.0942853232926046e-05 0.00018853063972891176 5.7233811300982971e-05 7.4645648528595949e-06 4.0942853232926039e-05 2.0395228657670645e-05 4.9214044000768164e-05 7.4645648528595949e-06 4.0942853232926046e-05 0.00017519561770974566 2.7954191870221429e-05 5.2903669135825997e-05 4.0942853232926039e-05 1.292900558154572e-05 9.9808306537785266e-22 1.9102071457005594e-05 5.3689536893547152e-06 0.00015801029265328313 0.0001291617215517884 4.3952178443821421e-05 3.6472738989339366e-05 3.1761934196997324e-05 8.289203241766231e-05 0 7.9967813228660616e-05 2.8305417838631703e-05 9.1423977691838332e-05 0.00010323950890004869 0.0001076959120714535 1.9102071457005594e-05 7.4645648528595958e-06 0 4.0088969788679354e-05 0.00014911918947046104 6.3271661105045827e-05 4.6164769994583685e-05 3.3085758293344938e-05 2.0395228657670645e-05 4.4309989599291556e-05 1.0120422773303677e-05 4.478050264845012e-05 4.5083998385509277e-05 2.4796795236126903e-05 4.3127150769689745e-05 0.0002027894488480143 0.00020623483271705402 0.00020580546814012948 0.00023339683664489678 0.00022369092115639963 0.00022688234041796227 0.00023483972991462357 0.00022790033161172176 0.00024301156033156645 4.7820736053207208e-05 2.8588727495282628e-05 9.4846162920575312e-05 0.00015502642719383977 4.8162447907501871e-05 0.0001038932487861343 3.5002711900836188e-05 7.0449347099239747e-05 1.5892763831902743e-05 5.1367372690271925e-05 0.00010051110357666313 0.00016427571472256466 0.00022288146773954623 8.2964723997166229e-05 4.3941315911767759e-05 1.1084329441045538e-05 4.9065026255483992e-05 8.9685325496684421e-05 2.0395228657670645e-05 0.00020285733484562513 0.00015369620644314639 6.1648612999582033e-05 5.37047577197597e-06 0.00010934900882276267 0.00014401771530111817 5.7771702731913404e-05 2.5237388015083326e-05 3.217770104961538e-05 0.00015002365519468225 0.00011081903440156045 0.00010543442859985773 7.0749697841058481e-05 3.0516524475764607e-05 1.1782388187955405e-05 4.4752518987833735e-05 5.6210701433082182e-05 5.663312291623387e-05 5.1741612802939304e-05 3.1488092468862314e-05 0.00020170441673351744 0.0002043368074913437 0.00019514930525388476 0.00022806657720921748 0.00021080580611609569 0.00022923753138183358 0.00028856592146065909 0.00021031394282985553 0.00024169739750323126 1.4468402773579249e-05 4.7279675492817158e-05 4.6929658647013792e-05 0.00011213078122611411 7.5992748963932093e-05 2.5736418547519626e-05 8.9376723918412431e-05 3.0384502561679168e-05 7.7342664959934425e-05 0.0001106855719138572 0.00012146283115394752 0.00023124313842385052 5.1659699553106694e-05 4.6947787454303169e-05 2.0382645127522216e-05 4.476759474280626e-05 0.0001068226642794701 4.9531434409819732e-05 0.00017437697917818112 0.00018414310342866461 4.1989925483104046e-05 8.0763468238865879e-06 6.9125972894339526e-05 0.00013180849110067144 8.6902189308171572e-05 1.9070140299096388e-05 3.5573497532776927e-05 0.00011707982876203183 9.2932906922243112e-05 0.00014725122757921195 0.00010204898373416545 3.3211914506760234e-05 1.0121230330812008e-05 4.8327479498109336e-05 5.9174868611582827e-05 4.7523816178167286e-05 5.5021478677663588e-05 1.8537913564733576e-05 0.00021306438936401703 6.1368553279287307e-05 0.00020365705976752453 1.9436955138009681e-05 2.8792899829283149e-05 6.6805190767088969e-05 4.859958925275526e-05 9.6540971808217442e-05 0.00011174025563360617 0.00016694796453316655 0.0002240751335841205 0.00026050376755131931 7.6925664261935956e-05 4.3492144892612377e-05 2.3799911026893807e-05 3.2462315296969802e-05 4.2721822210838164e-05 0.0001271097908907474 0.00015277945049999939 6.7402699052614598e-05 0.00018625625090412271 0.00020248504653346466 3.2025629627395176e-05 2.4473696057258416e-05 6.4130841979501973e-05 5.7538835430042755e-05 0.00012844829636708577 8.4127340338850407e-05 0.00013154891703226246 0.00022166509894486414 0.00025311059342124364 6.6891859609433961e-05 7.4669509858717501e-05 3.9481759693258723e-05 1.6548289991753987e-05 3.8171208742127598e-05 4.0661789113245555e-05 0.00014071685093465343 0.00017927903198675514 0.00027121154926052681 0.00018914847508617644 0.00025542612023458379 0.00029132173611135876 0.00029789582837231308 0.0002166048574695707 0.00028584655437284117 0.00026188335892963214 0.00028866362451351635 0.00024455272467034553 0.00024839234518646747 0.00030337649304335197 0.00030070947207783697 0.0002664263095705246 0.00029582031832974204 0.00028706703340252479 0.00026596094063967139 0.00021590917128241511 0.00029033642966383916 0.00019010158025703909 0.00016088309287576219 0.00028198027993992213 0.00028691461837956325 0.00017288896817211803 0.00029402429373886363 0.00013164043280403261 0.00023560198148901227 0.00021876192256333073 0.00017607895954464082 0.00022263726107490752 0.00019724877161761607 0.00013765344750176411 0.00024042100370792689 0.00025512141418497248 0.00012994989571309256 0.00019567457140972516 0.00021027174403505391 0.00013720055627175506 0.00027220698451642942 0.00022228042679416416 4.8989989594560723e-05 8.8935437708560642e-05 1.5941225009107472e-05 5.3771966295746974e-05 3.6251563718748367e-05 5.9400805684985478e-05 0.00015252330853407156 0.0003243683763891358 0.0002921495294930615 0.00018776334048942192 0.00017744560526031201 0.0002518133223602336 0.00028976343897741536 0.00019271219009938108 0.00019387553837730336 0.00019091003041339148 0.00020490536414636491 0.0001169766689729033 0.00024254397953938365 0.00023996124547679461 0.00015340678719984855 9.1205455851300668e-05 0.00023135433732177378 0.00022818282687218344 0.00016349385049113836 0.00015904003477490002 0.00021000881158171923 0.00021971347951254454 0.00022346267808329975 0.00013620011223749076 0.00023002904473971557 2.2043329683428085e-05 0.00019029975873343313 7.6026412814883724e-05 0.00015884826419433533 0.00023749183538761951 9.3554346899471597e-05 6.993196994900812e-05 2.6904762599392141e-05 7.8990758540719129e-05 0.00016230589934505143 0.00028534167170814499 0.00026016743518510334 0.00018060477763871542 0.00015988599674921983 0.00013155186528271241 6.6988308706349454e-05 8.8042623984750895e-05 0.00018199148242717083 0.00012359318339563008 0.00017599115958923117 0.00029699949255967837 0.00017828065666332092 0.00018044971626026947 0.0001546247922991803 0.00018554198820522011 0.00028283458748891525 0.00014401800758380087 7.1118231709465558e-05 7.8036791252689478e-05 0.00010214660510124833 0.00018685194208413843 0.00013135870149941616 5.8463340854265703e-05 0.00015646099242497619 0.00026055221790779662 0.0002569504096489011 0.00018432999890493181 0.00019821223930041105 9.8213599891411722e-05 3.7410478674071547e-05 6.333923172301019e-05 0.00010184322497742419 0.00014817746208315851 0.00029103962442106552 0.00021196942684528753 0.00016498664152841196 0.00016524777902822906 0.00026117832226582496 0.00011982461823029364 8.7771148363478048e-05 0.00010861590612066463 0.00014774988271732808 0.00012199098663202616 6.9823438354867025e-05 0.00018037636301149949 0.00030809296449166908 0.00027524549960038431 0.00025872794521009953 0.00029846669386843244 0.00022790958359867564 0.00029271711314289941 0.00024757352122726779 0.00029669134561085419 0.00028065051459185233 0.00024315147246072572 0.00028430445792963939 0.00027407508868564458 0.00024564079285928722 0.00029682910839848499 0.000220637974310127 0.00023510915639830503 0.00028784134477539215 0.00019648883910229032 0.00019916046239685717 0.00019862873944056047 0.00026769082389933044 0.00017121982126552129 0.00016337383580890507 0.00030042666936224349 0.00030216716581580585 0.00022544790350923462 0.00020212906222209873 0.000158500964817364 0.00016629412151949831 0.00021204154315909894 0.00020963143843897352 0.00024482010553759269 0.00025671803624580645 0.00013809478626614321 0.00017242696048193299 0.00021618637796048517 0.00022433415443647611 0.00015526089266421045 0.0002642777283339867 0.0002503137397419147 8.2746141613669749e-05 9.7438172652472734e-05 0.00019546005623710487 0.00011734273195885856 1.3714410876261214e-05 3.390827875451583e-05 6.3915302006052301e-05 8.410569149669379e-05 0.00021412595673288781 0.00031863742807289802 0.0001759247502080458 0.0001762913800160608 0.00027708055778297223 0.00029218436719981241 0.00016035517499440215 0.00027806371449646617 0.00017741510046752993 0.00018020240687731661 0.00023810282854113668 0.00023825235606938196 0.00016741305700589961 0.00012246796909137319 0.00024125995499136777 0.00023054968451615863 0.00014689493329707385 0.00018483764957459675 0.00022995596768328027 0.00021188984501109481 0.0001260077978633807 0.00025351557288298123 0.0002121284801951106 4.7197048369037876e-05 0.00017763197322156679 4.7272654033674581e-05 6.5616392405498425e-05 5.7496043442215746e-05 2.8105227976974883e-05 5.8894396816401748e-05 0.00016782098361950687 0.00027026653647353337 0.00024599917651042775 0.00017870160227686211 0.0001143749323608291 7.4993509930273752e-05 9.8861912581838277e-05 0.00015643654653572399 0.00010007285886048214 0.0001393330228466693 0.00028186561324105712 0.00016307218956255432 0.00015500806402826342 0.00019783006610046353 0.00025763470638535268 0.00013655580599456637 5.5763001091608481e-05 8.6487877309840769e-05 8.5481354642682819e-05 0.0001931828482669496 0.00010014713552767223 3.5045924891635143e-05 0.00015553707340887289 0.00027884414868324111 0.00026855477667670267 0.0002047604330797516 0.00016906247620221979 0.00018444128422103574 0.00012999627612749045 5.9910677570488907e-05 7.7202000401541969e-05 0.00012189511355061321 0.0001774045064169774 0.00029686870293497682 0.00020147143736590382 0.00018286450672427604 0.00015677598111654372 0.00015997185019453016 0.00028547297766770097 0.00013578217188732898 7.5947263315195816e-05 0.00010791667170851901 0.00017458102539222209 0.00013411512370189991 6.5023306348180687e-05 0.00029592020245297948 0.00028145699722972097 0.00029573731663681179 0.00024118895839505636 0.00016217318398155481 0.00024717701648286033 0.0003342627897245653 0.00025794220388065779 0.00019649231041112464 0.00031959906177206798 0.00021758168425337773 0.00020014868165339484 0.00017029235646771372 0.00031430692969283496 0.00015359702781051859 0.00012200569286868004 0.00013928058098524842 0.00017301351367995688 9.7739208495443384e-05 0.00021089837329714517 0.0002943753522255064 0.0001580585938132295 0.00029924376252608945 0.00022202319617062606 0.00015375474432820319 0.00014862631741041572 0.0003192437094632164 0.00027004864762792633 0.0003136981621832176 0.00027773306428954928 0.00030486235695474363 0.0002200206754951646 0.00024092292387984431 0.00019032958698927681 0.00029748493376093108 0.00022435609103945884 0.00028529591438891536 0.00015944815103151113 0.00030252150674108365 9.36476777793909e-05 0.00021621299013033126 0.00012040394870754109 0.0001723478546545792 0.00029667149908310154 0.00026370739401407816 0.00020104056283840854 0.00015625977333953944 0.00010340138450641321 0.00013063398623098282 0.0001270084761107048 0.00018336243591343505 0.00012084974605006227 0.00015818800591163397 0.00029353008764328718 0.0002625406924207025 0.00030276878581750647 0.00024839361050932649 0.00016755550935568527 0.00023792024434073872 0.00033973025421186998 0.00024494252242448301 0.00020801468292915568 0.00031419197393702707 0.00022733694632719282 0.00018395830731691328 0.00017812244914674406 0.00029241775099344446 0.0001396896126554179 0.00012969647941383247 0.00013982305700190192 0.00016379441483079909 0.000100996213060502 0.00022304176367389254 0.00028382863305303672 0.00015896785846273076 0.00028227686481991591 0.00019944548380491049 0.0001383985013275667 0.00012180583575345317 0.00031154748473276973 0.00028902693859596598 0.00031274378986831803 0.0002915307120609378 0.00029845120582980099 0.00022339861139203724 0.00025118297887841736 0.00017666106327261566 0.00030455083408340998 0.00021359950823992597 0.00030824263286048751 0.00015907557746914523 0.0003166697596769303 0.0001090722443870799 0.00021057562180172156 0.00011448449122838407 0.00016698235063390121 0.0003104671435820766 0.00027697127855552575 0.00020273413860520908 0.00016923765795750343 9.7750975900592505e-05 0.00012265017014818122 0.00014625953269896411 0.00021255818004038411 0.00014775087419565173 0.00016467283799060856 
        </DataArray>
        <DataArray type="Int32" Name="eta_H_T_available" NumberOfComponents="1" format="ascii">
          1 1 1 1 1 1 1 1 1 1 1 1 1 1 1 1 1 1 1 1 1 1 1 1 1 1 1 1 1 1 1 1 1 1 1 1 1 1 1 1 1 1 1 1 1 1 1 1 1 1 1 1 1 1 1 1 1 1 1 1 1 1 1 1 1 1 1 1 1 1 1 1 1 1 1 1 1 1 1 1 1 1 1 1 1 1 1 1 1 1 1 1 1 1 1 1 1 1 1 1 1 1 1 1 1 1 1 1 1 1 1 1 1 1 1 1 1 1 1 1 1 1 1 1 1 1 1 1 1 1 1 1 1 1 1 1 1 1 1 1 1 1 1 1 1 1 1 1 1 1 1 1 1 1 1 1 1 1 1 1 1 1 1 1 1 1 1 1 1 1 1 1 1 1 1 1 1 1 1 1 1 1 1 1 1 1 1 1 1 1 1 1 1 1 1 1 1 1 1 1 1 1 1 1 1 1 1 1 1 1 1 1 1 1 1 1 1 1 1 1 1 1 1 1 1 1 1 1 1 1 1 1 1 1 1 1 1 1 1 1 1 1 1 1 1 1 1 1 1 1 1 1 1 1 1 1 1 1 1 1 1 1 1 1 1 1 1 1 1 1 1 1 1 1 1 1 1 1 1 1 1 1 1 1 1 1 1 1 1 1 1 1 1 1 1 1 1 1 1 1 1 1 1 1 1 1 1 1 1 1 1 1 1 1 1 1 1 1 1 1 1 1 1 1 1 1 1 1 1 1 1 1 1 1 1 1 1 1 1 1 1 1 1 1 1 1 1 1 1 1 1 1 1 1 1 1 1 1 1 1 1 1 1 1 1 1 1 1 1 1 1 1 1 1 1 1 1 1 1 1 1 1 1 1 1 1 1 1 1 1 1 1 1 1 1 1 1 1 1 1 1 1 1 1 1 1 1 1 1 1 1 1 1 1 1 1 1 1 1 1 1 1 1 1 1 1 1 1 1 1 1 1 1 1 1 1 1 1 1 1 1 1 1 1 1 1 1 1 1 1 1 1 1 1 1 1 1 1 1 1 1 1 1 1 1 1 1 1 1 1 1 1 1 1 1 1 1 1 1 1 1 1 1 1 1 1 1 1 1 1 1 1 1 1 1 1 1 1 1 1 1 1 1 1 1 1 1 1 1 1 1 1 1 1 1 1 1 1 1 1 1 1 1 1 1 1 1 1 1 1 1 1 1 1 1 1 1 1 1 1 1 1 1 1 1 1 1 1 1 1 1 1 1 1 1 1 1 1 1 1 1 1 1 1 1 1 1 1 1 1 1 1 1 1 1 1 1 1 1 1 1 1 1 1 1 1 1 1 1 1 1 1 1 1 1 1 1 1 1 1 1 1 1 1 1 1 1 1 1 1 1 1 1 1 1 1 1 1 1 1 1 1 1 1 1 1 1 
        </DataArray>
      </CellData>
      <Points>
        <DataArray type="Float64" NumberOfComponents="3" format="ascii">
          0 0 0 1 0 0 1 1 0 0 1 0 0.5 0.5 0 0.5 0 0 0 0.5 0 1 0.5 0 0.5 1 0 0.25 0.25 0 0.75 0.25 0 0.75 0.75 0 0.25 0.75 0 0.25 0 0 0 0.25 0 0.75 0 0 1 0.25 0 1 0.75 0 0.75 1 0 0 0.75 0 0.25 1 0 0.5 0.25 0 0.25 0.5 0 0.75 0.5 0 0.5 0.75 0 0.125 0.125 0 0.875 0.125 0 0.875 0.875 0 0.125 0.875 0 0.375 0.375 0 0.625 0.375 0 0.625 0.625 0 0.375 0.625 0 0.375 0.125 0 0.625 0.125 0 0.125 0.375 0 0.125 0.625 0 0.875 0.375 0 0.875 0.625 0 0.625 0.875 0 0.375 0.875 0 0.125 0 0 0 0.125 0 0.875 0 0 1 0.125 0 1 0.875 0 0.875 1 0 0 0.875 0 0.125 1 0 0.5 0.375 0 0.375 0.5 0 0.625 0.5 0 0.5 0.625 0 0.375 0 0 0.625 0 0 0.5 0.125 0 0 0.375 0 0 0.625 0 0.125 0.5 0 1 0.375 0 1 0.625 0 0.875 0.5 0 0.625 1 0 0.375 1 0 0.5 0.875 0 0.25 0.125 0 0.125 0.25 0 0.375 0.25 0 0.25 0.375 0 0.75 0.125 0 0.875 0.25 0 0.625 0.25 0 0.75 0.375 0 0.875 0.75 0 0.75 0.875 0 0.75 0.625 0 0.625 0.75 0 0.125 0.75 0 0.25 0.875 0 0.25 0.625 0 0.375 0.75 0 0.4375 0.4375 0 0.5625 0.4375 0 0.5625 0.5625 0 0.4375 0.5625 0 0.0625 0.4375 0 0.0625 0.5625 0 0.3125 0.6875 0 0.1875 0.6875 0 0.3125 0.8125 0 0.0625 0.6875 0 0.3125 0.4375 0 0.3125 0.5625 0 0.1875 0.4375 0 0.1875 0.5625 0 0.5625 0.6875 0 0.4375 0.6875 0 0.5 0.4375 0 0.4375 0.5 0 0.5 0.5625 0 0.3125 0.3125 0 0.3125 0.75 0 0.4375 0.3125 0 0.3125 0.5 0 0.1875 0.5 0 0.25 0.4375 0 0.25 0.5625 0 0.4375 0.8125 0 0.4375 0.75 0 0.4375 0.375 0 0.375 0.4375 0 0.3125 0.375 0 0.375 0.5625 0 0.4375 0.625 0 0.3125 0.625 0 0.375 0.6875 0 0.25 0.6875 0 0.28125 0.46875 0 0.28125 0.53125 0 0.21875 0.53125 0 0.40625 0.40625 0 0.34375 0.40625 0 0.40625 0.59375 0 0.34375 0.65625 0 0.34375 0.59375 0 0.1875 0.625 0 0.40625 0.46875 0 0.40625 0.53125 0 0.34375 0.46875 0 0.34375 0.53125 0 0.28125 0.65625 0 0.28125 0.59375 0 0.21875 0.59375 0 0.46875 0.53125 0 0.28125 0.5 0 0.25 0.53125 0 0.40625 0.65625 0 0.375 0.59375 0 0.40625 0.625 0 0.34375 0.625 0 0.40625 0.5 0 0.34375 0.5 0 0.375 0.46875 0 0.375 0.53125 0 0.46875 0.59375 0 0.4375 0.53125 0 0.40625 0.5625 0 0.4375 0.59375 0 0.3125 0.46875 0 0.3125 0.53125 0 0.28125 0.5625 0 0.34375 0.5625 0 0.3125 0.59375 0 0.5625 0.5 0 0.46875 0.46875 0 0.53125 0.46875 0 0.53125 0.53125 0 0.46875 0.5 0 0.5 0.53125 0 0 0.4375 0 0 0.5625 0 0.0625 0.5 0 0.5625 0.9375 0 0.4375 0.9375 0 0.6875 0.6875 0 0.1875 0.8125 0 0.1875 0.75 0 0.25 0.8125 0 0.28125 0.71875 0 0.21875 0.71875 0 0.28125 0.78125 0 0.0625 0.8125 0 0 0.6875 0 0.0625 0.75 0 0.3125 0.9375 0 0.5625 0.3125 0 0.4375 0.1875 0 0.5 0.3125 0 0.4375 0.25 0 0.6875 0.4375 0 0.6875 0.5625 0 0.5625 0.8125 0 0.5 0.6875 0 0.5 0.8125 0 0.5625 0.75 0 0.46875 0.71875 0 0.46875 0.78125 0 0.375 0.3125 0 0.40625 0.34375 0 0.40625 0.375 0 0.375 0.40625 0 0.5625 0.375 0 0.625 0.4375 0 0.625 0.5625 0 0.5625 0.625 0 0.625 0.6875 0 0.375 0.65625 0 0.0625 0.625 0 0.125 0.5625 0 0.125 0.6875 0 0.15625 0.65625 0 0.15625 0.59375 0 0.4375 0.875 0 0.3125 0.875 0 0.375 0.8125 0 0.46875 0.40625 0 0.53125 0.40625 0 0.46875 0.34375 0 0.53125 0.59375 0 0.46875 0.65625 0 0.5 0.59375 0 0.46875 0.625 0 0.15625 0.53125 0 0.21875 0.65625 0 0.28125 0.625 0 0.25 0.65625 0 0.21875 0.625 0 0.34375 0.71875 0 0.34375 0.78125 0 0.40625 0.71875 0 0.40625 0.78125 0 0.4375 0.46875 0 0.4375 0.40625 0 0.40625 0.4375 0 0.3125 0.65625 0 0.34375 0.6875 0 0.28125 0.6875 0 0.1875 0.59375 0 0.4375 0.65625 0 0.40625 0.6875 0 0.53125 0.5 0 0.4375 0.0625 0 0.03125 0.46875 0 0.03125 0.53125 0 0.4375 1 0 0.5 0.9375 0 0.3125 0.1875 0 0.1875 0.3125 0 0.3125 0.25 0 0.25 0.3125 0 0.6875 0.3125 0 0.8125 0.6875 0 0.6875 0.8125 0 0.75 0.6875 0 0.6875 0.75 0 0.21875 0.78125 0 0.25 0.78125 0 0.1875 0.9375 0 0.3125 1 0 0.25 0.9375 0 0.5625 0.1875 0 0.5 0.1875 0 0.5625 0.25 0 0.46875 0.28125 0 0.53125 0.28125 0 0.46875 0.21875 0 0.8125 0.4375 0 0.8125 0.5625 0 0.6875 0.5 0 0.75 0.4375 0 0.75 0.5625 0 0.53125 0.71875 0 0.46875 0.75 0 0.53125 0.78125 0 0.5 0.71875 0 0.5 0.78125 0 0.1875 0.875 0 0.34375 0.34375 0 0.375 0.34375 0 0.625 0.3125 0 0.6875 0.375 0 0.59375 0.40625 0 0.59375 0.34375 0 0.65625 0.40625 0 0.6875 0.625 0 0.59375 0.59375 0 0.59375 0.65625 0 0.65625 0.65625 0 0.65625 0.59375 0 0.4375 0.125 0 0.375 0.1875 0 0.125 0.4375 0 0.5625 0.875 0 0.625 0.8125 0 0.375 0.9375 0 0.34375 0.84375 0 0.40625 0.84375 0 0.40625 0.90625 0 0.34375 0.90625 0 0.53125 0.34375 0 0.5 0.34375 0 0.53125 0.375 0 0.59375 0.46875 0 0.59375 0.53125 0 0.65625 0.46875 0 0.65625 0.53125 0 0.53125 0.65625 0 0.53125 0.625 0 0.03125 0.59375 0 0.03125 0.65625 0 0.09375 0.53125 0 0.15625 0.46875 0 0.15625 0.5 0 0.125 0.53125 0 0.46875 0.84375 0 0.46875 0.90625 0 0.53125 0.84375 0 0.34375 0.28125 0 0.40625 0.28125 0 0.40625 0.21875 0 0.59375 0.71875 0 0.65625 0.71875 0 0.59375 0.78125 0 0.28125 0.84375 0 0.21875 0.84375 0 0.28125 0.90625 0 0.34375 0.75 0 0.40625 0.75 0 0.375 0.78125 0 0.53125 0.4375 0 0.5625 0.46875 0 0.5625 0.40625 0 0.5625 0.53125 0 0.5625 0.59375 0 0.3125 0.78125 0 0.28125 0.8125 0 0.34375 0.8125 0 0.15625 0.5625 0 0.46875 0.3125 0 0.40625 0.3125 0 0.4375 0.78125 0 0.46875 0.8125 0 0.40625 0.8125 0 
        </DataArray>
      </Points>
      <Cells>
        <DataArray type="Int32" Name="connectivity" format="ascii">
          69 34 15 66 35 14 73 38 17 65 25 13 74 27 18 70 26 16 43 26 15 42 25 14 45 27 17 53 33 13 62 39 18 59 37 16 61 37 7 54 34 5 60 38 7 41 25 0 46 27 2 47 28 3 44 26 1 69 26 10 66 25 9 73 27 11 70 37 10 71 34 10 72 10 37 69 10 34 65 9 25 74 11 27 70 10 26 43 1 26 48 3 28 42 0 25 45 2 27 59 7 37 55 5 34 61 7 38 54 15 34 56 14 35 60 17 38 41 13 25 46 18 27 44 16 26 69 15 26 66 14 25 73 17 27 65 13 33 74 18 39 70 16 37 85 56 35 93 35 68 111 91 68 105 93 68 104 93 22 105 22 93 105 68 91 111 68 100 119 106 94 117 105 91 121 110 91 121 111 29 119 104 22 132 106 79 131 79 106 117 22 105 121 91 111 119 94 104 132 94 106 128 91 110 133 99 84 151 129 112 145 127 98 148 128 103 150 131 106 149 118 103 146 122 112 152 124 114 137 124 112 138 122 113 139 123 114 134 117 103 135 118 106 141 129 103 140 126 98 143 127 112 142 128 110 143 129 50 142 126 50 140 127 50 141 128 50 135 119 22 134 118 22 137 122 32 139 124 32 151 124 92 147 122 84 148 117 91 150 118 92 149 129 92 146 127 84 152 131 92 144 84 99 151 92 129 145 84 127 148 91 128 150 92 131 149 92 118 146 84 122 152 92 124 137 32 124 138 32 122 139 32 123 134 22 117 135 22 118 141 50 129 140 50 126 143 50 127 142 50 128 143 112 129 142 110 126 140 98 127 141 103 128 135 106 119 134 103 118 137 112 122 139 114 124 151 112 124 147 113 122 148 103 117 150 106 118 149 103 129 146 112 127 152 114 131 147 144 113 138 136 32 145 133 84 147 84 144 138 113 136 145 98 133 171 77 28 162 62 8 171 47 19 199 88 77 161 85 58 173 90 77 172 90 19 197 86 36 199 90 36 217 101 87 205 97 81 208 99 83 212 104 94 185 108 96 168 101 12 154 97 4 206 97 49 217 115 80 205 109 49 207 109 102 213 116 88 200 125 88 223 126 110 224 130 114 225 123 115 222 120 109 190 120 110 214 131 114 201 125 36 169 116 12 214 130 79 196 123 32 189 120 29 190 121 29 223 120 81 224 123 87 221 126 81 227 132 125 215 130 116 216 132 79 226 130 87 228 136 113 196 136 115 157 133 98 210 144 99 211 144 52 158 133 4 229 136 96 165 28 77 162 39 62 171 28 47 197 36 90 198 36 86 173 19 90 159 56 85 166 77 88 199 77 90 219 80 115 205 49 97 155 4 97 170 12 101 168 87 101 154 81 97 156 83 99 219 96 108 207 49 109 188 102 109 168 12 116 200 36 125 223 81 126 224 87 130 225 87 123 222 81 120 190 29 120 214 79 131 169 88 116 213 88 125 214 114 130 196 115 123 189 109 120 190 110 121 223 110 120 224 114 123 221 98 126 227 94 132 215 79 130 216 125 132 226 116 130 228 96 136 196 32 136 157 4 133 210 52 144 211 113 144 158 99 133 229 115 136 166 165 77 209 182 96 169 166 88 229 219 115 221 154 98 158 156 99 211 209 113 189 188 109 226 168 116 216 213 125 173 171 19 200 199 36 210 208 52 157 154 4 225 217 87 222 205 81 228 209 96 215 213 79 227 201 94 209 52 182 169 12 166 201 36 198 229 96 219 221 81 154 158 4 156 211 52 209 189 29 188 226 87 168 216 79 213 173 77 171 200 88 199 185 96 182 210 99 208 157 98 154 225 115 217 222 109 205 228 113 209 215 116 213 227 125 201 256 72 37 247 48 28 250 55 34 257 61 38 236 65 33 242 74 39 237 68 35 241 75 38 237 66 9 241 73 11 240 71 10 231 53 5 256 61 23 281 85 35 239 100 68 238 100 9 267 111 100 269 175 71 274 180 75 282 162 64 284 163 63 243 164 75 251 176 55 248 174 63 259 179 72 296 194 95 299 197 90 300 198 86 293 193 83 298 160 86 310 184 95 261 182 95 233 161 86 232 159 85 285 203 89 271 192 82 276 195 95 304 202 107 307 187 100 308 178 102 319 155 97 324 170 101 317 219 108 316 218 101 330 220 108 262 186 108 249 174 20 260 180 23 258 179 23 235 162 8 234 163 8 244 164 11 279 176 33 282 181 39 276 194 31 271 191 30 275 193 31 285 204 40 233 160 6 232 161 6 261 184 24 296 182 52 299 172 57 300 161 58 293 153 51 313 203 78 292 192 51 298 197 57 310 195 76 286 202 40 253 178 21 316 217 80 302 212 58 262 185 24 304 183 64 308 187 67 319 206 82 324 218 89 317 220 80 330 186 107 315 203 174 294 192 179 311 195 164 306 183 181 289 177 175 321 206 191 326 218 204 322 156 153 327 201 198 331 186 183 329 188 187 255 178 176 263 184 181 245 167 165 287 202 163 272 191 175 278 193 180 246 170 167 230 155 153 264 185 182 297 208 194 303 212 198 290 207 177 318 220 204 288 203 40 273 192 30 277 195 31 245 166 12 254 177 21 291 206 49 318 218 80 230 156 4 265 186 24 268 188 29 309 178 67 312 184 76 314 167 78 305 202 64 295 193 51 325 170 89 320 155 82 323 208 83 327 212 94 328 207 102 332 220 107 247 20 48 257 23 61 231 5 55 240 10 72 236 9 65 242 11 74 237 35 66 241 38 73 231 33 53 256 37 61 250 34 71 257 38 75 281 35 93 281 58 85 239 9 100 301 93 104 267 29 111 280 33 176 283 39 181 282 39 162 266 28 165 243 11 164 235 8 163 248 20 174 258 23 180 259 23 179 299 57 197 293 51 193 313 78 167 292 51 153 298 57 160 310 76 184 233 6 161 232 6 159 285 40 203 275 31 194 271 30 192 276 31 195 304 64 202 307 67 187 308 67 178 319 82 155 324 89 170 253 21 177 286 40 204 317 80 219 316 80 218 330 107 220 262 24 186 252 71 175 260 75 180 235 64 162 234 63 163 274 75 164 279 55 176 284 63 174 270 72 179 276 95 194 275 83 193 233 86 160 232 85 161 261 95 184 296 95 182 299 90 172 300 86 161 313 89 203 292 82 192 298 86 197 310 95 195 286 107 202 267 100 187 253 102 178 316 101 217 302 104 212 262 108 185 319 97 206 324 101 218 317 108 220 330 108 186 315 78 203 294 51 192 311 76 195 306 64 183 321 82 206 326 89 218 322 83 156 327 94 201 331 107 186 329 102 188 255 21 178 263 24 184 287 40 202 272 30 191 278 31 193 246 12 170 230 4 155 264 24 185 297 52 208 303 58 212 290 49 207 318 80 220 288 174 203 273 179 192 277 164 195 245 165 166 263 181 183 254 175 177 291 191 206 318 204 218 230 153 156 265 183 186 268 187 188 309 176 178 312 181 184 314 165 167 305 163 202 289 175 191 295 180 193 325 167 170 320 153 155 323 194 208 327 198 212 328 177 207 332 204 220 279 231 55 270 240 72 238 236 67 244 242 76 249 247 78 252 250 71 260 257 75 301 281 93 302 301 104 309 280 176 312 283 181 314 266 165 305 235 163 295 258 180 325 313 167 320 292 153 323 275 194 328 253 177 332 286 204 254 252 175 277 274 164 288 284 174 273 270 179 268 267 187 265 263 183 291 289 191 259 256 23 251 250 21 239 237 9 243 241 11 280 236 33 283 242 39 269 240 30 266 247 28 307 238 67 272 269 30 278 274 31 287 284 40 255 251 21 297 296 52 303 300 58 264 261 24 315 249 78 294 258 51 311 244 76 306 282 64 321 271 82 326 285 89 322 293 83 331 304 107 329 308 102 290 289 49 246 245 12 279 33 231 270 30 240 238 9 236 244 11 242 249 20 247 252 21 250 260 23 257 301 58 281 302 58 301 309 67 280 312 76 283 314 78 266 305 64 235 295 51 258 325 89 313 320 82 292 323 83 275 328 102 253 332 107 286 254 21 252 277 31 274 288 40 284 273 30 270 268 29 267 265 24 263 291 49 289 259 72 256 251 55 250 239 68 237 243 75 241 280 67 236 283 76 242 269 71 240 266 78 247 307 100 238 272 175 269 278 180 274 287 163 284 255 176 251 297 194 296 303 198 300 264 182 261 315 174 249 294 179 258 311 164 244 306 181 282 321 191 271 326 204 285 322 153 293 331 183 304 329 187 308 290 177 289 246 167 245 
        </DataArray>
        <DataArray type="Int32" Name="offsets" format="ascii">
          3 6 9 12 15 18 21 24 27 30 33 36 39 42 45 48 51 54 57 60 63 66 69 72 75 78 81 84 87 90 93 96 99 102 105 108 111 114 117 120 123 126 129 132 135 138 141 144 147 150 153 156 159 162 165 168 171 174 177 180 183 186 189 192 195 198 201 204 207 210 213 216 219 222 225 228 231 234 237 240 243 246 249 252 255 258 261 264 267 270 273 276 279 282 285 288 291 294 297 300 303 306 309 312 315 318 321 324 327 330 333 336 339 342 345 348 351 354 357 360 363 366 369 372 375 378 381 384 387 390 393 396 399 402 405 408 411 414 417 420 423 426 429 432 435 438 441 444 447 450 453 456 459 462 465 468 471 474 477 480 483 486 489 492 495 498 501 504 507 510 513 516 519 522 525 528 531 534 537 540 543 546 549 552 555 558 561 564 567 570 573 576 579 582 585 588 591 594 597 600 603 606 609 612 615 618 621 624 627 630 633 636 639 642 645 648 651 654 657 660 663 666 669 672 675 678 681 684 687 690 693 696 699 702 705 708 711 714 717 720 723 726 729 732 735 738 741 744 747 750 753 756 759 762 765 768 771 774 777 780 783 786 789 792 795 798 801 804 807 810 813 816 819 822 825 828 831 834 837 840 843 846 849 852 855 858 861 864 867 870 873 876 879 882 885 888 891 894 897 900 903 906 909 912 915 918 921 924 927 930 933 936 939 942 945 948 951 954 957 960 963 966 969 972 975 978 981 984 987 990 993 996 999 1002 1005 1008 1011 1014 1017 1020 1023 1026 1029 1032 1035 1038 1041 1044 1047 1050 1053 1056 1059 1062 1065 1068 1071 1074 1077 1080 1083 1086 1089 1092 1095 1098 1101 1104 1107 1110 1113 1116 1119 1122 1125 1128 1131 1134 1137 1140 1143 1146 1149 1152 1155 1158 1161 1164 1167 1170 1173 1176 1179 1182 1185 1188 1191 1194 1197 1200 1203 1206 1209 1212 1215 1218 1221 1224 1227 1230 1233 1236 1239 1242 1245 1248 1251 1254 1257 1260 1263 1266 1269 1272 1275 1278 1281 1284 1287 1290 1293 1296 1299 1302 1305 1308 1311 1314 1317 1320 1323 1326 1329 1332 1335 1338 1341 1344 1347 1350 1353 1356 1359 1362 1365 1368 1371 1374 1377 1380 1383 1386 1389 1392 1395 1398 1401 1404 1407 1410 1413 1416 1419 1422 1425 1428 1431 1434 1437 1440 1443 1446 1449 1452 1455 1458 1461 1464 1467 1470 1473 1476 1479 1482 1485 1488 1491 1494 1497 1500 1503 1506 1509 1512 1515 1518 1521 1524 1527 1530 1533 1536 1539 1542 1545 1548 1551 1554 1557 1560 1563 1566 1569 1572 1575 1578 1581 1584 1587 1590 1593 1596 1599 1602 1605 1608 1611 1614 1617 1620 1623 1626 1629 1632 1635 1638 1641 1644 1647 1650 1653 1656 1659 1662 1665 1668 1671 1674 1677 1680 1683 1686 1689 1692 1695 1698 1701 1704 1707 1710 1713 1716 1719 1722 1725 1728 1731 1734 1737 1740 1743 1746 1749 1752 1755 1758 1761 1764 1767 1770 1773 1776 1779 1782 1785 1788 1791 1794 1797 1800 1803 1806 1809 1812 1815 1818 1821 1824 1827 1830 1833 1836 1839 1842 1845 1848 1851 1854 1857 1860 1863 1866 1869 1872 1875 1878 1881 
        </DataArray>
        <DataArray type="UInt8" Name="types" format="ascii">
          5 5 5 5 5 5 5 5 5 5 5 5 5 5 5 5 5 5 5 5 5 5 5 5 5 5 5 5 5 5 5 5 5 5 5 5 5 5 5 5 5 5 5 5 5 5 5 5 5 5 5 5 5 5 5 5 5 5 5 5 5 5 5 5 5 5 5 5 5 5 5 5 5 5 5 5 5 5 5 5 5 5 5 5 5 5 5 5 5 5 5 5 5 5 5 5 5 5 5 5 5 5 5 5 5 5 5 5 5 5 5 5 5 5 5 5 5 5 5 5 5 5 5 5 5 5 5 5 5 5 5 5 5 5 5 5 5 5 5 5 5 5 5 5 5 5 5 5 5 5 5 5 5 5 5 5 5 5 5 5 5 5 5 5 5 5 5 5 5 5 5 5 5 5 5 5 5 5 5 5 5 5 5 5 5 5 5 5 5 5 5 5 5 5 5 5 5 5 5 5 5 5 5 5 5 5 5 5 5 5 5 5 5 5 5 5 5 5 5 5 5 5 5 5 5 5 5 5 5 5 5 5 5 5 5 5 5 5 5 5 5 5 5 5 5 5 5 5 5 5 5 5 5 5 5 5 5 5 5 5 5 5 5 5 5 5 5 5 5 5 5 5 5 5 5 5 5 5 5 5 5 5 5 5 5 5 5 5 5 5 5 5 5 5 5 5 5 5 5 5 5 5 5 5 5 5 5 5 5 5 5 5 5 5 5 5 5 5 5 5 5 5 5 5 5 5 5 5 5 5 5 5 5 5 5 5 5 5 5 5 5 5 5 5 5 5 5 5 5 5 5 5 5 5 5 5 5 5 5 5 5 5 5 5 5 5 5 5 5 5 5 5 5 5 5 5 5 5 5 5 5 5 5 5 5 5 5 5 5 5 5 5 5 5 5 5 5 5 5 5 5 5 5 5 5 5 5 5 5 5 5 5 5 5 5 5 5 5 5 5 5 5 5 5 5 5 5 5 5 5 5 5 5 5 5 5 5 5 5 5 5 5 5 5 5 5 5 5 5 5 5 5 5 5 5 5 5 5 5 5 5 5 5 5 5 5 5 5 5 5 5 5 5 5 5 5 5 5 5 5 5 5 5 5 5 5 5 5 5 5 5 5 5 5 5 5 5 5 5 5 5 5 5 5 5 5 5 5 5 5 5 5 5 5 5 5 5 5 5 5 5 5 5 5 5 5 5 5 5 5 5 5 5 5 5 5 5 5 5 5 5 5 5 5 5 5 5 5 5 5 5 5 5 5 5 5 5 5 5 5 5 5 5 5 5 5 5 5 5 5 5 5 5 5 5 5 5 5 5 5 5 5 5 5 5 5 5 5 5 5 5 5 5 5 5 5 5 5 5 5 5 5 5 5 5 5 5 5 5 5 5 5 5 5 5 5 5 5 5 5 5 5 5 5 5 5 5 
        </DataArray>
      </Cells>
    </Piece>
  </UnstructuredGrid>
</VTKFile>
