<?xml version="1.0"?>
<VTKFile type="UnstructuredGrid" version="0.1" byte_order="LittleEndian">
  <UnstructuredGrid>
    <Piece NumberOfPoints="41" NumberOfCells="64">
      <PointData>
      </PointData>
      <CellData>
        <DataArray type="Float64" Name="eta_H_T" NumberOfComponents="1" format="ascii">
          0 0 0 0 0 0 0 0 0 0 0 0 0 0 0 0 0 0 0 0 0 0 0 0 0 0 0 0 0 0 0 0 0 0 0 0 0 0 0 0 0 0 0 0 0 0 0 0 0 0 0 0 0 0 0 0 0 0 0 0 0 0 0 0 
        </DataArray>
        <DataArray type="Int32" Name="eta_H_T_available" NumberOfComponents="1" format="ascii">
          0 0 0 0 0 0 0 0 0 0 0 0 0 0 0 0 0 0 0 0 0 0 0 0 0 0 0 0 0 0 0 0 0 0 0 0 0 0 0 0 0 0 0 0 0 0 0 0 0 0 0 0 0 0 0 0 0 0 0 0 0 0 0 0 
        </DataArray>
      </CellData>
      <Points>
        <DataArray type="Float64" NumberOfComponents="3" format="ascii">
          0 0 0 1 0 0 1 1 0 0 1 0 0.5 0.5 0 0.5 0 0 0 0.5 0 1 0.5 0 0.5 1 0 0.25 0.25 0 0.75 0.25 0 0.75 0.75 0 0.25 0.75 0 0.25 0 0 0 0.25 0 0.75 0 0 1 0.25 0 1 0.75 0 0.75 1 0 0 0.75 0 0.25 1 0 0.5 0.25 0 0.25 0.5 0 0.75 0.5 0 0.5 0.75 0 0.125 0.125 0 0.875 0.125 0 0.875 0.875 0 0.125 0.875 0 0.375 0.375 0 0.625 0.375 0 0.625 0.625 0 0.375 0.625 0 0.375 0.125 0 0.625 0.125 0 0.125 0.375 0 0.125 0.625 0 0.875 0.375 0 0.875 0.625 0 0.625 0.875 0 0.375 0.875 0 
        </DataArray>
      </Points>
      <Cells>
        <DataArray type="Int32" Name="connectivity" format="ascii">
          33 21 9 39 24 11 36 22 12 37 23 10 34 15 10 40 20 12 35 14 9 38 17 11 25 13 9 27 18 11 28 19 12 26 16 10 30 21 10 32 24 12 29 22 9 31 23 11 29 21 4 31 24 4 32 22 4 30 23 4 26 15 1 28 20 3 25 14 0 27 17 2 33 13 5 39 18 8 36 19 6 37 16 7 34 21 5 40 24 8 35 22 6 38 23 7 33 5 21 39 8 24 36 6 22 37 7 23 34 5 15 40 8 20 35 6 14 38 7 17 25 0 13 27 2 18 28 3 19 26 1 16 30 4 21 32 4 24 29 4 22 31 4 23 29 9 21 31 11 24 32 12 22 30 10 23 26 10 15 28 12 20 25 9 14 27 11 17 33 9 13 39 11 18 36 12 19 37 10 16 34 10 21 40 12 24 35 9 22 38 11 23 
        </DataArray>
        <DataArray type="Int32" Name="offsets" format="ascii">
          3 6 9 12 15 18 21 24 27 30 33 36 39 42 45 48 51 54 57 60 63 66 69 72 75 78 81 84 87 90 93 96 99 102 105 108 111 114 117 120 123 126 129 132 135 138 141 144 147 150 153 156 159 162 165 168 171 174 177 180 183 186 189 192 
        </DataArray>
        <DataArray type="UInt8" Name="types" format="ascii">
          5 5 5 5 5 5 5 5 5 5 5 5 5 5 5 5 5 5 5 5 5 5 5 5 5 5 5 5 5 5 5 5 5 5 5 5 5 5 5 5 5 5 5 5 5 5 5 5 5 5 5 5 5 5 5 5 5 5 5 5 5 5 5 5 
        </DataArray>
      </Cells>
    </Piece>
  </UnstructuredGrid>
</VTKFile>
