<?xml version="1.0"?>
<VTKFile type="UnstructuredGrid" version="0.1" byte_order="LittleEndian">
  <UnstructuredGrid>
    <Piece NumberOfPoints="289" NumberOfCells="512">
      <PointData>
        <DataArray type="Float64" Name="u_exact_real" NumberOfComponents="1" format="ascii">
          0 -0 -0 0 -0.41614683654714241 -0 0 -0 -0 0.17095502646609109 -0.31323981337748469 -0.31323981337748469 0.17095502646609109 0 0 -0 -0 -0 -0 0 0 -0.23408259555776761 0.30392004705082865 -0.55687077933775053 -0.23408259555776761 0.032151424119549334 -0.034308357333148222 -0.034308357333148222 0.032151424119549334 0.054642804480399466 -0.61886437281896234 -0.61886437281896234 0.054642804480399466 0.011899988531286996 -0.13477490785835181 0.14763409034486938 0.14763409034486938 -0.15753837550935409 -0.15753837550935409 -0.13477490785835181 0.011899988531286996 0 0 -0 -0 -0 -0 0 0 -0.36575405555901186 0.062171368653254511 -0.70413013085179721 -0.36575405555901186 0 -0 -0.079653105432851479 0 0 0.16797478723682915 -0 -0 -0.17924366280175399 -0 0 -0.079653105432851479 0.058172196505822664 0.094485817820716397 0.034971394867455659 0.26711722885326733 -0.10658854760761631 -0.10082456032598662 -0.39607319860413592 -0.4894372084023198 -0.10082456032598662 -0.10658854760761631 -0.4894372084023198 -0.39607319860413592 0.094485817820716397 0.058172196505822664 0.26711722885326733 0.034971394867455659 0.0029236788361729021 -0.0024760256686994588 -0.0024760256686994588 0.0029236788361729021 -0.1673640705973076 -0.58982339978099008 -0.58982339978099008 -0.1673640705973076 -0.0094877591041557588 -0.033436700667856582 0.051573694670089994 0.051573694670089994 -0.043677092795858456 -0.043677092795858456 -0.033436700667856582 -0.0094877591041557588 0.10089391639806754 0.17198304488618407 0.086474780585747424 0.20066015588701797 -0.13708235931166737 -0.50413277467928452 -0.25348295877262539 -0.27263256865075203 -0.13708235931166737 -0.50413277467928452 -0.27263256865075203 -0.25348295877262539 0.10089391639806754 0.17198304488618407 0.20066015588701797 0.086474780585747424 0.01492513556184431 0.012792127305583939 0.019764068932528817 0.039307237686324568 -0.020278455519477424 -0.03749747910837653 -0.016737933520408341 -0.033288789545848282 -0.016737933520408341 -0.033288789545848282 -0.020278455519477424 -0.03749747910837653 0.019764068932528817 0.039307237686324568 0.01492513556184431 0.012792127305583939 -0.12755765017809409 -0.44953786453451627 -0.06413725154409293 -0.22603209651471048 0.22565312567050066 0.22565312567050066 0.26327939131093364 0.26327939131093364 -0.66145553147176206 -0.66145553147176206 -0.35771195536358175 -0.35771195536358175 -0.44953786453451627 -0.12755765017809409 -0.22603209651471048 -0.06413725154409293 0 0 -0 -0 -0 -0 0 0 -0.4032438462538106 -0.1727193835138755 -0.60869655971351355 -0.4032438462538106 -0 -0 -0.022859628472438241 0 0 0.053223948946507588 -0 -0 -0.045074671728857707 -0 -0 -0.022859628472438241 0.11285702919050546 0.15283338815328573 0.13099138360917953 0.22445267146698158 -0.20678722054998011 -0.20765138451944881 -0.38397418606977568 -0.41126320983806042 -0.20765138451944881 -0.20678722054998011 -0.41126320983806042 -0.38397418606977568 0.15283338815328573 0.11285702919050546 0.22445267146698158 0.13099138360917953 0 0 0.016694826803329208 0 0 0.029938471282410516 -0 -0 -0.030589825525144988 -0 -0 -0.02535450284748246 -0 -0 -0.02535450284748246 -0 -0 -0.030589825525144988 0 0 0.029938471282410516 0 0 0.016694826803329208 -0.30733500501833638 -0.15453108847368252 -0.097154653226554977 -0.34239181483885139 0.2328735708607636 0.27170380116139686 0.29449674481072724 0.29449674481072724 -0.68262077523515685 -0.36915801692346456 -0.5396045222635576 -0.5396045222635576 -0.30733500501833638 -0.15453108847368252 -0.34239181483885139 -0.097154653226554977 0.0092271306465543362 0.010187396478042468 0.052005805691048623 0.062375403170707312 -0.0098461484693346309 -0.0086275738856016713 -0.07065915167675689 -0.0665599636527021 -0.0086275738856016713 -0.0098461484693346309 -0.0665599636527021 -0.07065915167675689 0.010187396478042468 0.0092271306465543362 0.062375403170707312 0.052005805691048623 -0.15180414566649214 0.060243691939640416 0.045915134320335664 0.20467403688934302 -0.53498721068570532 -0.68229797103290601 -0.52001797993815591 -0.59995966573402448 -0.68229797103290601 -0.53498721068570532 -0.59995966573402448 -0.52001797993815591 0.060243691939640416 -0.15180414566649214 0.20467403688934302 0.045915134320335664 0.0034151752800249667 -0.033059569500702733 0.044573456922568033 0.023086584892968776 -0.038679023301185146 -0.11650832588266472 -0.13065788275985424 -0.26147019751601158 0.046778861378766433 0.16276658460521848 0.12405364535923052 0.23880216898950896 0.046778861378766433 0.16276658460521848 0.12405364535923052 0.23880216898950896 -0.039616410699191341 -0.17368605899906289 -0.13237599608772113 -0.32445528831163878 -0.039616410699191341 -0.17368605899906289 -0.13237599608772113 -0.32445528831163878 -0.038679023301185146 -0.11650832588266472 -0.13065788275985424 -0.26147019751601158 0.0034151752800249667 -0.033059569500702733 0.044573456922568033 0.023086584892968776 
        </DataArray>
        <DataArray type="Float64" Name="u_exact_imag" NumberOfComponents="1" format="ascii">
          0 -0 -0 0 0.90929742682568171 0 0 -0 0 0.26624667878687353 0.044651252550192359 0.044651252550192359 0.26624667878687353 0 0 0 -0 -0 0 0 0 0.51147980258944592 0.4733274289544418 0.079380004533675302 0.51147980258944592 0.017564403048533499 -0.012851417994427143 -0.012851417994427143 0.017564403048533499 0.77054113306930938 0.46230548546238404 0.46230548546238404 0.77054113306930938 0.16780673564620513 0.10067986127847475 0.080652871141225255 0.080652871141225255 -0.059011613239716473 -0.059011613239716473 0.10067986127847475 0.16780673564620513 0 0 -0 -0 -0 -0 0 0 0.79918719154600937 0.87670457806996971 0.52600090790386811 0.79918719154600937 0 0 0.17404521060335315 0 0 0.091765044498460735 -0 -0 -0.067142102174966301 0 0 0.17404521060335315 0.090597828198311123 0.05161783753038416 0.49314632516435797 0.41601043560448986 0.01519382899277379 -0.037767432473418544 0.29587551069592577 0.069767582109675569 -0.037767432473418544 0.01519382899277379 0.069767582109675569 0.29587551069592577 0.05161783753038416 0.090597828198311123 0.41601043560448986 0.49314632516435797 0.00074653777106167222 -0.0017246777869064302 -0.0017246777869064302 0.00074653777106167222 0.92391325507481104 0.73057155166391996 0.73057155166391996 0.92391325507481104 0.052376034868186566 0.041415620842625844 0.013168926281527897 0.013168926281527897 -0.030423316161029428 -0.030423316161029428 0.041415620842625844 0.052376034868186566 0.093992415346332917 0.51759495630804964 0.26025187720480775 0.18693429087617164 -0.014919224990753439 0.20816544386141703 0.1046676496242034 -0.029671699932300559 -0.014919224990753439 0.20816544386141703 -0.029671699932300559 0.1046676496242034 0.093992415346332917 0.51759495630804964 0.18693429087617164 0.26025187720480775 0.013904203453599544 0.038498798403078072 0.0050465953323769039 0.010036785588718037 -0.0022069859453777278 0.01548338012192358 -0.011658821839487469 -0.023187334690630893 -0.011658821839487469 -0.023187334690630893 -0.0022069859453777278 0.01548338012192358 0.0050465953323769039 0.010036785588718037 0.013904203453599544 0.038498798403078072 0.70416669100561935 0.55681001355085857 0.3540619957089412 0.2799695968961507 0.67911880383029721 0.67911880383029721 0.24527014892149596 0.24527014892149596 0.27312682535073196 0.27312682535073196 -0.038931232076463117 -0.038931232076463117 0.55681001355085857 0.70416669100561935 0.2799695968961507 0.3540619957089412 0 0 -0 -0 -0 -0 0 0 0.88110387867947526 0.95347661697818742 0.75394836876175764 0.88110387867947526 0 0 0.049949199471625585 0 0 0.013590305378971598 -0 -0 -0.031396800956305503 0 0 0.049949199471625585 0.17576440904289697 0.14237904336485932 0.39422769564751947 0.34956432436210605 0.029476803441337924 -0.022599536080667931 0.15854981244849747 0.058624148856046825 -0.022599536080667931 0.029476803441337924 0.058624148856046825 0.15854981244849747 0.14237904336485932 0.17576440904289697 0.34956432436210605 0.39422769564751947 0 0 0.026000652225280616 0 0 0.007644546775671523 -0 0 0.0043604738818547231 -0 -0 -0.017660700537921844 -0 -0 -0.017660700537921844 -0 0 0.0043604738818547231 0 0 0.007644546775671523 0 0 0.026000652225280616 0.67153923734074394 0.33765658842818891 0.53633059705023045 0.42409595742848866 0.70084923670670118 0.25311829931530549 0.45865150525395004 0.45865150525395004 0.28186633324177329 -0.04017695303229854 0.076918759275917306 0.076918759275917306 0.67153923734074394 0.33765658842818891 0.42409595742848866 0.53633059705023045 0.0050408044463265784 0.0026012693889437824 0.048448424478320186 0.034075838057167671 -0.0036882258274822796 -0.0060095439330428504 -0.0076901199163383928 -0.02493240659378021 -0.0060095439330428504 -0.0036882258274822796 -0.02493240659378021 -0.0076901199163383928 0.0026012693889437824 0.0050408044463265784 0.034075838057167671 0.048448424478320186 0.83801655789098506 0.84952159920891357 0.64746859098185017 0.61598077444924915 0.66264993348201351 0.50969179772227835 0.38846502597880883 0.24773408195077729 0.50969179772227835 0.66264993348201351 0.24773408195077729 0.38846502597880883 0.84952159920891357 0.83801655789098506 0.61598077444924915 0.64746859098185017 0.048158820816831836 0.18250138371848118 0.13414692421339203 0.32555362872178317 0.028894092841399002 0.14431042995830518 0.053950977847058164 0.19532406760785725 0.011944604336986755 0.088919790433200835 0.067770815333946216 0.2224672552575927 0.011944604336986755 0.088919790433200835 0.067770815333946216 0.2224672552575927 -0.027594844590502883 -0.065060303596787411 -0.049586147236150645 -0.035311775126043644 -0.027594844590502883 -0.065060303596787411 -0.049586147236150645 -0.035311775126043644 0.028894092841399002 0.14431042995830518 0.053950977847058164 0.19532406760785725 0.048158820816831836 0.18250138371848118 0.13414692421339203 0.32555362872178317 
        </DataArray>
        <DataArray type="Float64" Name="u_reference_real" NumberOfComponents="1" format="ascii">
          7.368638324154207e-05 0.00110172572259488 0.0011017257225954939 7.3686383241619374e-05 -0.41155398625949396 -0.00085134988942640996 -0.0048551986784439848 0.0019595714572552859 -0.00085134988942839101 0.1735704117119333 -0.31068203335414984 -0.31068203335415079 0.17357041171193302 0.0017430083350864817 -0.0023892385273144956 0.0011898595835769538 0.0016907085461106879 0.0016907085461110205 0.0011898595835759043 -0.0023892385273145138 0.001743008335085999 -0.23155606971744355 0.30625314431451828 -0.55222326871781469 -0.23155606971744494 0.033158803186133019 -0.031982648978533777 -0.031982648978534069 0.033158803186132915 0.058319724286670767 -0.61480391075432617 -0.6148039107543265 0.058319724286670531 0.014061659172369147 -0.13475086057603924 0.14721316363916773 0.14721316363916773 -0.15377001418874564 -0.15377001418874553 -0.13475086057604133 0.014061659172368089 0.0010601271471733405 -0.00068071514157705729 0.00217451703195527 0.0016196479870871662 0.0016196479870875607 0.0021745170319552513 -0.00068071514157710272 0.0010601271471732765 -0.36172086288856509 0.066059025082695913 -0.69934661257139707 -0.36172086288856581 0.00052639514114951106 -0.00052649762736512611 -0.079044030352171862 -0.004137855685826715 -0.0041378556858267211 0.16722698646138692 0.0018611393652690894 0.0018611393652693342 -0.1751349637572974 -0.00052649762736714089 0.00052639514114825295 -0.07904403035217375 0.060810987404745567 0.094835010152801352 0.038063627019102479 0.26953654346108186 -0.10550422011107603 -0.097843887696203335 -0.39391128134882464 -0.48538417810657863 -0.09784388769620353 -0.10550422011107738 -0.48538417810657863 -0.39391128134882614 0.094835010152801283 0.060810987404745206 0.2695365434610818 0.038063627019101764 0.0030827472582639374 -0.00031429009925724473 -0.00031429009925704247 0.0030827472582638875 -0.1631463761753483 -0.58525542053101798 -0.58525542053101831 -0.16314637617534841 -0.0089239245787825772 -0.033987027561912651 0.048540811116569736 0.04854081111656975 -0.040564214463160879 -0.040564214463160775 -0.033987027561914837 -0.0089239245787841644 0.10280958774698262 0.17513098306257519 0.089385599469841592 0.20209745105405744 -0.13481241476858266 -0.50087179553068739 -0.25222507297410673 -0.26915706999110633 -0.13481241476858341 -0.50087179553068806 -0.26915706999110656 -0.25222507297410834 0.10280958774698248 0.17513098306257482 0.20209745105405746 0.089385599469841009 0.016817170363304726 0.014863608874445764 0.019088918349611315 0.037267866284479666 -0.018488317188170959 -0.037354380364479023 -0.014365319381480718 -0.03052607454708324 -0.014365319381480614 -0.03052607454708308 -0.01848831718817168 -0.037354380364480778 0.019088918349611232 0.037267866284479638 0.016817170363304514 0.014863608874444999 -0.12409634189118456 -0.44627005135256864 -0.061984712728563186 -0.22488147654267185 0.22889459326979192 0.22889459326979189 0.26434771196233914 0.26434771196233908 -0.65688658902043973 -0.65688658902043973 -0.3533682259534997 -0.35336822595349943 -0.44627005135256981 -0.12409634189118535 -0.22488147654267374 -0.061984712728564491 0.00083822870082723988 0.00032752673204474396 0.0014140572698861985 0.0010594775566530202 0.0010594775566534821 0.0014140572698865623 0.00032752673204475367 0.00083822870082725213 -0.39263418980568232 -0.16825568414810296 -0.59268674836167512 -0.39263418980568254 -0.0021241710026968265 -0.0065816386263343914 -0.025638648147237979 0.0038161380123979184 0.0038161380123979314 0.055198845359467459 -0.0054589069950655546 -0.005458906995065421 -0.04910113502385674 -0.0065816386263364991 -0.0021241710026984836 -0.025638648147239922 0.11255545424488565 0.15076487410464862 0.12901097357108843 0.21961665866304036 -0.20362737854117638 -0.20423093115343049 -0.37590067835725693 -0.40240023301703948 -0.20423093115343108 -0.20362737854117757 -0.40240023301703992 -0.3759006783572581 0.15076487410464848 0.1125554542448854 0.21961665866304014 0.12901097357108801 0.0039935349927032833 0.0031554826013370607 0.020583698480806125 0.0018158046848798586 0.003133433485583518 0.03157554388724116 -0.0013843266775756995 -0.0058886435682674459 -0.033188540046078227 -0.0012055767904782472 -0.0038689898007064649 -0.026934709895744275 -0.0012055767904779059 -0.0038689898007061635 -0.026934709895744164 -0.0013843266775762002 -0.0058886435682690202 -0.033188540046079462 0.0018158046848798209 0.0031334334855835141 0.031575543887241132 0.0039935349927030586 0.0031554826013362172 0.020583698480805667 -0.29958570007432955 -0.15175378250012986 -0.094497940085683116 -0.33477372749477113 0.22652127852673276 0.26527328085789387 0.28691116536346528 0.28691116536346528 -0.6656205903657525 -0.36263184297701379 -0.52735183056701407 -0.52735183056701374 -0.29958570007433055 -0.1517537825001315 -0.33477372749477274 -0.094497940085684115 0.011400146864414698 0.011274731275627789 0.053823924845500581 0.062879770167547686 -0.0091261428883535663 -0.0079778567226737856 -0.070105111422232386 -0.065911023288442422 -0.0079778567226736676 -0.0091261428883537797 -0.065911023288442713 -0.070105111422233177 0.011274731275627704 0.011400146864414597 0.062879770167547602 0.053823924845500408 -0.14781075248693321 0.058519037481627199 0.04514774142506759 0.19951541178193422 -0.52122825026912301 -0.66474427730548824 -0.50746292111582925 -0.58536641427483604 -0.66474427730548802 -0.52122825026912356 -0.58536641427483604 -0.50746292111583013 0.058519037481627081 -0.14781075248693359 0.19951541178193399 0.045147741425067084 0.0049879993873576519 -0.032441483553308684 0.046404020947410543 0.023793809273341703 -0.043416014681061953 -0.11698237100102972 -0.13097733158052169 -0.25742139381859541 0.048687231728369515 0.16029753981820288 0.12274135046781083 0.23356467739371536 0.048687231728369508 0.16029753981820288 0.12274135046781086 0.23356467739371534 -0.042988316905411925 -0.17341260281690715 -0.13197374793469266 -0.31877428170123639 -0.042988316905411786 -0.17341260281690704 -0.13197374793469271 -0.31877428170123634 -0.043416014681064027 -0.11698237100103186 -0.13097733158052344 -0.2574213938185973 0.0049879993873564819 -0.032441483553310141 0.046404020947409828 0.023793809273340787 
        </DataArray>
        <DataArray type="Float64" Name="u_reference_imag" NumberOfComponents="1" format="ascii">
          -0.001121070658039416 0.0035400038393577134 0.00354000383935701 -0.0011210706580397007 0.90741464748395606 0.00041665621165394909 0.0013459206247655388 0.0058665553521919005 0.00041665621165398877 0.26544012186041588 0.044563990517935748 0.044563990517935012 0.26544012186041582 0.00058884355119711901 0.00037897435132939073 -0.001303931183692733 0.0045014923279264388 0.0045014923279258238 -0.0013039311836939693 0.000378974351329044 0.0005888435511972077 0.51184926495596317 0.47096351131280806 0.079072307646218531 0.5118492649559635 0.016464133759713742 -0.011695483158372889 -0.011695483158373919 0.01646413375971351 0.76899443623929664 0.46138235296002172 0.46138235296002139 0.76899443623929653 0.16952548991089855 0.10087069190992348 0.079226582690629585 0.079226582690629377 -0.057135394445565632 -0.057135394445566146 0.10087069190992334 0.16952548991089919 -0.00096953717383070691 -0.00065079611355062619 0.0011566192720291928 0.0035700819829701637 0.0035700819829693987 0.0011566192720280919 -0.00065079611355097638 -0.0009695371738309012 0.79796858244616042 0.87446857322182547 0.52468458185496214 0.79796858244616053 0.0014947933970975171 -0.0013099656567032447 0.17563705138786689 0.00110719139296515 0.0011071913929649162 0.090206593234555793 0.0054727167236663828 0.0054727167236660367 -0.065175943452026486 -0.0013099656567039819 0.0014947933970978109 0.17563705138786745 0.090813146919642249 0.050435810364231115 0.49329833805378426 0.41410443135934522 0.014746656940454529 -0.036180804190639071 0.29578804515942808 0.069567537380542138 -0.036180804190639911 0.014746656940453639 0.069567537380541583 0.29578804515942808 0.050435810364230817 0.090813146919642429 0.41410443135934505 0.49329833805378465 -0.00046587077746548968 0.00075252204692296317 0.0007525220469220365 -0.00046587077746578696 0.92201735624486492 0.72908133556590504 0.72908133556590493 0.92201735624486481 0.054042176497566992 0.041758762605090524 0.01339259524823194 0.013392595248231774 -0.026121302489243246 -0.026121302489243468 0.041758762605090587 0.054042176497567478 0.093136082536268164 0.51651397429307178 0.2607410106196405 0.18539432911080786 -0.014586016896763318 0.20773334735529067 0.10449484084208084 -0.029086355132305512 -0.014586016896764278 0.2077333473552902 -0.029086355132306247 0.10449484084208037 0.093136082536268053 0.51651397429307166 0.18539432911080772 0.26074101061964078 0.013385272217247066 0.039696871656177884 0.0044408577958215895 0.0099998544354619537 -0.0024197291408225284 0.014501151624422282 -0.0087097911573802336 -0.019423460713956807 -0.0087097911573810732 -0.019423460713957407 -0.0024197291408236611 0.01450115162442153 0.0044408577958212339 0.0099998544354616432 0.013385272217247021 0.039696871656178322 0.70360276357253848 0.55631812261610525 0.35534083728090343 0.28068725828712365 0.67692870078005019 0.67692870078005007 0.24318967329016664 0.2431896732901665 0.27229197904640368 0.27229197904640334 -0.038323975605394939 -0.038323975605395237 0.55631812261610547 0.70360276357253893 0.28068725828712393 0.35534083728090404 -0.0010620036123373865 -0.000881721885572205 0.0023587689538467267 0.0030813340743298351 0.003081334074329064 0.0023587689538458446 -0.00088172188557251595 -0.0010620036123376569 0.86589341631330397 0.93633858019629246 0.74234722259921382 0.86589341631330397 0.0096424436925759416 0.0060445735591900017 0.056910156189865661 0.0041137929144235775 0.0041137929144234456 0.01882204764445718 0.00071821579255078078 0.00071821579255061131 -0.027589126498666142 0.0060445735591896262 0.0096424436925761255 0.056910156189866001 0.17620024084418909 0.14368319774853891 0.39060640715705702 0.34723691189728001 0.031980925858403626 -0.017638978539666013 0.15993993374950838 0.063448726600821764 -0.017638978539666852 0.031980925858402835 0.063448726600821098 0.15993993374950793 0.14368319774853874 0.17620024084418914 0.34723691189727979 0.39060640715705719 0.0021088610382668876 0.0076186457068993805 0.029675619856945182 0.0009503147184095936 0.0029571275970435183 0.010189484327921036 -0.00072519227671385359 0.00072217860105649556 0.0044258003897664714 0.0020307891010188802 0.0011790064065581706 -0.01467265849043424 0.0020307891010181646 0.0011790064065576868 -0.014672658490434969 -0.0007251922767150847 0.00072217860105543499 0.0044258003897654531 0.00095031471840922909 0.0029571275970432277 0.010189484327920686 0.002108861038266819 0.0076186457068996103 0.029675619856945328 0.66146064246351577 0.33614194280250925 0.52977281425525391 0.41987048281193867 0.69057391431562742 0.25464163746439494 0.45471199078337404 0.45471199078337399 0.28303684462266016 -0.031542533578659479 0.083041500638883423 0.083041500638883062 0.66146064246351621 0.33614194280250981 0.41987048281193884 0.52977281425525447 0.0049722662715086579 0.0026911643686706815 0.049694892228715551 0.035724412164157761 -0.0028062790571902634 -0.0036559018696930719 -0.006243597152294428 -0.021599766543911884 -0.0036559018696939718 -0.0028062790571913325 -0.021599766543912824 -0.0062435971522954584 0.0026911643686703571 0.0049722662715084584 0.035724412164157504 0.049694892228715482 0.82374199757330224 0.83510873545246844 0.63794915725816714 0.60750092628502872 0.6530603935122048 0.5045946260563523 0.38539437281491318 0.24898882883039064 0.50459462605635186 0.6530603935122048 0.24898882883039014 0.38539437281491307 0.83510873545246822 0.82374199757330213 0.60750092628502872 0.63794915725816737 0.055452783245704997 0.18578310734357925 0.13687483966334626 0.32429681022399337 0.032041430771369298 0.14672215449800324 0.055264480455823835 0.19550271418622556 0.016457410137925028 0.093902577951585006 0.071503544005001404 0.2239313362503205 0.016457410137924785 0.093902577951584812 0.071503544005001182 0.2239313362503203 -0.02401470203661938 -0.057523517227813528 -0.043617408255814789 -0.027657205243625298 -0.024014702036619814 -0.057523517227813792 -0.043617408255815483 -0.027657205243625853 0.032041430771368944 0.14672215449800355 0.055264480455823266 0.1955027141862255 0.055452783245705524 0.18578310734357986 0.13687483966334668 0.32429681022399387 
        </DataArray>
        <DataArray type="Float64" Name="u_lod_real" NumberOfComponents="1" format="ascii">
          -0.010287273152303654 0.0014445937764624947 0.0014445937764634093 -0.010287273152303962 -0.42559282929633907 0.0018209745109593191 0.00059687808848858984 0.038789292084110902 0.0018209745109574287 0.18282599164871774 -0.31756793403941519 -0.31756793403941674 0.18282599164871757 -0.0058231877354684601 -0.011050372142960573 0.011187498503961769 0.016789992534457197 0.016789992534457419 0.011187498503960693 -0.011050372142960993 -0.0058231877354690395 -0.23792897318889608 0.33511806308231268 -0.57261430412401559 -0.23792897318889747 0.068664616977549359 -0.075818051803535985 -0.075818051803536499 0.068664616977549012 -0.050024040081520393 -0.47260714161172163 -0.47260714161172268 -0.050024040081520844 0.036738645872256621 -0.14488607076525895 0.13695093966371419 0.13695093966371416 -0.18572108351178948 -0.18572108351179004 -0.14488607076526078 0.036738645872255414 0.0025687293525882707 -0.0068175007864727305 0.0071628115547709105 0.010051212230899486 0.010051212230899994 0.0071628115547709009 -0.0068175007864731052 0.0025687293525878505 -0.35643910764491432 -0.045913047696456863 -0.57268677041709914 -0.35643910764491515 0.010325682628045434 -0.022592440642140318 -0.082244655980466305 0.013606990559807429 0.013606990559807226 0.16663103544730581 0.0070360579474060079 0.0070360579474059992 -0.21204445475523559 -0.022592440642141956 0.010325682628043963 -0.082244655980468082 0.085511781923542113 0.11532828480897421 0.00023221019629998132 0.24535037189859249 -0.13331240628759802 -0.14801574241958801 -0.32706206897190659 -0.45806314485483646 -0.14801574241958876 -0.13331240628759961 -0.45806314485483729 -0.32706206897190815 0.11532828480897399 0.085511781923541655 0.24535037189859241 0.00023221019629918183 0.0085196659644363789 -0.0093501144106539636 -0.0093501144106536861 0.0085196659644359643 -0.26458621857906728 -0.48503781338020208 -0.48503781338020235 -0.26458621857906756 0.01019639666336916 -0.047370079344652927 0.046135294111598238 0.046135294111598182 -0.039179900985602083 -0.039179900985602228 -0.047370079344654786 0.010196396663367397 0.14820855412787404 0.1161972541958243 0.10280630433569175 0.19741484090429115 -0.19712600250905857 -0.40001054133132308 -0.25236148386854984 -0.30169980283731279 -0.19712600250905976 -0.40001054133132452 -0.30169980283731396 -0.25236148386855156 0.14820855412787379 0.116197254195824 0.19741484090429107 0.10280630433569118 0.031175491461001716 0.023950272404916397 0.02405618097616867 0.045526383073377287 -0.026968303864405175 -0.052184536586065033 -0.023810664331336818 -0.052340598917661955 -0.023810664331336908 -0.052340598917662205 -0.026968303864406087 -0.052184536586066699 0.024056180976168275 0.045526383073377003 0.03117549146100131 0.023950272404915499 -0.17524909853607523 -0.36641528408338259 -0.081727671818211514 -0.21322503520397348 0.16839287782691711 0.16839287782691695 0.27179896192851799 0.27179896192851799 -0.5642890363135834 -0.56428903631358385 -0.39954835917835851 -0.39954835917835885 -0.36641528408338375 -0.17524909853607612 -0.21322503520397526 -0.081727671818212902 -0.0029363968822732961 -0.0044100161198934234 0.0012348706536106236 0.0013722152244417724 0.0013722152244424746 0.0012348706536111191 -0.0044100161198937487 -0.0029363968822736859 -0.39687095802254579 -0.26940249422411339 -0.50311935350432069 -0.39687095802254624 0.010752072074949213 -0.022372866774998029 -0.022802664524685334 0.018304112314736175 0.018304112314736078 0.048488557090155232 0.01231627435057238 0.012316274350572342 -0.040884384771066283 -0.02237286677499976 0.010752072074947369 -0.022802664524687183 0.13993759954611579 0.17540015020702182 0.11142961321598306 0.19601948991809542 -0.23477259877487994 -0.25346991584967665 -0.32946582971009103 -0.37533795766070227 -0.25346991584967782 -0.23477259877488152 -0.37533795766070366 -0.32946582971009253 0.17540015020702165 0.13993759954611543 0.19601948991809526 0.11142961321598266 0.0065950651502636737 0.0020863911683215125 0.027236259369956013 -0.0057942940299465576 0.0094542389750577448 0.034841953012396912 0.0064216812093670084 -0.014560448806921238 -0.039418414909982449 0.01145419920248212 -0.0024103941805468485 -0.04088026379138901 0.011454199202482432 -0.0024103941805467878 -0.040880263791389232 0.0064216812093664472 -0.014560448806922609 -0.039418414909983802 -0.00579429402994696 0.0094542389750574395 0.034841953012396544 0.0065950651502632331 0.0020863911683205293 0.027236259369955475 -0.29303575772364743 -0.1614455973028201 -0.12950555263410507 -0.29369646994241161 0.18122175619348532 0.28715861026411904 0.28786862981931283 0.28786862981931272 -0.59144083246826362 -0.41710330851939398 -0.52374171141194392 -0.52374171141194426 -0.29303575772364854 -0.16144559730282168 -0.29369646994241316 -0.12950555263410621 0.026609905904324407 0.022440312526822385 0.088622639562536618 0.094356354396719369 -0.023789224483016007 -0.022261887100326169 -0.11092179620614862 -0.11383844469252541 -0.022261887100326123 -0.023789224483016284 -0.11383844469252606 -0.11092179620614967 0.022440312526822003 0.026609905904324001 0.094356354396719105 0.088622639562536271 -0.21857948772794925 -0.05332499687963789 -0.023136516081546658 0.12559477534070462 -0.42931348013970067 -0.53392792136412526 -0.39710499307265518 -0.48018462897034403 -0.5339279213641257 -0.42931348013970139 -0.48018462897034492 -0.39710499307265656 -0.053324996879638112 -0.21857948772794975 0.12559477534070443 -0.023136516081547209 0.024151872223615499 -0.025929173046680895 0.067262935490498513 0.019023667717695588 -0.063820792837895005 -0.11957170094464011 -0.148693142380592 -0.23831945276191122 0.056173531658186344 0.15199061069264888 0.12946083428027907 0.21946720931606237 0.056173531658186206 0.15199061069264883 0.12946083428027888 0.21946720931606234 -0.058770246774375069 -0.20182474504914502 -0.17522627971635615 -0.3412606336434732 -0.058770246774375277 -0.20182474504914524 -0.17522627971635696 -0.34126063364347398 -0.063820792837896809 -0.11957170094464195 -0.14869314238059372 -0.23831945276191296 0.024151872223614153 -0.025929173046682477 0.067262935490497736 0.01902366771769462 
        </DataArray>
        <DataArray type="Float64" Name="u_lod_imag" NumberOfComponents="1" format="ascii">
          0.002147872518375856 0.013491368263385343 0.013491368263384365 0.0021478725183754102 0.9381618666495154 -0.003706946315810024 -0.043655611961424055 -0.020448276084801296 -0.0037069463158102001 0.26719575872157703 0.039323944944194958 0.039323944944193917 0.26719575872157769 -0.0067521063269233607 -0.012403974840967846 0.0016063807456538866 0.004520707469336937 0.00452070746933593 0.0016063807456521981 -0.012403974840968175 -0.006752106326922973 0.52578376854928244 0.47393062898765115 0.059664960577608173 0.52578376854928277 0.044933966625892198 -0.019991088381253075 -0.019991088381254435 0.044933966625892371 0.67490917395297856 0.48187311248848474 0.48187311248848458 0.67490917395297878 0.16436512533138095 0.078322915272013127 0.12737981669988643 0.12737981669988668 -0.019558468961582368 -0.019558468961582955 0.078322915272012544 0.16436512533138162 -0.0059976086793056185 -0.0076607062086481931 -0.0017740967879386685 0.0055874921457109844 0.0055874921457098143 -0.0017740967879401252 -0.0076607062086485045 -0.0059976086793056991 0.78650230558618661 0.80428124320307248 0.56374882512448898 0.78650230558618661 0.023206161981896883 -0.0046386510811397066 0.18365330385528861 -0.013298864200406026 -0.013298864200406163 0.1344151627330312 -0.017760811991374217 -0.017760811991374789 -0.037695608917916651 -0.0046386510811407423 0.023206161981897143 0.18365330385528889 0.105907819271248 0.098683546876893985 0.43772724726720469 0.39991231655913007 0.0061063718780058904 -0.020584687284162732 0.28762212214386246 0.079031397966700792 -0.020584687284163815 0.0061063718780046024 0.079031397966700292 0.28762212214386212 0.098683546876894179 0.10590781927124859 0.39991231655913045 0.43772724726720524 0.0077362203837367007 0.0013985349092489733 0.0013985349092476857 0.0077362203837364665 0.877339840064981 0.77667406975905606 0.77667406975905584 0.877339840064981 0.057692575155221762 0.0265335283366432 0.010929202355673016 0.010929202355673018 -0.026975562522037276 -0.026975562522037561 0.026533528336643006 0.057692575155222137 0.13647092013169287 0.43452536432055344 0.24934476498207106 0.2330254042195746 -0.020000128863750532 0.19878214911801095 0.086226133321215204 0.005925190196418309 -0.02000012886375175 0.19878214911801037 0.0059251901964174625 0.086226133321214316 0.13647092013169337 0.43452536432055411 0.23302540421957507 0.24934476498207167 0.013289398002714729 0.051240328343019399 0.011319735246880135 0.031476938811334038 -0.011998863809611661 0.012699868768356212 -0.0082362937113642926 -0.013571051013770603 -0.0082362937113654756 -0.013571051013771453 -0.011998863809613172 0.012699868768354997 0.011319735246880005 0.031476938811333954 0.013289398002715077 0.051240328343019947 0.6423823836425927 0.55488247826813586 0.35758178920631106 0.29645159885249467 0.6075118970073583 0.60751189700735853 0.2963758839406983 0.29637588394069853 0.27300722998334892 0.27300722998334886 -0.0097600490390268337 -0.0097600490390270869 0.55488247826813608 0.64238238364259326 0.29645159885249478 0.35758178920631167 0.0015767213361203591 0.00066227793483466656 0.0067525166786147617 0.0081059167811650575 0.0081059167811639438 0.0067525166786135578 0.00066227793483434781 0.0015767213361200269 0.87523780393439721 0.90552923246294204 0.79882042319481783 0.8752378039343971 0.022900318874636279 -0.0026504964978276519 0.051975964590212184 -0.022360741104684383 -0.022360741104684421 0.011238395817399075 -0.023219880699277679 -0.023219880699277981 -0.027504785152951048 -0.0026504964978282886 0.02290031887463639 0.051975964590212281 0.19363939667418256 0.18804675335569029 0.34461608440363756 0.33284389432768391 0.022884437358274955 -0.0066507292036424122 0.14301965506336159 0.072392027338173126 -0.0066507292036434643 0.022884437358273821 0.072392027338172307 0.14301965506336078 0.18804675335569079 0.19363939667418315 0.33284389432768452 0.34461608440363817 -0.0078190491955825239 0.018517263587837243 0.031888451957501437 -0.010785871887334942 -0.00032093202171882792 0.024894855613291376 -0.0057511607103001841 0.0036230689236196765 0.0013102279801325938 0.0033929405868654704 -0.0064251424788884974 -0.0082631804857826417 0.0033929405868643606 -0.0064251424788893136 -0.0082631804857836669 -0.0057511607103018156 0.0036230689236181959 0.0013102279801311429 -0.010785871887335279 -0.00032093202171907978 0.024894855613291245 -0.0078190491955822932 0.018517263587837587 0.031888451957501944 0.6471983512976498 0.35767802173287966 0.50587441060040839 0.43040857601354748 0.63245583036643238 0.30603874322710173 0.44986396839881831 0.44986396839881854 0.27970063495028802 -0.015099031898954592 0.07951232075284434 0.07951232075284409 0.64719835129765002 0.35767802173287994 0.43040857601354754 0.50587441060040894 0.013042276406414057 0.012124576491441309 0.074101860694256561 0.071779309013646139 -0.0087493924090896128 -0.0059392318159533228 -0.016103185288625539 -0.021895329777286279 -0.0059392318159545918 -0.0087493924090910336 -0.021895329777287507 -0.016103185288626903 0.012124576491441144 0.013042276406414102 0.07177930901364625 0.074101860694256949 0.76353479580163841 0.7592171662721342 0.55128225149830623 0.53292062120084716 0.66723645120875741 0.53975825140761668 0.38026515141380246 0.25636471596202748 0.53975825140761668 0.66723645120875741 0.25636471596202709 0.38026515141380224 0.75921716627213431 0.76353479580163841 0.53292062120084771 0.55128225149830679 0.067108452738502147 0.18502756311570098 0.14237332043504342 0.30358412089294257 0.020731227350387352 0.13997786505846246 0.041806666405519173 0.18460329429498129 0.030326446693817635 0.13455982837983951 0.12209004825603045 0.26510398668356827 0.030326446693817642 0.1345598283798396 0.12209004825603068 0.2651039866835686 -0.022320578887622469 -0.026393736512880513 -0.016584499977227888 0.0095430233664137443 -0.022320578887623049 -0.026393736512880784 -0.016584499977228724 0.009543023366413203 0.020731227350386638 0.13997786505846241 0.041806666405518181 0.18460329429498082 0.067108452738502689 0.18502756311570148 0.14237332043504403 0.30358412089294312 
        </DataArray>
        <DataArray type="Float64" Name="u_coarse_real" NumberOfComponents="1" format="ascii">
          -0.030879420635282689 0.053383039145923072 0.053383039145923961 -0.030879420635283084 -0.46598545436931377 0.0050091453228918864 0.0085724449337018001 0.051071538650666846 0.0050091453228898871 0.20808669369829685 -0.33939574689905561 -0.33939574689905722 0.20808669369829674 -0.0028928685917098212 -0.011049388218624655 0.019718187340522324 0.028144463470148942 0.028144463470149171 0.019718187340521026 -0.011049388218625018 -0.0028928685917103576 -0.24640062311192706 0.353603910004475 -0.5978175379223285 -0.24640062311192862 0.088603636531507088 -0.14300635387656627 -0.14300635387656663 0.088603636531506824 -0.12894938033550846 -0.40269060063418471 -0.40269060063418549 -0.12894938033550851 0.10654791951059436 -0.16719330078808187 0.10832956931599932 0.10832956931599927 -0.14416210412419439 -0.1441621041241952 -0.16719330078808367 0.10654791951059331 -0.016886144613496256 -0.020964404426953673 0.036550613243222702 0.040763751308036007 0.040763751308036569 0.036550613243222493 -0.020964404426954051 -0.016886144613496721 -0.35619303874062042 -0.056190772182419385 -0.53190149614582116 -0.35619303874062119 0.0010581383655910326 0.012363666331707105 -0.1206957388945176 -0.0012384716424614275 -0.0012384716424616088 0.1810881774690884 0.039608001060407891 0.039608001060408009 -0.27337299963583084 0.012363666331705457 0.0010581383655897648 -0.12069573889451937 0.10259691255329352 0.098518652739836093 -0.019156964706815105 0.2808453018513859 -0.15983877977926664 -0.15562564171445334 -0.29289818500549136 -0.46860664241069205 -0.15562564171445403 -0.15983877977926808 -0.46860664241069283 -0.29289818500549292 0.098518652739835857 0.10259691255329319 0.2808453018513859 -0.019156964706815938 0.028862107948112198 -0.044811657365321597 -0.044811657365321333 0.028862107948111872 -0.29746741735241111 -0.43433802750174921 -0.4343380275017496 -0.29746741735241111 0.055778532416743132 -0.081092077732594983 0.05845100712485056 0.058451007124850532 -0.046545282736763768 -0.046545282736764171 -0.081092077732596884 0.055778532416741598 0.14834516511490198 0.039568656681394213 0.15731730660444562 0.1582081315071481 -0.24120105038781092 -0.37104317376662016 -0.25329452384356871 -0.241778925511625 -0.24120105038781192 -0.37104317376662138 -0.24177892551162622 -0.25329452384357043 0.14834516511490178 0.039568656681394102 0.15820813150714799 0.15731730660444501 0.042855383969898631 0.051827525459442268 0.038777124156441217 0.048640090548687336 -0.061644083268021968 -0.073737556723779768 -0.057430945203208662 -0.058008820327022724 -0.057430945203208725 -0.058008820327023009 -0.061644083268022801 -0.073737556723781322 0.038777124156440905 0.048640090548687127 0.042855383969898235 0.051827525459441477 -0.18767500172371776 -0.32454561187305586 -0.06992635180066635 -0.20679696195000447 0.11232726483448327 0.11232726483448324 0.23096673966023717 0.23096673966023712 -0.50025406927825666 -0.500254069278257 -0.37098982102326145 -0.37098982102326183 -0.32454561187305708 -0.18767500172371857 -0.20679696195000613 -0.069926351800667655 -0.023882782624389472 -0.025921912531118179 0.044966826194572887 0.047073395226979536 0.047073395226980265 0.044966826194573227 -0.025921912531118568 -0.023882782624389903 -0.41108924655496709 -0.26108811327586656 -0.49894347525756744 -0.41108924655496748 0.0030336418442414594 0.0086864058272994957 -0.057843296785812848 0.0036669866456201859 0.0036669866456200953 0.094830311201395096 0.045339769855537365 0.045339769855537428 -0.11115073049258199 0.0086864058272976725 0.0030336418442398257 -0.057843296785814742 0.15534180312579521 0.15330267321906649 0.094464864495740888 0.2444659977748414 -0.24961726333916112 -0.24751069430675446 -0.31614696595227348 -0.40400119465487383 -0.24751069430675562 -0.24961726333916268 -0.40400119465487505 -0.31614696595227509 0.15330267321906629 0.15534180312579496 0.24446599777484129 0.094464864495740389 -0.0098895066026030379 -0.00091736511305939416 0.049852021980791847 -0.016006896322789163 -0.0061439299305430413 0.04373463226060572 0.028134400291872509 0.016040926836114716 -0.070060296219372153 0.034454107389092478 0.033876232265278416 -0.063740589122152191 0.034454107389092867 0.03387623226527859 -0.063740589122152427 0.02813440029187176 0.016040926836113242 -0.070060296219373541 -0.016006896322789534 -0.0061439299305433136 0.043734632260605422 -0.0098895066026035393 -0.00091736511306029643 0.049852021980791417 -0.30129683092627374 -0.18354818100322232 -0.13277879390937108 -0.26964940405870919 0.14870656891102779 0.26734604373678172 0.31722460592793045 0.31722460592793045 -0.56485951703407478 -0.43559526877907967 -0.53321209016651028 -0.53321209016651072 -0.30129683092627491 -0.18354818100322398 -0.26964940405871074 -0.13277879390937225 0.035858745959005414 0.033819616052276701 0.09560027454240029 0.093561144635671584 -0.053227870316671783 -0.051121301284265133 -0.15142256682791644 -0.14931599779550978 -0.051121301284265029 -0.053227870316672067 -0.14931599779551033 -0.15142256682791738 0.033819616052276388 0.035858745959005053 0.093561144635671348 0.095600274542400013 -0.24257120953806444 -0.092570076258963907 -0.074053172521161781 0.075947960757938734 -0.37944181968740259 -0.46729604839000294 -0.34779439281983804 -0.43564862152243838 -0.46729604839000333 -0.37944181968740337 -0.43564862152243916 -0.3477943928198392 -0.092570076258963963 -0.24257120953806488 0.075947960757938679 -0.074053172521162225 0.053803028938092703 -0.0070739096919616093 0.10457241603194393 0.043695477401889629 -0.077414817228187383 -0.14394451984129975 -0.16351604028367425 -0.23004574289678659 0.053545548836768944 0.14470887339254385 0.10342411102791771 0.19458743558369263 0.053545548836768826 0.14470887339254385 0.10342411102791757 0.19458743558369257 -0.052277051531893243 -0.20876755188001261 -0.14989387291932385 -0.30638437326744322 -0.052277051531893583 -0.208767551880013 -0.1498938729193246 -0.30638437326744405 -0.077414817228189103 -0.14394451984130152 -0.16351604028367589 -0.23004574289678831 0.053803028938091538 -0.0070739096919630248 0.10457241603194325 0.043695477401888685 
        </DataArray>
        <DataArray type="Float64" Name="u_coarse_imag" NumberOfComponents="1" format="ascii">
          -0.042979143181695927 -0.00066710146208377632 -0.00066710146208506435 -0.042979143181696371 1.0269461866820542 -0.011764238045380673 -0.074537063865329531 -0.053734452978958056 -0.01176423804538064 0.27405456512144927 0.024208838485224378 0.024208838485223289 0.27405456512144999 -0.019934285850692485 -0.026895775413548987 -0.011248460619004844 -0.0067731742117561593 -0.0067731742117572149 -0.011248460619006567 -0.026895775413549337 -0.01993428585069203 0.54454133276908467 0.4905450203651483 0.056161938818653973 0.54454133276908523 0.11553771096987667 0.0117708685115703 0.011770868511569112 0.11553771096987681 0.65050037590175169 0.52557751258363927 0.52557751258363872 0.65050037590175203 0.13114516353803429 0.0062223002199218525 0.099758750628059861 0.099758750628060222 -0.014762807246866839 -0.014762807246867383 0.0062223002199213243 0.13114516353803468 -0.031456714516194209 -0.034937459297622458 -0.0059577810405443098 -0.0037201378369199679 -0.0037201378369211397 -0.0059577810405458155 -0.034937459297622854 -0.031456714516194202 0.78574375972556942 0.75874560352360121 0.54155406275035411 0.78574375972556965 -0.01584926194803658 -0.011506349332192758 0.26638854736185202 -0.050716419639439257 -0.050716419639439431 0.20800397824990938 -0.030253813595357108 -0.030253813595357636 0.0012137429198479585 -0.011506349332193603 -0.015849261948036333 0.2663885473618523 0.12706013963537838 0.12357939485395014 0.40929794894526694 0.38229979274329878 0.006480188933109767 0.0087178321367341084 0.28437508562715452 0.040185388651939172 0.0087178321367330364 0.006480188933108361 0.040185388651938631 0.28437508562715424 0.12357939485395032 0.12706013963537899 0.38229979274329917 0.40929794894526761 0.036279283894090374 0.0055518835247432624 0.0055518835247420238 0.036279283894090221 0.83872328129190288 0.77626184963284672 0.77626184963284639 0.8387232812919031 0.059690462746326813 -0.0027709689127294098 0.012610843381365172 0.012610843381365353 -0.034248630112912445 -0.034248630112912716 -0.0027709689127296579 0.059690462746327014 0.19479613804566298 0.46227747051160051 0.20259986432974181 0.18690665787475458 0.017989853498397341 0.27489317553443182 0.015215569352573117 0.0047230156191787713 0.017989853498396199 0.27489317553443099 0.0047230156191779525 0.015215569352572306 0.1947961380456634 0.46227747051160106 0.18690665787475511 0.20259986432974234 0.047801712559592091 0.055605438843670904 0.044320967778163842 0.036431487607255439 0.00026120394628272817 -0.0025130801995414957 0.0024988471499070705 -0.010767990729311498 0.0024988471499059486 -0.0107679907293123 0.00026120394628127274 -0.0025130801995426211 0.044320967778163731 0.036431487607255439 0.047801712559592389 0.055605438843671327 0.59752085433541824 0.53505942267636197 0.33784324815355948 0.27538181649450327 0.57052269813345002 0.57052269813345013 0.29515188549660409 0.29515188549660426 0.29086972570114661 0.29086972570114633 0.020699565785893569 0.020699565785893295 0.53505942267636197 0.59752085433541868 0.27538181649450327 0.33784324815355993 -0.037217928848945064 -0.038958301239659189 -0.0033124412513140431 -0.0021936196495018719 -0.0021936196495031019 -0.00331244125131544 -0.038958301239659612 -0.037217928848945286 0.9063449732038118 0.89284589510282764 0.78425012471620403 0.90634497320381191 -0.013806749996708625 -0.011635293688786715 0.12731215465823567 -0.062626741752384391 -0.062626741752384474 0.06673345719228993 -0.041994133287157578 -0.041994133287157842 -0.026260355029555045 -0.011635293688787123 -0.013806749996708487 0.12731215465823584 0.20055735237841385 0.1988169799876997 0.34167625703335813 0.32817717893237403 0.015344513709167075 0.016463335310979245 0.15429196205618945 0.032197113568581778 0.016463335310978162 0.015344513709165824 0.03219711356858096 0.15429196205618878 0.19881697998770015 0.20055735237841449 0.32817717893237458 0.3416762570333588 -0.025695500183443347 -0.01789177389936453 0.053562926892342953 -0.030916617355585721 -0.038806097526494124 0.048341809720200579 -0.0086031208297745777 -0.011377404975598802 -0.0023841358429475389 -0.0052466560243380634 -0.018513493903556631 0.00097232896248897541 -0.0052466560243391771 -0.018513493903557426 0.00097232896248791115 -0.0086031208297761893 -0.011377404975600084 -0.0023841358429491019 -0.030916617355586096 -0.038806097526494387 0.048341809720200496 -0.025695500183443118 -0.017891773899364184 0.053562926892343474 0.66514254624732705 0.40546494006546835 0.47691964085717581 0.4144582091981196 0.62464531194437478 0.34927449930752885 0.43642240655422354 0.43642240655422371 0.29885800078450403 0.028687840869250966 0.048173663735296572 0.048173663735296302 0.66514254624732749 0.40546494006546874 0.41445820919811971 0.47691964085717642 0.042040498226841229 0.040300125836127104 0.12129892530262754 0.1195585529119134 0.0029065437355129957 0.0040253653373251673 0.0091255287223400341 0.010244350324152204 0.004025365337323986 0.0029065437355116483 0.010244350324151075 0.0091255287223387382 0.040300125836126972 0.042040498226841298 0.11955855291191357 0.1212989253026279 0.71812206781366061 0.70462298971267645 0.52989916242350943 0.51640008432252527 0.65566063615460446 0.53356578766699669 0.4049762991053969 0.28288145061778924 0.53356578766699636 0.65566063615460424 0.28288145061778869 0.40497629910539645 0.70462298971267667 0.71812206781366095 0.5164000843225256 0.52989916242350987 0.057647950794998855 0.19876685544994316 0.12910265158670636 0.27022155624165067 -0.002642024556135453 0.13630542379088692 0.0063512445765158097 0.1452986929235382 0.024521165494310306 0.15388136443898462 0.111669072741005 0.24102927168567934 0.024521165494310396 0.15388136443898481 0.11166907274100528 0.24102927168567967 -0.022508310421111975 -0.0067745321635094419 -0.0030224875550663647 0.012711290702536168 -0.02250831042111251 -0.0067745321635097125 -0.0030224875550671736 0.012711290702535624 -0.0026420245561361395 0.13630542379088681 0.0063512445765148426 0.14529869292353778 0.057647950794999174 0.19876685544994349 0.12910265158670683 0.27022155624165112 
        </DataArray>
        <DataArray type="Float64" Name="u_fine_scale_real" NumberOfComponents="1" format="ascii">
          0.020592147482979037 -0.05193844536946058 -0.051938445369460552 0.02059214748297912 0.040392625072974697 -0.0031881708119325673 -0.0079755668452132101 -0.012282246566555945 -0.0031881708119324585 -0.025260702049579115 0.021827812859640416 0.021827812859640472 -0.02526070204957917 -0.0029303191437586389 -9.839243359181099e-07 -0.008530688836560555 -0.011354470935691745 -0.011354470935691752 -0.008530688836560333 -9.8392433597535578e-07 -0.0029303191437586818 0.0084716499230309827 -0.018485846922162319 0.025203233798312907 0.0084716499230311493 -0.019939019553957729 0.067188302073030282 0.067188302073030129 -0.019939019553957812 0.078925340253988063 -0.069916540977536912 -0.069916540977537189 0.078925340253987675 -0.069809273638337749 0.022307230022822921 0.028621370347714864 0.028621370347714892 -0.041558979387595091 -0.041558979387594841 0.022307230022822894 -0.069809273638337888 0.019454873966084526 0.014146903640480941 -0.02938780168845179 -0.030712539077136523 -0.030712539077136575 -0.029387801688451592 0.014146903640480945 0.019454873966084571 -0.00024606890429390571 0.010277724485962522 -0.040785274271277983 -0.00024606890429396122 0.009267544262454401 -0.03495610697384742 0.038451082914051291 0.014845462202268856 0.014845462202268834 -0.014457142021782582 -0.032571943113001885 -0.03257194311300201 0.061328544880595248 -0.034956106973847413 0.0092675442624541981 0.038451082914051291 -0.017085130629751408 0.016809632069138117 0.019389174903115085 -0.035494929952793408 0.026526373491668614 0.0076098992948653299 -0.034163883966415232 0.010543497555855597 0.0076098992948652744 0.026526373491668476 0.010543497555855541 -0.034163883966415232 0.016809632069138131 -0.017085130629751533 -0.035494929952793491 0.019389174903115119 -0.020342441983675817 0.035461542954667635 0.035461542954667649 -0.020342441983675907 0.032881198773343834 -0.050699785878452863 -0.050699785878452752 0.032881198773343556 -0.04558213575337397 0.033721998387942057 -0.012315713013252322 -0.01231571301325235 0.0073653817511616856 0.0073653817511619424 0.033721998387942098 -0.045582135753374199 -0.00013661098702794083 0.076628597514430088 -0.054511002268753869 0.039206709397143047 0.044075047878752355 -0.028967367564702917 0.00093303997501886782 -0.059920877325687794 0.04407504787875216 -0.028967367564703139 -0.059920877325687738 0.00093303997501886782 -0.00013661098702799634 0.076628597514429894 0.039206709397143075 -0.054511002268753828 -0.011679892508896915 -0.027877253054525871 -0.014720943180272547 -0.0031137074753100485 0.034675779403616797 0.021553020137714735 0.033620280871871841 0.0056682214093607686 0.033620280871871813 0.0056682214093608033 0.034675779403616713 0.021553020137714624 -0.01472094318027263 -0.0031137074753101249 -0.011679892508896925 -0.027877253054525979 0.012425903187642529 -0.041869672210326725 -0.011801320017545164 -0.0064280732539690189 0.056065612992433844 0.056065612992433705 0.040832222268280816 0.040832222268280871 -0.06403496703532674 -0.064034967035326851 -0.028558538155097069 -0.028558538155097013 -0.041869672210326669 0.012425903187642445 -0.0064280732539691299 -0.011801320017545247 0.020946385742116175 0.021511896411224755 -0.043731955540962264 -0.045701180002537763 -0.04570118000253779 -0.043731955540962111 0.021511896411224821 0.020946385742116217 0.014218288532421297 -0.0083143809482468245 -0.0041758782467532507 0.014218288532421242 0.0077184302307077533 -0.031059272602297523 0.035040632261127511 0.014637125669115989 0.014637125669115982 -0.046341754111239863 -0.033023495504964986 -0.033023495504965084 0.070266345721515716 -0.031059272602297433 0.0077184302307075434 0.035040632261127559 -0.015404203579679421 0.022097476987955333 0.016964748720242173 -0.048446507856745979 0.014844664564281185 -0.005959221542922194 -0.013318863757817545 0.028663236994171559 -0.005959221542922194 0.014844664564281157 0.028663236994171393 -0.013318863757817434 0.022097476987955361 -0.015404203579679532 -0.048446507856746035 0.01696474872024227 0.01648457175286671 0.0030037562813809066 -0.022615762610835834 0.010212602292842606 0.015598168905600786 -0.0088926792482088082 -0.021712719082505501 -0.030601375643035954 0.030641881309389704 -0.022999908186610359 -0.036286626445825268 0.022860325330763182 -0.022999908186610435 -0.036286626445825379 0.022860325330763195 -0.021712719082505313 -0.03060137564303585 0.030641881309389739 0.010212602292842574 0.015598168905600753 -0.0088926792482088776 0.016484571752866772 0.0030037562813808255 -0.022615762610835942 0.0082610732026263123 0.022102583700402217 0.0032732412752660145 -0.024047065883702423 0.032515187282457531 0.019812566527337316 -0.029355976108617621 -0.029355976108617732 -0.026581315434188846 0.018491960259685691 0.0094703787545663554 0.0094703787545664664 0.0082610732026263678 0.022102583700402301 -0.024047065883702423 0.0032732412752660422 -0.0092488400546810075 -0.011379303525454316 -0.0069776349798636728 0.0007952097610477854 0.029438645833655776 0.028859414183938965 0.040500770621767823 0.035477553102984366 0.028859414183938906 0.029438645833655783 0.035477553102984269 0.040500770621767712 -0.011379303525454385 -0.0092488400546810526 0.00079520976104775765 -0.0069776349798637421 0.023991721810115191 0.039245079379326017 0.050916656439615127 0.049646814582765889 -0.049871660452298072 -0.066631872974122319 -0.049310600252817138 -0.044536007447905646 -0.066631872974122375 -0.049871660452298017 -0.044536007447905757 -0.04931060025281736 0.039245079379325851 0.023991721810115135 0.04964681458276575 0.050916656439615016 -0.029651156714477205 -0.018855263354719286 -0.037309480541445422 -0.024671809684194041 0.013594024390292378 0.02437281889665964 0.014822897903082249 -0.0082737098651246288 0.0026279828214174003 0.0072817373001050345 0.026036723252361366 0.024879773732369742 0.0026279828214173795 0.007281737300104979 0.02603672325236131 0.02487977373236977 -0.0064931952424818265 0.0069428068308675928 -0.025332406797032303 -0.034876260376029977 -0.0064931952424816947 0.0069428068308677593 -0.025332406797032359 -0.034876260376029922 0.013594024390292295 0.02437281889665957 0.014822897903082166 -0.0082737098651246566 -0.029651156714477385 -0.018855263354719452 -0.037309480541445519 -0.024671809684194065 
        </DataArray>
        <DataArray type="Float64" Name="u_fine_scale_imag" NumberOfComponents="1" format="ascii">
          0.045127015700071785 0.014158469725469119 0.014158469725469429 0.045127015700071778 -0.088784320032538777 0.0080572917295706481 0.030881451903905476 0.033286176894156763 0.0080572917295704399 -0.0068588063998722415 0.01511510645897058 0.015115106458970629 -0.006858806399872297 0.013182179523769124 0.014491800572581141 0.012854841364658731 0.011293881681093097 0.011293881681093146 0.012854841364658764 0.014491800572581162 0.013182179523769058 -0.018757564219802236 -0.016614391377497151 0.0035030217589542001 -0.018757564219802458 -0.070603744343984476 -0.031761956892823379 -0.031761956892823545 -0.070603744343984434 0.024408798051226865 -0.043704400095154528 -0.043704400095154139 0.024408798051226754 0.033219961793346658 0.072100615052091269 0.027621066071826572 0.027621066071826461 -0.0047956617147155295 -0.0047956617147155711 0.072100615052091227 0.033219961793346936 0.025459105836888589 0.027276753088974266 0.0041836842526056413 0.0093076299826309519 0.0093076299826309536 0.0041836842526056899 0.02727675308897435 0.025459105836888502 0.00075854586061718798 0.045535639679471274 0.022194762374134869 0.00075854586061696594 0.039055423929933462 0.0068676982510530518 -0.082735243506563416 0.037417555439033232 0.037417555439033266 -0.073588815516878181 0.012493001603982892 0.012493001603982846 -0.038909351837764609 0.006867698251052861 0.039055423929933476 -0.082735243506563416 -0.021152320364130381 -0.024895847977056157 0.028429298321937746 0.017612523815831282 -0.00037381705510387657 -0.029302519420896841 0.0032470365167079351 0.03884600931476162 -0.029302519420896851 -0.00037381705510375861 0.038846009314761662 0.0032470365167078796 -0.024895847977056143 -0.021152320364130395 0.017612523815831282 0.028429298321937635 -0.028543063510353673 -0.0041533486154942886 -0.0041533486154943381 -0.028543063510353753 0.038616558773078125 0.00041222012620933945 0.00041222012620945048 0.038616558773077903 -0.0019978875911050506 0.029304497249372612 -0.0016816410256921561 -0.0016816410256923348 0.0072730675908751694 0.0072730675908751555 0.029304497249372664 -0.0019978875911048771 -0.058325217913970107 -0.027752106191047066 0.046744900652329252 0.046118746344820022 -0.037989982362147873 -0.076111026416420868 0.071010563968642082 0.0012021745772395377 -0.037989982362147949 -0.076111026416420619 0.00120217457723951 0.071010563968642013 -0.058325217913970023 -0.027752106191046955 0.046118746344819966 0.046744900652329335 -0.034512314556877366 -0.0043651105006515048 -0.033001232531283703 -0.0049545487959214013 -0.012260067755894388 0.015212948967897707 -0.010735140861271364 -0.0028030602844591052 -0.010735140861271425 -0.0028030602844591537 -0.012260067755894444 0.015212948967897618 -0.033001232531283724 -0.0049545487959214846 -0.03451231455687731 -0.0043651105006513799 0.044861529307174464 0.019823055591773886 0.019738541052751579 0.021069782357991396 0.03698919887390828 0.036989198873908391 0.0012239984440942098 0.0012239984440942653 -0.017862495717797688 -0.017862495717797466 -0.030459614824920402 -0.030459614824920381 0.019823055591774108 0.044861529307174575 0.021069782357991507 0.019738541052751746 0.038794650185065421 0.039620579174493853 0.010064957929928805 0.010299536430666929 0.010299536430667045 0.010064957929928998 0.039620579174493957 0.03879465018506531 -0.031107169269414592 0.012683337360114399 0.014570298478613797 -0.031107169269414814 0.036707068871344908 0.0089847971909590638 -0.075336190068023487 0.040266000647700008 0.040266000647700056 -0.055495061374890853 0.018774252587879899 0.018774252587879861 -0.001244430123396003 0.0089847971909588348 0.036707068871344881 -0.075336190068023556 -0.0069179557042312878 -0.010770226632009411 0.0029398273702794242 0.0046667153953098839 0.0075399236491078808 -0.023114064514621658 -0.011272306992827857 0.040194913769591348 -0.023114064514621627 0.007539923649107997 0.040194913769591348 -0.011272306992827996 -0.010770226632009355 -0.0069179557042313433 0.0046667153953099394 0.0029398273702793687 0.017876450987860823 0.03640903748720177 -0.021674474934841516 0.020130745468250777 0.038485165504775293 -0.023446954106909203 0.0028519601194743937 0.015000473899218478 0.0036943638230801327 0.0086395966112035334 0.012088351424668135 -0.0092355094482716171 0.0086395966112035386 0.012088351424668112 -0.009235509448271579 0.0028519601194743737 0.01500047389921828 0.0036943638230802446 0.020130745468250819 0.038485165504775307 -0.023446954106909251 0.017876450987860823 0.03640903748720177 -0.02167447493484153 -0.01794419494967725 -0.04778691833258869 0.028954769743232578 0.015950366815427885 0.0078105184220575996 -0.043235756080427123 0.013441561844594774 0.013441561844594829 -0.019157365834216011 -0.043786872768205559 0.031338657017547768 0.031338657017547789 -0.017944194949677472 -0.047786918332588801 0.01595036681542783 0.028954769743232522 -0.028998221820427172 -0.028175549344685795 -0.047197064608370976 -0.047779243898267265 -0.011655936144602608 -0.0099645971532784892 -0.025228714010965575 -0.032139680101438486 -0.0099645971532785777 -0.011655936144602683 -0.032139680101438584 -0.025228714010965641 -0.02817554934468583 -0.028998221820427196 -0.047779243898267321 -0.047197064608370948 0.045412727987977797 0.054594176559457752 0.021383089074796802 0.01652053687832189 0.011575815054152949 0.0061924637406199912 -0.024711147691594437 -0.026516734655761764 0.0061924637406203242 0.011575815054153171 -0.026516734655761598 -0.024711147691594215 0.054594176559457641 0.045412727987977464 0.016520536878322112 0.021383089074796913 0.0094605019435032925 -0.013739292334242176 0.013270668848337053 0.033362564651291893 0.023373251906522806 0.0036724412675755436 0.035455421829003367 0.039304601371443093 0.0058052811995073297 -0.019321536059145106 0.010420975515025452 0.024074714997888935 0.0058052811995072465 -0.019321536059145217 0.010420975515025396 0.024074714997888935 0.00018773153348950605 -0.019619204349371071 -0.013562012422161523 -0.0031682673361224239 0.00018773153348946095 -0.019619204349371071 -0.013562012422161551 -0.0031682673361224205 0.023373251906522778 0.0036724412675755991 0.035455421829003339 0.039304601371443038 0.0094605019435035145 -0.013739292334242009 0.013270668848337192 0.033362564651292004 
        </DataArray>
        <DataArray type="Float64" Name="error_lod_real" NumberOfComponents="1" format="ascii">
          -0.010360959535545196 0.00034286805386761466 0.00034286805386791542 -0.010360959535545581 -0.014038843036845106 0.0026723244003857291 0.0054520767669325749 0.036829720626855619 0.0026723244003858198 0.0092555799367844416 -0.0068859006852653448 -0.0068859006852659554 0.0092555799367845526 -0.007566196070554942 -0.0086611336156460772 0.0099976389203848149 0.01509928398834651 0.015099283988346399 0.0099976389203847889 -0.0086611336156464797 -0.0075661960705550382 -0.006372903471452529 0.028864918767794401 -0.020391035406200908 -0.006372903471452529 0.035505813791416339 -0.043835402825002208 -0.04383540282500243 0.035505813791416097 -0.10834376436819115 0.14219676914260454 0.14219676914260382 -0.10834376436819138 0.022676986699887474 -0.010135210189219701 -0.010262223975453538 -0.010262223975453566 -0.03195106932304384 -0.031951069323044506 -0.010135210189219451 0.022676986699887325 0.0015086022054149302 -0.006136785644895673 0.0049882945228156405 0.0084315642438123201 0.0084315642438124328 0.0049882945228156492 -0.0061367856448960026 0.001508602205414574 0.0052817552436507653 -0.11197207277915278 0.12665984215429793 0.0052817552436506543 0.0097992874868959232 -0.022065943014775193 -0.0032006256282944429 0.017744846245634143 0.017744846245633945 -0.00059595101408110862 0.0051749185821369182 0.005174918582136665 -0.036909490997938194 -0.022065943014774814 0.0097992874868957098 -0.0032006256282943318 0.024700794518796546 0.020493274656172858 -0.037831416822802499 -0.024186171562489367 -0.02780818617652199 -0.050171854723384673 0.066849212376918044 0.027321033251742177 -0.050171854723385229 -0.027808186176522226 0.027321033251741345 0.066849212376917988 0.020493274656172705 0.024700794518796448 -0.024186171562489395 -0.037831416822802583 0.0054369187061724415 -0.0090358243113967188 -0.0090358243113966442 0.0054369187061720763 -0.10143984240371898 0.1002176071508159 0.10021760715081596 -0.10143984240371914 0.019120321242151739 -0.013383051782740275 -0.0024055170049714983 -0.0024055170049715677 0.0013843134775587962 0.0013843134775585464 -0.013383051782739949 0.019120321242151562 0.045398966380891415 -0.058933728866750884 0.013420704865850161 -0.0046826101497662864 -0.062313587740475906 0.10086125419936431 -0.00013641089444310639 -0.032542732846206457 -0.062313587740476351 0.10086125419936354 -0.032542732846207401 -0.00013641089444321741 0.045398966380891304 -0.058933728866750829 -0.0046826101497663974 0.013420704865850175 0.01435832109769699 0.0090866635304706327 0.0049672626265573547 0.0082585167888976213 -0.0084799866762342163 -0.014830156221586011 -0.0094453449498560996 -0.021814524370578715 -0.0094453449498562939 -0.021814524370579125 -0.0084799866762344071 -0.01483015622158592 0.0049672626265570424 0.0082585167888973646 0.014358321097696795 0.0090866635304704992 -0.051152756644890676 0.079854767269186056 -0.019742959089648328 0.011656441338698365 -0.060501715442874804 -0.060501715442874943 0.0074512499661788523 0.0074512499661789078 0.092597552706856323 0.092597552706855879 -0.04618013322485881 -0.046180133224859421 0.079854767269186056 -0.051152756644890773 0.011656441338698476 -0.019742959089648411 -0.0037746255831005359 -0.0047375428519381675 -0.00017918661627557486 0.00031273766778875224 0.0003127376677889925 -0.00017918661627544324 -0.0047375428519385024 -0.003774625583100938 -0.0042367682168634735 -0.10114681007601042 0.089567394857354432 -0.0042367682168636955 0.01287624307764604 -0.015791228148663638 0.0028359836225526451 0.014487974302338258 0.014487974302338147 -0.006710288269312227 0.017775181345637936 0.017775181345637762 0.0082167502527904571 -0.01579122814866326 0.012876243077645852 0.0028359836225527388 0.027382145301230135 0.024635276102373205 -0.017581360355105366 -0.023597168744944941 -0.031145220233703558 -0.049238984696246157 0.046434848647165905 0.027062275356337206 -0.04923898469624674 -0.031145220233703946 0.027062275356336263 0.046434848647165572 0.024635276102373177 0.027382145301230024 -0.023597168744944885 -0.017581360355105352 0.0026015301575603904 -0.0010690914330155482 0.0066525608891498875 -0.007610098714826416 0.0063208054894742273 0.0032664091251557517 0.0078060078869427079 -0.0086718052386537924 -0.0062298748639042223 0.012659775992960367 0.0014585956201596164 -0.013945553895644735 0.012659775992960337 0.0014585956201593757 -0.013945553895645068 0.0078060078869426472 -0.0086718052386535877 -0.0062298748639043403 -0.0076100987148267811 0.0063208054894739255 0.0032664091251554117 0.0026015301575601744 -0.0010690914330156879 0.0066525608891498077 0.0065499423506821253 -0.0096918148026902406 -0.035007612548421954 0.041077257552359525 -0.045299522333247438 0.021885329406225174 0.00095746445584754536 0.00095746445584743434 0.074179757897488874 -0.054471465542380193 0.0036101191550701461 0.00361011915506948 0.0065499423506820142 -0.0096918148026901851 0.041077257552359581 -0.035007612548422093 0.015209759039909709 0.011165581251194595 0.034798714717036036 0.031476584229171684 -0.014663081594662441 -0.014284030377652383 -0.040816684783916229 -0.047927421404082987 -0.014284030377652456 -0.014663081594662505 -0.047927421404083348 -0.040816684783916493 0.011165581251194299 0.015209759039909404 0.031476584229171503 0.034798714717035863 -0.07076873524101604 -0.11184403436126508 -0.068284257506614252 -0.073920636441229592 0.091914770129422341 0.13081635594136298 0.11035792804317407 0.10518178530449201 0.13081635594136232 0.091914770129422174 0.10518178530449113 0.11035792804317357 -0.11184403436126519 -0.070768735241016151 -0.073920636441229565 -0.068284257506614293 0.019163872836257846 0.0065123105066277887 0.02085891454308797 -0.0047701415556461145 -0.020404778156833052 -0.0025893299436103856 -0.017715810800070314 0.019101941056684196 0.0074862999298168295 -0.0083069291255540023 0.0067194838124682438 -0.014097468077652997 0.0074862999298166977 -0.0083069291255540578 0.0067194838124680217 -0.014097468077652997 -0.015781929868963145 -0.028412142232237869 -0.043252531781663495 -0.022486351942236804 -0.015781929868963492 -0.028412142232238202 -0.043252531781664244 -0.022486351942237637 -0.020404778156832781 -0.0025893299436100942 -0.017715810800070286 0.019101941056684335 0.019163872836257673 0.0065123105066276638 0.020858914543087907 -0.0047701415556461665 
        </DataArray>
        <DataArray type="Float64" Name="error_lod_imag" NumberOfComponents="1" format="ascii">
          0.003268943176415272 0.0099513644240276297 0.0099513644240273556 0.0032689431764151107 0.030747219165559336 -0.0041236025274639732 -0.045001532586189594 -0.026314831436993195 -0.0041236025274641892 0.0017556368611611473 -0.0052400455737407897 -0.005240045573741095 0.0017556368611618689 -0.0073409498781204794 -0.012782949192297235 0.0029103119293466197 1.9215141410498272e-05 1.9215141410106225e-05 0.0029103119293461674 -0.01278294919229722 -0.007340949878120181 0.01393450359331927 0.0029671176748430894 -0.019407347068610359 0.01393450359331927 0.028469832866178456 -0.0082956052228801858 -0.0082956052228805154 0.028469832866178862 -0.094085262286318083 0.020490759528463021 0.020490759528463187 -0.09408526228631775 -0.0051603645795176012 -0.022547776637910355 0.048153234009256848 0.048153234009257306 0.037576925483983267 0.037576925483983191 -0.022547776637910799 -0.0051603645795175734 -0.0050280715054749113 -0.0070099100950975672 -0.0029307160599678613 0.0020174101627408207 0.0020174101627404156 -0.0029307160599682169 -0.0070099100950975282 -0.0050280715054747977 -0.011466276859973812 -0.070187330018752991 0.039064243269526844 -0.011466276859973923 0.021711368584799367 -0.0033286854244364622 0.0080162524674217139 -0.014406055593371176 -0.014406055593371079 0.044208569498475403 -0.023233528715040599 -0.023233528715040825 0.027480334534109835 -0.0033286854244367605 0.021711368584799332 0.0080162524674214364 0.015094672351605748 0.04824773651266287 -0.055571090786579569 -0.01419211480021515 -0.0086402850624486376 0.015596116906476339 -0.0081659230155656237 0.0094638605861586539 0.015596116906476096 -0.0086402850624490365 0.0094638605861587094 -0.0081659230155659568 0.048247736512663363 0.015094672351606164 -0.014192114800214595 -0.055571090786579402 0.0082020911612021904 0.00064601286232601014 0.00064601286232564921 0.0082020911612022528 -0.044677516179883914 0.047592734193151021 0.04759273419315091 -0.044677516179883803 0.0036503986576547701 -0.015225234268447324 -0.0024633928925589244 -0.0024633928925587561 -0.00085426003279403043 -0.00085426003279409288 -0.015225234268447581 0.003650398657654659 0.043334837595424711 -0.081988609972518334 -0.011396245637569441 0.047631075108766741 -0.0054141119669872135 -0.0089511982372797172 -0.018268707520865637 0.035011545328723817 -0.005414111966987472 -0.0089511982372798282 0.035011545328723706 -0.018268707520866054 0.043334837595425321 -0.081988609972517557 0.047631075108767351 -0.011396245637569108 -9.587421453233734e-05 0.011543456686841515 0.0068788774510585458 0.021477084375872084 -0.009579134668789133 -0.00180128285606607 0.000473497446015941 0.0058524097001862035 0.00047349744601559753 0.0058524097001859537 -0.0095791346687895112 -0.0018012828560665332 0.0068788774510587713 0.021477084375872313 -9.5874214531943558e-05 0.011543456686841626 -0.061220379929945778 -0.0014356443479693892 0.0022409519254076304 0.015764340565371016 -0.069416803772691882 -0.069416803772691549 0.053186210650531668 0.053186210650532029 0.00071525093694524422 0.00071525093694552178 0.028563926566368105 0.02856392656636815 -0.0014356443479693892 -0.061220379929945667 0.015764340565370849 0.0022409519254076304 0.0026387249484577458 0.0015439998204068717 0.0043937477247680354 0.005024582706835222 0.0050245827068348802 0.0043937477247677128 0.0015439998204068639 0.0026387249484576838 0.0093443876210932419 -0.030809347733350423 0.056473200595604012 0.0093443876210931309 0.013257875182060338 -0.0086950700570176537 -0.0049341915996534771 -0.026474534019107959 -0.026474534019107866 -0.0075836518270581046 -0.023938096491828459 -0.023938096491828591 8.4341345715093635e-05 -0.0086950700570179139 0.013257875182060265 -0.00493419159965372 0.017439155829993475 0.044363555607151384 -0.045990322753419466 -0.0143930175695961 -0.0090964885001286709 0.0109882493360236 -0.016920278686146789 0.0089433007373513618 0.010988249336023388 -0.0090964885001290144 0.0089433007373512091 -0.01692027868614715 0.04436355560715205 0.017439155829994002 -0.014393017569595268 -0.045990322753419022 -0.0099279102338494119 0.010898617880937864 0.0022128321005562557 -0.011736186605744535 -0.0032780596187623463 0.01470537128537034 -0.0050259684335863305 0.0029008903225631807 -0.0031155724096338776 0.0013621514858465902 -0.0076041488854466681 0.0064094780046515983 0.001362151485846196 -0.0076041488854470003 0.0064094780046513016 -0.0050259684335867312 0.0029008903225627609 -0.0031155724096343105 -0.011736186605744508 -0.0032780596187623077 0.014705371285370559 -0.0099279102338491118 0.010898617880937976 0.0022128321005566165 -0.01426229116586597 0.021536078930370406 -0.023898403654845524 0.010538093201608811 -0.058118083949195043 0.051397105762706785 -0.004848022384555728 -0.0048480223845554504 -0.0033362096723721368 0.016443501679704889 -0.0035291798860390827 -0.0035291798860389717 -0.014262291165866192 0.021536078930370128 0.0105380932016087 -0.023898403654845524 0.0080700101349053983 0.0094334121227706274 0.02440696846554101 0.036054896849488378 -0.0059431133518993498 -0.0022833299462602509 -0.0098595881363311121 -0.00029556323337439488 -0.0022833299462606199 -0.0059431133518997011 -0.00029556323337468285 -0.0098595881363314451 0.009433412122770787 0.0080700101349056447 0.036054896849488746 0.024406968465541468 -0.060207201771663832 -0.07589156918033424 -0.086666905759860913 -0.074580305084181564 0.014176057696552613 0.035163625351264383 -0.0051292214011107173 0.007375887131636838 0.035163625351264827 0.014176057696552613 0.007375887131636949 -0.0051292214011108284 -0.075891569180333907 -0.060207201771663721 -0.074580305084181009 -0.08666690575986058 0.011655669492797151 -0.00075554422787826869 0.0054984807716971507 -0.020712689331050804 -0.011310203420981945 -0.0067442894395407793 -0.013457814050304662 -0.010899419891244266 0.013869036555892608 0.040657250428254507 0.050586504251029049 0.041172650433247776 0.013869036555892857 0.040657250428254785 0.050586504251029493 0.041172650433248303 0.0016941231489969108 0.031129780714933015 0.027032908278586901 0.037200228610039042 0.0016941231489967651 0.031129780714933008 0.027032908278586759 0.037200228610039056 -0.011310203420982306 -0.0067442894395411401 -0.013457814050305085 -0.010899419891244683 0.011655669492797165 -0.00075554422787837971 0.0054984807716973449 -0.020712689331050749 
        </DataArray>
      </PointData>
      <CellData>
        <DataArray type="Float64" Name="diffusion" NumberOfComponents="1" format="ascii">
          1 1 1 1 1 1 1 1 1 1 1 1 1 1 1 1 1 1 1 1 1 1 1 1 1 1 1 1 1 1 1 1 1 1 1 1 1 1 1 1 1 1 1 1 1 1 1 1 1 1 1 1 1 1 1 1 1 1 1 1 1 1 1 1 1 1 1 1 1 1 1 1 1 1 1 1 1 1 1 1 1 1 1 1 1 1 1 1 1 1 1 1 1 1 1 1 1 1 1 1 1 1 1 1 1 1 1 1 1 1 1 1 1 1 1 1 1 1 1 1 1 1 1 1 1 1 1 1 1 1 1 1 1 1 1 1 1 1 1 1 1 1 1 1 1 1 1 1 1 1 1 1 1 1 1 1 1 1 1 1 1 1 1 1 1 1 1 1 1 1 1 1 1 1 1 1 1 1 1 1 1 1 1 1 1 1 1 1 1 1 1 1 1 1 1 1 1 1 1 1 1 1 1 1 1 1 1 1 1 1 1 1 1 1 1 1 1 1 1 1 1 1 1 1 1 1 1 1 1 1 1 1 1 1 1 1 1 1 1 1 1 1 1 1 1 1 1 1 1 1 1 1 1 1 1 1 1 1 1 1 1 1 1 1 1 1 1 1 1 1 1 1 1 1 1 1 1 1 1 1 1 1 1 1 1 1 1 1 1 1 1 1 1 1 1 1 1 1 1 1 1 1 1 1 1 1 1 1 1 1 1 1 1 1 1 1 1 1 1 1 1 1 1 1 1 1 1 1 1 1 1 1 1 1 1 1 1 1 1 1 1 1 1 1 1 1 1 1 1 1 1 1 1 1 1 1 1 1 1 1 1 1 1 1 1 1 1 1 1 1 1 1 1 1 1 1 1 1 1 1 1 1 1 1 1 1 1 1 1 1 1 1 1 1 1 1 1 1 1 1 1 1 1 1 1 1 1 1 1 1 1 1 1 1 1 1 1 1 1 1 1 1 1 1 1 1 1 1 1 1 1 1 1 1 1 1 1 1 1 1 1 1 1 1 1 1 1 1 1 1 1 1 1 1 1 1 1 1 1 1 1 1 1 1 1 1 1 1 1 1 1 1 1 1 1 1 1 1 1 1 1 1 1 1 1 1 1 1 1 1 1 1 1 1 1 1 1 1 1 1 1 1 1 1 1 1 1 1 1 1 1 1 
        </DataArray>
        <DataArray type="Float64" Name="refractive_index" NumberOfComponents="1" format="ascii">
          1 1 1 1 1 1 1 1 1 1 1 1 1 1 1 1 1 1 1 1 1 1 1 1 1 1 1 1 1 1 1 1 1 1 1 1 1 1 1 1 1 1 1 1 1 1 1 1 1 1 1 1 1 1 1 1 1 1 1 1 1 1 1 1 1 1 1 1 1 1 1 1 1 1 1 1 1 1 1 1 1 1 1 1 1 1 1 1 1 1 1 1 1 1 1 1 1 1 1 1 1 1 1 1 1 1 1 1 1 1 1 1 1 1 1 1 1 1 1 1 1 1 1 1 1 1 1 1 1 1 1 1 1 1 1 1 1 1 1 1 1 1 1 1 1 1 1 1 1 1 1 1 1 1 1 1 1 1 1 1 1 1 1 1 1 1 1 1 1 1 1 1 1 1 1 1 1 1 1 1 1 1 1 1 1 1 1 1 1 1 1 1 1 1 1 1 1 1 1 1 1 1 1 1 1 1 1 1 1 1 1 1 1 1 1 1 1 1 1 1 1 1 1 1 1 1 1 1 1 1 1 1 1 1 1 1 1 1 1 1 1 1 1 1 1 1 1 1 1 1 1 1 1 1 1 1 1 1 1 1 1 1 1 1 1 1 1 1 1 1 1 1 1 1 1 1 1 1 1 1 1 1 1 1 1 1 1 1 1 1 1 1 1 1 1 1 1 1 1 1 1 1 1 1 1 1 1 1 1 1 1 1 1 1 1 1 1 1 1 1 1 1 1 1 1 1 1 1 1 1 1 1 1 1 1 1 1 1 1 1 1 1 1 1 1 1 1 1 1 1 1 1 1 1 1 1 1 1 1 1 1 1 1 1 1 1 1 1 1 1 1 1 1 1 1 1 1 1 1 1 1 1 1 1 1 1 1 1 1 1 1 1 1 1 1 1 1 1 1 1 1 1 1 1 1 1 1 1 1 1 1 1 1 1 1 1 1 1 1 1 1 1 1 1 1 1 1 1 1 1 1 1 1 1 1 1 1 1 1 1 1 1 1 1 1 1 1 1 1 1 1 1 1 1 1 1 1 1 1 1 1 1 1 1 1 1 1 1 1 1 1 1 1 1 1 1 1 1 1 1 1 1 1 1 1 1 1 1 1 1 1 1 1 1 1 1 1 1 1 1 1 1 1 1 1 1 1 1 1 1 1 1 
        </DataArray>
      </CellData>
      <Points>
        <DataArray type="Float64" NumberOfComponents="3" format="ascii">
          0 0 0 1 0 0 1 1 0 0 1 0 0.5 0.5 0 0.5 0 0 0 0.5 0 1 0.5 0 0.5 1 0 0.25 0.25 0 0.75 0.25 0 0.75 0.75 0 0.25 0.75 0 0.25 0 0 0 0.25 0 0.75 0 0 1 0.25 0 1 0.75 0 0.75 1 0 0 0.75 0 0.25 1 0 0.5 0.25 0 0.25 0.5 0 0.75 0.5 0 0.5 0.75 0 0.125 0.125 0 0.875 0.125 0 0.875 0.875 0 0.125 0.875 0 0.375 0.375 0 0.625 0.375 0 0.625 0.625 0 0.375 0.625 0 0.375 0.125 0 0.625 0.125 0 0.125 0.375 0 0.125 0.625 0 0.875 0.375 0 0.875 0.625 0 0.625 0.875 0 0.375 0.875 0 0.125 0 0 0 0.125 0 0.875 0 0 1 0.125 0 1 0.875 0 0.875 1 0 0 0.875 0 0.125 1 0 0.5 0.375 0 0.375 0.5 0 0.625 0.5 0 0.5 0.625 0 0.375 0 0 0.625 0 0 0.5 0.125 0 0 0.375 0 0 0.625 0 0.125 0.5 0 1 0.375 0 1 0.625 0 0.875 0.5 0 0.625 1 0 0.375 1 0 0.5 0.875 0 0.25 0.125 0 0.125 0.25 0 0.375 0.25 0 0.25 0.375 0 0.75 0.125 0 0.875 0.25 0 0.625 0.25 0 0.75 0.375 0 0.875 0.75 0 0.75 0.875 0 0.75 0.625 0 0.625 0.75 0 0.125 0.75 0 0.25 0.875 0 0.25 0.625 0 0.375 0.75 0 0.0625 0.0625 0 0.9375 0.0625 0 0.9375 0.9375 0 0.0625 0.9375 0 0.4375 0.4375 0 0.5625 0.4375 0 0.5625 0.5625 0 0.4375 0.5625 0 0.4375 0.0625 0 0.5625 0.0625 0 0.0625 0.4375 0 0.0625 0.5625 0 0.9375 0.4375 0 0.9375 0.5625 0 0.5625 0.9375 0 0.4375 0.9375 0 0.1875 0.1875 0 0.3125 0.3125 0 0.3125 0.1875 0 0.1875 0.3125 0 0.8125 0.1875 0 0.6875 0.3125 0 0.6875 0.1875 0 0.8125 0.3125 0 0.8125 0.8125 0 0.6875 0.6875 0 0.8125 0.6875 0 0.6875 0.8125 0 0.1875 0.8125 0 0.3125 0.6875 0 0.1875 0.6875 0 0.3125 0.8125 0 0.1875 0.0625 0 0.3125 0.0625 0 0.0625 0.1875 0 0.0625 0.3125 0 0.8125 0.0625 0 0.6875 0.0625 0 0.9375 0.1875 0 0.9375 0.3125 0 0.9375 0.8125 0 0.9375 0.6875 0 0.8125 0.9375 0 0.6875 0.9375 0 0.0625 0.8125 0 0.0625 0.6875 0 0.1875 0.9375 0 0.3125 0.9375 0 0.4375 0.3125 0 0.5625 0.3125 0 0.4375 0.1875 0 0.5625 0.1875 0 0.3125 0.4375 0 0.3125 0.5625 0 0.1875 0.4375 0 0.1875 0.5625 0 0.6875 0.4375 0 0.6875 0.5625 0 0.8125 0.4375 0 0.8125 0.5625 0 0.5625 0.6875 0 0.4375 0.6875 0 0.5625 0.8125 0 0.4375 0.8125 0 0.0625 0 0 0 0.0625 0 0.9375 0 0 1 0.0625 0 1 0.9375 0 0.9375 1 0 0 0.9375 0 0.0625 1 0 0.5 0.4375 0 0.4375 0.5 0 0.5625 0.5 0 0.5 0.5625 0 0.4375 0 0 0.5625 0 0 0.5 0.0625 0 0 0.4375 0 0 0.5625 0 0.0625 0.5 0 1 0.4375 0 1 0.5625 0 0.9375 0.5 0 0.5625 1 0 0.4375 1 0 0.5 0.9375 0 0.25 0.1875 0 0.1875 0.25 0 0.3125 0.25 0 0.25 0.3125 0 0.75 0.1875 0 0.8125 0.25 0 0.6875 0.25 0 0.75 0.3125 0 0.8125 0.75 0 0.75 0.8125 0 0.75 0.6875 0 0.6875 0.75 0 0.1875 0.75 0 0.25 0.8125 0 0.25 0.6875 0 0.3125 0.75 0 0.1875 0 0 0.3125 0 0 0.25 0.0625 0 0 0.1875 0 0 0.3125 0 0.0625 0.25 0 0.8125 0 0 0.6875 0 0 0.75 0.0625 0 1 0.1875 0 1 0.3125 0 0.9375 0.25 0 1 0.8125 0 1 0.6875 0 0.9375 0.75 0 0.8125 1 0 0.6875 1 0 0.75 0.9375 0 0 0.8125 0 0 0.6875 0 0.0625 0.75 0 0.1875 1 0 0.3125 1 0 0.25 0.9375 0 0.5 0.3125 0 0.5 0.1875 0 0.4375 0.25 0 0.5625 0.25 0 0.3125 0.5 0 0.1875 0.5 0 0.25 0.4375 0 0.25 0.5625 0 0.6875 0.5 0 0.8125 0.5 0 0.75 0.4375 0 0.75 0.5625 0 0.5 0.6875 0 0.5 0.8125 0 0.5625 0.75 0 0.4375 0.75 0 0.125 0.0625 0 0.0625 0.125 0 0.1875 0.125 0 0.125 0.1875 0 0.875 0.0625 0 0.9375 0.125 0 0.8125 0.125 0 0.875 0.1875 0 0.9375 0.875 0 0.875 0.9375 0 0.875 0.8125 0 0.8125 0.875 0 0.0625 0.875 0 0.125 0.9375 0 0.125 0.8125 0 0.1875 0.875 0 0.4375 0.375 0 0.375 0.4375 0 0.375 0.3125 0 0.3125 0.375 0 0.5625 0.375 0 0.625 0.4375 0 0.625 0.3125 0 0.6875 0.375 0 0.625 0.5625 0 0.5625 0.625 0 0.6875 0.625 0 0.625 0.6875 0 0.375 0.5625 0 0.4375 0.625 0 0.3125 0.625 0 0.375 0.6875 0 0.375 0.0625 0 0.4375 0.125 0 0.3125 0.125 0 0.375 0.1875 0 0.625 0.0625 0 0.5625 0.125 0 0.6875 0.125 0 0.625 0.1875 0 0.0625 0.375 0 0.125 0.4375 0 0.125 0.3125 0 0.1875 0.375 0 0.0625 0.625 0 0.125 0.5625 0 0.125 0.6875 0 0.1875 0.625 0 0.9375 0.375 0 0.875 0.4375 0 0.875 0.3125 0 0.8125 0.375 0 0.9375 0.625 0 0.875 0.5625 0 0.875 0.6875 0 0.8125 0.625 0 0.625 0.9375 0 0.5625 0.875 0 0.6875 0.875 0 0.625 0.8125 0 0.375 0.9375 0 0.4375 0.875 0 0.3125 0.875 0 0.375 0.8125 0 
        </DataArray>
      </Points>
      <Cells>
        <DataArray type="Int32" Name="connectivity" format="ascii">
          260 131 67 284 143 76 272 136 79 276 139 72 263 118 69 287 128 78 267 116 66 279 122 73 227 113 65 236 123 74 239 125 77 232 119 70 247 130 71 256 142 80 244 133 68 251 138 75 241 129 49 250 141 52 253 134 50 246 137 51 229 117 43 238 127 48 226 115 42 233 121 45 257 114 53 281 124 62 269 126 57 273 120 59 262 132 55 286 144 64 266 135 58 278 140 61 258 89 55 282 95 64 270 92 58 274 93 61 261 90 54 285 96 63 265 91 56 277 94 60 225 81 41 234 83 46 237 84 47 230 82 44 245 86 49 254 88 52 242 85 50 249 87 51 243 98 67 252 106 76 255 110 79 248 102 72 231 101 69 240 109 78 228 97 66 235 105 73 259 99 65 283 108 74 271 111 77 275 104 70 264 103 71 288 112 80 268 100 68 280 107 75 171 99 67 180 108 76 183 111 79 176 104 72 173 103 69 182 112 78 170 100 66 177 107 73 169 97 65 178 105 74 181 109 77 174 101 70 175 102 71 184 110 80 172 98 68 179 106 75 153 85 49 156 87 52 154 88 50 155 86 51 147 82 43 152 84 48 146 81 42 149 83 45 157 89 53 166 95 62 161 92 57 163 93 59 159 90 55 168 96 64 162 91 58 165 94 61 210 131 55 222 143 64 214 136 58 218 139 61 192 118 54 207 128 63 189 116 56 198 122 60 185 113 41 200 123 46 203 125 47 194 119 44 209 130 49 221 142 52 213 133 50 217 138 51 211 129 67 223 141 76 216 134 79 219 137 72 193 117 69 208 127 78 190 115 66 199 121 73 187 114 65 202 124 74 205 126 77 196 120 70 212 132 71 224 144 80 215 135 68 220 140 75 211 131 21 223 143 24 216 136 22 219 139 23 193 118 15 208 128 20 190 116 14 199 122 17 187 113 13 202 123 18 205 125 19 196 119 16 212 130 21 224 142 24 215 133 22 220 138 23 209 129 21 221 141 24 213 134 22 217 137 23 191 117 15 206 127 20 188 115 14 197 121 17 186 114 13 201 124 18 204 126 19 195 120 16 210 132 21 222 144 24 214 135 22 218 140 23 159 89 5 168 95 8 162 92 6 165 93 7 158 90 5 167 96 8 160 91 6 164 94 7 145 81 0 150 83 2 151 84 3 148 82 1 153 86 4 156 88 4 154 85 4 155 87 4 171 98 9 180 106 11 183 110 12 176 102 10 173 101 10 182 109 12 170 97 9 177 105 11 169 99 9 178 108 11 181 111 12 174 104 10 175 103 10 184 112 12 172 100 9 179 107 11 260 99 33 284 108 39 272 111 36 276 104 37 263 103 34 287 112 40 267 100 35 279 107 38 227 97 25 236 105 27 239 109 28 232 101 26 247 102 30 256 110 32 244 98 29 251 106 31 241 85 29 250 87 31 253 88 32 246 86 30 229 82 26 238 84 28 226 81 25 233 83 27 257 89 33 281 95 39 269 92 36 273 93 37 262 90 34 286 96 40 266 91 35 278 94 38 258 131 33 282 143 39 270 136 36 274 139 37 261 118 34 285 128 40 265 116 35 277 122 38 225 113 25 234 123 27 237 125 28 230 119 26 245 130 30 254 142 32 242 133 29 249 138 31 243 129 29 252 141 31 255 134 32 248 137 30 231 117 26 240 127 28 228 115 25 235 121 27 259 114 33 283 124 39 271 126 36 275 120 37 264 132 34 288 144 40 268 135 35 280 140 38 260 33 131 284 39 143 272 36 136 276 37 139 263 34 118 287 40 128 267 35 116 279 38 122 227 25 113 236 27 123 239 28 125 232 26 119 247 30 130 256 32 142 244 29 133 251 31 138 241 29 129 250 31 141 253 32 134 246 30 137 229 26 117 238 28 127 226 25 115 233 27 121 257 33 114 281 39 124 269 36 126 273 37 120 262 34 132 286 40 144 266 35 135 278 38 140 258 33 89 282 39 95 270 36 92 274 37 93 261 34 90 285 40 96 265 35 91 277 38 94 225 25 81 234 27 83 237 28 84 230 26 82 245 30 86 254 32 88 242 29 85 249 31 87 243 29 98 252 31 106 255 32 110 248 30 102 231 26 101 240 28 109 228 25 97 235 27 105 259 33 99 283 39 108 271 36 111 275 37 104 264 34 103 288 40 112 268 35 100 280 38 107 171 9 99 180 11 108 183 12 111 176 10 104 173 10 103 182 12 112 170 9 100 177 11 107 169 9 97 178 11 105 181 12 109 174 10 101 175 10 102 184 12 110 172 9 98 179 11 106 153 4 85 156 4 87 154 4 88 155 4 86 147 1 82 152 3 84 146 0 81 149 2 83 157 5 89 166 8 95 161 6 92 163 7 93 159 5 90 168 8 96 162 6 91 165 7 94 210 21 131 222 24 143 214 22 136 218 23 139 192 15 118 207 20 128 189 14 116 198 17 122 185 13 113 200 18 123 203 19 125 194 16 119 209 21 130 221 24 142 213 22 133 217 23 138 211 21 129 223 24 141 216 22 134 219 23 137 193 15 117 208 20 127 190 14 115 199 17 121 187 13 114 202 18 124 205 19 126 196 16 120 212 21 132 224 24 144 215 22 135 220 23 140 211 67 131 223 76 143 216 79 136 219 72 139 193 69 118 208 78 128 190 66 116 199 73 122 187 65 113 202 74 123 205 77 125 196 70 119 212 71 130 224 80 142 215 68 133 220 75 138 209 49 129 221 52 141 213 50 134 217 51 137 191 43 117 206 48 127 188 42 115 197 45 121 186 53 114 201 62 124 204 57 126 195 59 120 210 55 132 222 64 144 214 58 135 218 61 140 159 55 89 168 64 95 162 58 92 165 61 93 158 54 90 167 63 96 160 56 91 164 60 94 145 41 81 150 46 83 151 47 84 148 44 82 153 49 86 156 52 88 154 50 85 155 51 87 171 67 98 180 76 106 183 79 110 176 72 102 173 69 101 182 78 109 170 66 97 177 73 105 169 65 99 178 74 108 181 77 111 174 70 104 175 71 103 184 80 112 172 68 100 179 75 107 260 67 99 284 76 108 272 79 111 276 72 104 263 69 103 287 78 112 267 66 100 279 73 107 227 65 97 236 74 105 239 77 109 232 70 101 247 71 102 256 80 110 244 68 98 251 75 106 241 49 85 250 52 87 253 50 88 246 51 86 229 43 82 238 48 84 226 42 81 233 45 83 257 53 89 281 62 95 269 57 92 273 59 93 262 55 90 286 64 96 266 58 91 278 61 94 258 55 131 282 64 143 270 58 136 274 61 139 261 54 118 285 63 128 265 56 116 277 60 122 225 41 113 234 46 123 237 47 125 230 44 119 245 49 130 254 52 142 242 50 133 249 51 138 243 67 129 252 76 141 255 79 134 248 72 137 231 69 117 240 78 127 228 66 115 235 73 121 259 65 114 283 74 124 271 77 126 275 70 120 264 71 132 288 80 144 268 68 135 280 75 140 
        </DataArray>
        <DataArray type="Int32" Name="offsets" format="ascii">
          3 6 9 12 15 18 21 24 27 30 33 36 39 42 45 48 51 54 57 60 63 66 69 72 75 78 81 84 87 90 93 96 99 102 105 108 111 114 117 120 123 126 129 132 135 138 141 144 147 150 153 156 159 162 165 168 171 174 177 180 183 186 189 192 195 198 201 204 207 210 213 216 219 222 225 228 231 234 237 240 243 246 249 252 255 258 261 264 267 270 273 276 279 282 285 288 291 294 297 300 303 306 309 312 315 318 321 324 327 330 333 336 339 342 345 348 351 354 357 360 363 366 369 372 375 378 381 384 387 390 393 396 399 402 405 408 411 414 417 420 423 426 429 432 435 438 441 444 447 450 453 456 459 462 465 468 471 474 477 480 483 486 489 492 495 498 501 504 507 510 513 516 519 522 525 528 531 534 537 540 543 546 549 552 555 558 561 564 567 570 573 576 579 582 585 588 591 594 597 600 603 606 609 612 615 618 621 624 627 630 633 636 639 642 645 648 651 654 657 660 663 666 669 672 675 678 681 684 687 690 693 696 699 702 705 708 711 714 717 720 723 726 729 732 735 738 741 744 747 750 753 756 759 762 765 768 771 774 777 780 783 786 789 792 795 798 801 804 807 810 813 816 819 822 825 828 831 834 837 840 843 846 849 852 855 858 861 864 867 870 873 876 879 882 885 888 891 894 897 900 903 906 909 912 915 918 921 924 927 930 933 936 939 942 945 948 951 954 957 960 963 966 969 972 975 978 981 984 987 990 993 996 999 1002 1005 1008 1011 1014 1017 1020 1023 1026 1029 1032 1035 1038 1041 1044 1047 1050 1053 1056 1059 1062 1065 1068 1071 1074 1077 1080 1083 1086 1089 1092 1095 1098 1101 1104 1107 1110 1113 1116 1119 1122 1125 1128 1131 1134 1137 1140 1143 1146 1149 1152 1155 1158 1161 1164 1167 1170 1173 1176 1179 1182 1185 1188 1191 1194 1197 1200 1203 1206 1209 1212 1215 1218 1221 1224 1227 1230 1233 1236 1239 1242 1245 1248 1251 1254 1257 1260 1263 1266 1269 1272 1275 1278 1281 1284 1287 1290 1293 1296 1299 1302 1305 1308 1311 1314 1317 1320 1323 1326 1329 1332 1335 1338 1341 1344 1347 1350 1353 1356 1359 1362 1365 1368 1371 1374 1377 1380 1383 1386 1389 1392 1395 1398 1401 1404 1407 1410 1413 1416 1419 1422 1425 1428 1431 1434 1437 1440 1443 1446 1449 1452 1455 1458 1461 1464 1467 1470 1473 1476 1479 1482 1485 1488 1491 1494 1497 1500 1503 1506 1509 1512 1515 1518 1521 1524 1527 1530 1533 1536 
        </DataArray>
        <DataArray type="UInt8" Name="types" format="ascii">
          5 5 5 5 5 5 5 5 5 5 5 5 5 5 5 5 5 5 5 5 5 5 5 5 5 5 5 5 5 5 5 5 5 5 5 5 5 5 5 5 5 5 5 5 5 5 5 5 5 5 5 5 5 5 5 5 5 5 5 5 5 5 5 5 5 5 5 5 5 5 5 5 5 5 5 5 5 5 5 5 5 5 5 5 5 5 5 5 5 5 5 5 5 5 5 5 5 5 5 5 5 5 5 5 5 5 5 5 5 5 5 5 5 5 5 5 5 5 5 5 5 5 5 5 5 5 5 5 5 5 5 5 5 5 5 5 5 5 5 5 5 5 5 5 5 5 5 5 5 5 5 5 5 5 5 5 5 5 5 5 5 5 5 5 5 5 5 5 5 5 5 5 5 5 5 5 5 5 5 5 5 5 5 5 5 5 5 5 5 5 5 5 5 5 5 5 5 5 5 5 5 5 5 5 5 5 5 5 5 5 5 5 5 5 5 5 5 5 5 5 5 5 5 5 5 5 5 5 5 5 5 5 5 5 5 5 5 5 5 5 5 5 5 5 5 5 5 5 5 5 5 5 5 5 5 5 5 5 5 5 5 5 5 5 5 5 5 5 5 5 5 5 5 5 5 5 5 5 5 5 5 5 5 5 5 5 5 5 5 5 5 5 5 5 5 5 5 5 5 5 5 5 5 5 5 5 5 5 5 5 5 5 5 5 5 5 5 5 5 5 5 5 5 5 5 5 5 5 5 5 5 5 5 5 5 5 5 5 5 5 5 5 5 5 5 5 5 5 5 5 5 5 5 5 5 5 5 5 5 5 5 5 5 5 5 5 5 5 5 5 5 5 5 5 5 5 5 5 5 5 5 5 5 5 5 5 5 5 5 5 5 5 5 5 5 5 5 5 5 5 5 5 5 5 5 5 5 5 5 5 5 5 5 5 5 5 5 5 5 5 5 5 5 5 5 5 5 5 5 5 5 5 5 5 5 5 5 5 5 5 5 5 5 5 5 5 5 5 5 5 5 5 5 5 5 5 5 5 5 5 5 5 5 5 5 5 5 5 5 5 5 5 5 5 5 5 5 5 5 5 5 5 5 5 5 5 5 5 5 5 5 5 5 5 5 5 5 5 5 5 5 5 5 5 5 5 5 5 5 5 5 5 
        </DataArray>
      </Cells>
    </Piece>
  </UnstructuredGrid>
</VTKFile>
